<?xml version="1.0" encoding="UTF-8" standalone="no"?>
<!-- Created with Inkscape (http://www.inkscape.org/) -->

<svg
   width="298.74457mm"
   height="144.45544mm"
   viewBox="0 0 298.74457 144.45544"
   version="1.1"
   id="svg1"
   inkscape:version="1.3.2 (091e20e, 2023-11-25)"
   sodipodi:docname="ffn_texto.svg"
   xmlns:inkscape="http://www.inkscape.org/namespaces/inkscape"
   xmlns:sodipodi="http://sodipodi.sourceforge.net/DTD/sodipodi-0.dtd"
   xmlns="http://www.w3.org/2000/svg"
   xmlns:svg="http://www.w3.org/2000/svg">
  <sodipodi:namedview
     id="namedview1"
     pagecolor="#ffffff"
     bordercolor="#000000"
     borderopacity="0.25"
     inkscape:showpageshadow="2"
     inkscape:pageopacity="0.0"
     inkscape:pagecheckerboard="0"
     inkscape:deskcolor="#d1d1d1"
     inkscape:document-units="mm"
     inkscape:zoom="0.2102413"
     inkscape:cx="566.01628"
     inkscape:cy="271.11704"
     inkscape:window-width="1680"
     inkscape:window-height="997"
     inkscape:window-x="0"
     inkscape:window-y="25"
     inkscape:window-maximized="0"
     inkscape:current-layer="layer1" />
  <defs
     id="defs1">
    <clipPath
       clipPathUnits="userSpaceOnUse"
       id="clipPath2-4">
      <path
         d="M 0,799 H 881 V 0 H 0 Z"
         transform="translate(-774.34959,-20.526401)"
         id="path2-8" />
    </clipPath>
    <clipPath
       clipPathUnits="userSpaceOnUse"
       id="clipPath4-3">
      <path
         d="M 0,799 H 881 V 0 H 0 Z"
         transform="translate(-61.174802,-180.6074)"
         id="path4-9" />
    </clipPath>
    <clipPath
       clipPathUnits="userSpaceOnUse"
       id="clipPath6-0">
      <path
         d="M 0,799 H 881 V 0 H 0 Z"
         transform="translate(-303.22171,-180.6074)"
         id="path6-5" />
    </clipPath>
    <clipPath
       clipPathUnits="userSpaceOnUse"
       id="clipPath8-2">
      <path
         d="M 0,799 H 881 V 0 H 0 Z"
         transform="translate(-550.81151,-180.6074)"
         id="path8-2" />
    </clipPath>
    <clipPath
       clipPathUnits="userSpaceOnUse"
       id="clipPath10-7">
      <path
         d="M 0,799 H 881 V 0 H 0 Z"
         transform="translate(-72.354002,-99.9854)"
         id="path10-3" />
    </clipPath>
    <clipPath
       clipPathUnits="userSpaceOnUse"
       id="clipPath12-7">
      <path
         d="M 0,799 H 881 V 0 H 0 Z"
         transform="translate(-123.73581,-99.9854)"
         id="path12-9" />
    </clipPath>
    <clipPath
       clipPathUnits="userSpaceOnUse"
       id="clipPath14-0">
      <path
         d="M 0,799 H 881 V 0 H 0 Z"
         transform="translate(-175.5195,-99.9854)"
         id="path14-2" />
    </clipPath>
    <clipPath
       clipPathUnits="userSpaceOnUse"
       id="clipPath16-3">
      <path
         d="M 0,799 H 881 V 0 H 0 Z"
         transform="translate(-228.91941,-99.9854)"
         id="path16-9" />
    </clipPath>
    <clipPath
       clipPathUnits="userSpaceOnUse"
       id="clipPath18-9">
      <path
         d="M 0,799 H 881 V 0 H 0 Z"
         transform="translate(-293.75101,-99.9854)"
         id="path18-7" />
    </clipPath>
    <clipPath
       clipPathUnits="userSpaceOnUse"
       id="clipPath20-0">
      <path
         d="M 0,799 H 881 V 0 H 0 Z"
         transform="translate(-345.93951,-99.9854)"
         id="path20-3" />
    </clipPath>
    <clipPath
       clipPathUnits="userSpaceOnUse"
       id="clipPath22-9">
      <path
         d="M 0,799 H 881 V 0 H 0 Z"
         transform="translate(-417.83201,-99.9854)"
         id="path22-8" />
    </clipPath>
    <clipPath
       clipPathUnits="userSpaceOnUse"
       id="clipPath24-6">
      <path
         d="M 0,799 H 881 V 0 H 0 Z"
         transform="translate(-496.29591,-125.0576)"
         id="path24-5" />
    </clipPath>
    <clipPath
       clipPathUnits="userSpaceOnUse"
       id="clipPath26-7">
      <path
         d="M 0,799 H 881 V 0 H 0 Z"
         transform="translate(-555.60352,-113.5732)"
         id="path26-6" />
    </clipPath>
    <clipPath
       clipPathUnits="userSpaceOnUse"
       id="clipPath28-2">
      <path
         d="M 0,799 H 881 V 0 H 0 Z"
         transform="translate(-577.28711,-99.9854)"
         id="path28-7" />
    </clipPath>
    <clipPath
       clipPathUnits="userSpaceOnUse"
       id="clipPath30-0">
      <path
         d="M 0,799 H 881 V 0 H 0 Z"
         transform="translate(-627.79391,-99.9854)"
         id="path30-3" />
    </clipPath>
    <clipPath
       clipPathUnits="userSpaceOnUse"
       id="clipPath32-9">
      <path
         d="M 0,799 H 881 V 0 H 0 Z"
         transform="translate(-654.89552,-99.9854)"
         id="path32-9" />
    </clipPath>
    <clipPath
       clipPathUnits="userSpaceOnUse"
       id="clipPath34-9">
      <path
         d="M 0,799 H 881 V 0 H 0 Z"
         transform="translate(-760.49319,-125.0576)"
         id="path34-1" />
    </clipPath>
    <clipPath
       clipPathUnits="userSpaceOnUse"
       id="clipPath36-7">
      <path
         d="M 0,799 H 881 V 0 H 0 Z"
         transform="translate(-816.07915,-113.5732)"
         id="path36-2" />
    </clipPath>
    <clipPath
       clipPathUnits="userSpaceOnUse"
       id="clipPath38-3">
      <path
         d="M 0,799 H 881 V 0 H 0 Z"
         transform="translate(-271.0591,-58.993204)"
         id="path38-6" />
    </clipPath>
    <clipPath
       clipPathUnits="userSpaceOnUse"
       id="clipPath40-5">
      <path
         d="M 0,799 H 881 V 0 H 0 Z"
         transform="translate(-290.20071,-36.889601)"
         id="path40-5" />
    </clipPath>
    <clipPath
       clipPathUnits="userSpaceOnUse"
       id="clipPath42-8">
      <path
         d="M 0,799 H 881 V 0 H 0 Z"
         transform="translate(-329.15821,-84.046902)"
         id="path42-1" />
    </clipPath>
    <clipPath
       clipPathUnits="userSpaceOnUse"
       id="clipPath44-4">
      <path
         d="M 0,799 H 881 V 0 H 0 Z"
         transform="translate(-396.21921,-36.889601)"
         id="path44-7" />
    </clipPath>
    <clipPath
       clipPathUnits="userSpaceOnUse"
       id="clipPath46-1">
      <path
         d="M 0,799 H 881 V 0 H 0 Z"
         transform="translate(-478.93161,-58.993204)"
         id="path46-3" />
    </clipPath>
    <clipPath
       clipPathUnits="userSpaceOnUse"
       id="clipPath48-8">
      <path
         d="M 0,799 H 881 V 0 H 0 Z"
         transform="translate(-510.67091,-36.889601)"
         id="path48-4" />
    </clipPath>
    <clipPath
       clipPathUnits="userSpaceOnUse"
       id="clipPath50-8">
      <path
         d="M 0,799 H 881 V 0 H 0 Z"
         transform="translate(-576.13481,-58.993204)"
         id="path50-0" />
    </clipPath>
    <clipPath
       clipPathUnits="userSpaceOnUse"
       id="clipPath52-4">
      <path
         d="M 0,799 H 881 V 0 H 0 Z"
         transform="translate(-592.26172,-36.889601)"
         id="path52-6" />
    </clipPath>
  </defs>
  <g
     inkscape:label="Capa 1"
     inkscape:groupmode="layer"
     id="layer1"
     transform="translate(44.979164,-76.2)">
    <g
       id="g3"
       transform="matrix(0.26458333,0,0,0.26458333,-50.681673,-53.972744)">
      <path
         id="path1-7"
         d="m 0,0 88.65,156.768 h -5.946 c -8.004,0 -15.369,3.021 -20.73,8.492 -20.03,20.457 -27.66,33.332 -33.936,57.419 L -7.52,351.634 c -1.294,4.474 -2.1,8.162 -2.455,11.317 l 20.357,46.529 h -686.073 l 19.579,-46.539 c -0.412,-3.155 -1.281,-6.842 -2.647,-11.307 l -37.715,-128.955 c -6.598,-23.794 -14.77,-37.211 -34.862,-57.385 l -0.034,-0.034 c -5.447,-5.471 -12.87,-8.492 -20.873,-8.492 h -5.942 L -672.157,0 Z"
         style="fill:#f03d4d;fill-opacity:1;fill-rule:nonzero;stroke:none"
         transform="matrix(1.3333333,0,0,-1.3333333,1032.4661,1037.9648)"
         clip-path="url(#clipPath2-4)" />
      <path
         id="path3-4"
         d="m 0,0 c 21.55,21.525 30.388,36.214 37.562,61.485 l 37.657,126.117 c 5.615,17.948 4.685,27.611 -3.726,40.845 l -4.532,6.988 h 191.328 l -7.792,-56.662 c -13.806,15.69 -26.768,20.399 -54.13,20.399 H 128.581 L 116.55,152.734 H 220.977 L 210.14,82.373 c -14.396,19.599 -28.322,25.459 -58.134,25.459 H 105.247 L 93.925,61.485 C 87.903,36.214 89.173,21.525 99.776,0 l 5.984,-12.065 H -12.051 Z"
         style="fill:#ffffff;fill-opacity:1;fill-rule:nonzero;stroke:none"
         transform="matrix(1.3333333,0,0,-1.3333333,81.5664,824.52347)"
         clip-path="url(#clipPath4-3)" />
      <path
         id="path5-4"
         d="m 0,0 c 17.651,21.525 23.799,36.214 26.269,61.485 l 12.942,126.117 c 1.923,17.948 -1.007,27.611 -12.185,40.845 l -5.999,6.988 h 191.328 l 3.932,-56.662 c -17.009,15.69 -30.939,20.399 -58.301,20.399 H 90.2 L 87.586,152.734 H 192.009 L 194.9,82.373 c -18.155,19.599 -33.213,25.459 -63.029,25.459 H 85.117 L 82.637,61.485 C 81.314,36.214 85.28,21.525 99.776,0 l 8.142,-12.065 H -9.897 Z"
         style="fill:#ffffff;fill-opacity:1;fill-rule:nonzero;stroke:none"
         transform="matrix(1.3333333,0,0,-1.3333333,404.2956,824.52347)"
         clip-path="url(#clipPath6-0)" />
      <path
         id="path7-9"
         d="M 0,0 C 13.666,21.525 17.057,36.214 14.721,61.485 L 2.378,187.602 c -1.846,17.948 -6.828,27.611 -20.831,40.845 l -7.499,6.988 H 56.685 L 181.516,78.892 154.94,187.602 c -4.574,17.948 -11.044,27.611 -27.093,40.845 l -8.583,6.988 h 85.63 l -4.648,-6.988 c -8.632,-13.234 -9.725,-22.897 -4.406,-40.845 L 231.387,61.485 C 238.134,36.214 246.732,21.525 267.917,0 l 11.85,-12.065 H 179.473 L 44.663,177.848 60.521,61.485 C 63.786,36.214 70.39,21.525 88.688,0 L 98.941,-12.065 H -7.687 Z"
         style="fill:#ffffff;fill-opacity:1;fill-rule:nonzero;stroke:none"
         transform="matrix(1.3333333,0,0,-1.3333333,734.41533,824.52347)"
         clip-path="url(#clipPath8-2)" />
      <path
         id="path9-1"
         d="m 0,0 c 1.185,3.649 0.892,6.249 -1.223,10.948 l -13.057,28.8 c -2.288,5.012 -4.503,7.826 -9.351,11.825 l -2.657,2.178 h 45.906 l 6.694,-16.366 c -5.342,4.248 -9.006,5.562 -15.245,5.562 H -4.393 L 0.998,30.748 h 22.427 l 6.459,-15.681 c -5.183,4.077 -8.746,5.332 -14.817,5.332 H 5.548 L 9.687,10.948 C 11.739,6.249 13.748,3.649 18.16,0 l 2.388,-1.966 h -21.2 z"
         style="fill:#ffffff;fill-opacity:1;fill-rule:nonzero;stroke:none"
         transform="matrix(1.3333333,0,0,-1.3333333,96.472,932.01947)"
         clip-path="url(#clipPath10-7)" />
      <path
         id="path11-5"
         d="m 0,0 c 1.419,3.649 1.294,6.249 -0.518,10.948 l -11.178,28.8 c -1.956,5.012 -3.99,7.826 -8.574,11.825 l -2.513,2.178 h 45.906 l 5.62,-16.366 c -5.064,4.248 -8.646,5.562 -14.88,5.562 H -1.597 L 2.086,33.164 H 23.88 l 5.481,-15.747 c -4.944,4.085 -8.435,5.356 -14.52,5.356 H 5.984 L 11.513,7.941 h 14.808 c 5.98,0 8.545,1.233 10.656,5.261 l 5.111,-15.168 h -42.87 z"
         style="fill:#ffffff;fill-opacity:1;fill-rule:nonzero;stroke:none"
         transform="matrix(1.3333333,0,0,-1.3333333,164.98107,932.01947)"
         clip-path="url(#clipPath12-7)" />
      <path
         id="path13-5"
         d="m 0,0 c 1.659,3.649 1.703,6.249 0.197,10.948 l -9.289,28.8 c -1.625,5.012 -3.467,7.826 -7.787,11.825 l -2.369,2.178 H 6.829 c 15.086,0 25.218,-6.838 28.541,-19.047 2.288,-8.44 -0.321,-13.595 -7.845,-16.036 l 5.86,-7.408 C 38.411,4.872 45.167,0.604 50.216,0.604 c -1.414,-2.042 -4.229,-3.323 -8.521,-3.323 -6.565,0 -12.257,3.022 -17.8,10.046 L 8.68,26.504 h 4.378 c 8.622,0 12.29,2.719 10.751,8.118 -1.487,5.208 -6.565,8.325 -13.729,8.325 H 1.218 L 11.106,10.948 C 12.549,6.249 14.223,3.649 18.16,0 l 2.134,-1.966 h -21.2 z"
         style="fill:#ffffff;fill-opacity:1;fill-rule:nonzero;stroke:none"
         transform="matrix(1.3333333,0,0,-1.3333333,234.026,932.01947)"
         clip-path="url(#clipPath14-0)" />
      <path
         id="path15-5"
         d="m 0,0 c 1.899,3.649 2.125,6.249 0.935,10.948 l -7.336,28.8 c -1.286,5.012 -2.94,7.826 -6.982,11.825 l -2.225,2.178 H 5.016 L 22.03,28.264 27.501,53.751 H 47.9 L 46.663,51.573 C 44.429,47.574 44.05,44.76 45.023,39.748 l 5.548,-28.8 C 51.468,6.249 52.844,3.649 56.359,0 l 1.909,-1.966 h -21.2 L 38.204,0 c 2.072,3.649 2.417,6.249 1.458,10.948 L 34.027,38.281 26.288,3.956 3.141,38.281 9.797,10.948 C 10.934,6.249 12.439,3.649 16.141,0 l 2.005,-1.966 H -1.041 Z"
         style="fill:#ffffff;fill-opacity:1;fill-rule:nonzero;stroke:none"
         transform="matrix(1.3333333,0,0,-1.3333333,305.22587,932.01947)"
         clip-path="url(#clipPath16-3)" />
      <path
         id="path17-8"
         d="m 0,0 c 2.196,3.649 2.633,6.249 1.827,10.948 l -4.968,28.8 c -0.868,5.012 -2.287,7.826 -5.999,11.825 l -2.043,2.178 h 45.911 l 2.057,-16.366 c -4.148,4.248 -7.438,5.562 -13.677,5.562 H 7.648 l 1.564,-9.783 h 21.794 l 2.082,-15.747 c -4.062,4.085 -7.279,5.356 -13.365,5.356 H 10.866 L 13.211,7.941 h 14.808 c 5.975,0 8.809,1.233 11.782,5.261 l 1.87,-15.168 h -42.87 z"
         style="fill:#ffffff;fill-opacity:1;fill-rule:nonzero;stroke:none"
         transform="matrix(1.3333333,0,0,-1.3333333,391.668,932.01947)"
         clip-path="url(#clipPath18-9)" />
      <path
         id="path19-2"
         d="m 0,0 c 2.436,3.649 3.04,6.249 2.546,10.948 l -3.064,28.8 c -0.532,5.012 -1.765,7.826 -5.208,11.825 l -1.899,2.178 h 19.833 l 23.186,-39.384 -1.65,25.381 c -0.326,5.012 -1.438,7.826 -4.719,11.825 l -1.802,2.178 h 20.548 l -1.544,-2.178 c -2.796,-3.999 -3.573,-6.813 -3.3,-11.825 l 1.549,-28.8 C 44.73,6.249 45.742,3.649 48.758,0 l 1.64,-1.966 H 32.349 L 8.914,37.135 11.408,10.948 C 11.854,6.249 12.976,3.649 16.141,0 l 1.716,-1.966 H -1.329 Z"
         style="fill:#ffffff;fill-opacity:1;fill-rule:nonzero;stroke:none"
         transform="matrix(1.3333333,0,0,-1.3333333,461.25267,932.01947)"
         clip-path="url(#clipPath20-0)" />
      <path
         id="path21-9"
         d="M 0,0 C 2.767,3.649 3.606,6.249 3.534,10.948 L 3.055,42.947 h -5.179 c -6.239,0 -9.317,-1.314 -12.77,-5.562 l -0.614,16.366 H 32.848 L 32.513,37.385 c -3.526,4.248 -6.628,5.562 -12.867,5.562 H 14.4 L 14.448,10.948 C 14.453,6.249 15.331,3.649 18.16,0 l 1.534,-1.966 h -21.2 z"
         style="fill:#ffffff;fill-opacity:1;fill-rule:nonzero;stroke:none"
         transform="matrix(1.3333333,0,0,-1.3333333,557.10933,932.01947)"
         clip-path="url(#clipPath22-9)" />
      <path
         id="path23-8"
         d="m 0,0 c 0.873,11.254 -5.035,19.358 -14.199,19.358 -9.163,0 -15.954,-8.104 -16.4,-19.358 -0.436,-11.02 5.433,-18.668 14.175,-18.668 C -7.678,-18.668 -0.849,-11.02 0,0 M 11.446,0 C 9.907,-16.898 -1.86,-28.547 -16.99,-28.547 c -15.072,0 -25.487,11.649 -25.055,28.547 0.445,17.464 12.29,30.191 28.488,30.191 C 2.709,30.191 13.048,17.464 11.446,0"
         style="fill:#ffffff;fill-opacity:1;fill-rule:nonzero;stroke:none"
         transform="matrix(1.3333333,0,0,-1.3333333,661.72787,898.58987)"
         clip-path="url(#clipPath24-6)" />
      <path
         id="path25-2"
         d="m 0,0 c -1.549,-10.242 -9.759,-16.687 -21.276,-16.687 -7.711,0 -16.381,2.873 -21.757,6.977 l 9.255,15.498 c -0.091,-7.106 6.023,-12.588 13.892,-12.588 4.815,0 8.018,2.077 8.463,5.323 1.463,10.579 -30.157,6.402 -28.152,26.413 1.025,10.213 9.72,16.486 24.11,16.486 5.754,0 11.293,-1.007 20.217,-3.774 L -1.937,24.772 c -4.748,3.847 -10.44,5.823 -16.189,5.823 -5.755,0 -9.462,-1.976 -9.792,-4.844 C -28.892,17.239 3.28,21.521 0,0"
         style="fill:#ffffff;fill-opacity:1;fill-rule:nonzero;stroke:none"
         transform="matrix(1.3333333,0,0,-1.3333333,740.80467,913.9024)"
         clip-path="url(#clipPath26-7)" />
      <path
         id="path27-0"
         d="m 0,0 c 3.495,3.649 4.857,6.249 5.73,10.948 l 5.395,28.8 c 0.944,5.012 0.547,7.826 -1.712,11.825 l -1.252,2.178 h 45.91 L 50.192,37.385 c -2.604,4.248 -5.423,5.562 -11.662,5.562 H 23.07 L 20.61,30.748 H 43.037 L 39.465,15.067 c -2.589,4.077 -5.342,5.332 -11.412,5.332 h -9.52 L 16.64,10.948 C 15.704,6.249 16.064,3.649 18.159,0 l 1.147,-1.966 H -1.899 Z"
         style="fill:#ffffff;fill-opacity:1;fill-rule:nonzero;stroke:none"
         transform="matrix(1.3333333,0,0,-1.3333333,769.71613,932.01947)"
         clip-path="url(#clipPath28-2)" />
      <path
         id="path29-7"
         d="m 0,0 c 3.73,3.649 5.255,6.249 6.425,10.948 l 7.241,28.8 c 1.266,5.012 1.055,7.826 -0.944,11.825 l -1.113,2.178 H 34.314 L 32.065,51.573 C 27.98,47.574 26.307,44.76 24.964,39.748 l -7.629,-28.8 C 16.102,6.249 16.294,3.649 18.159,0 l 1.017,-1.966 h -21.2 z"
         style="fill:#ffffff;fill-opacity:1;fill-rule:nonzero;stroke:none"
         transform="matrix(1.3333333,0,0,-1.3333333,837.05853,932.01947)"
         clip-path="url(#clipPath30-0)" />
      <path
         id="path31-4"
         d="m 0,0 c 3.855,3.649 5.467,6.249 6.805,10.948 l 8.223,28.8 c 1.445,5.012 1.325,7.826 -0.532,11.825 l -1.035,2.178 h 19.828 l 7.692,-39.384 8.31,25.381 c 1.645,5.012 1.649,7.826 -0.043,11.825 l -0.944,2.178 H 68.852 L 66.444,51.573 C 62.061,47.574 60.177,44.76 58.47,39.748 l -9.735,-28.8 C 47.152,6.249 47.162,3.649 48.759,0 l 0.878,-1.966 H 31.587 L 23.431,37.135 15.667,10.948 C 14.281,6.249 14.391,3.649 16.142,0 l 0.954,-1.966 H -2.09 Z"
         style="fill:#ffffff;fill-opacity:1;fill-rule:nonzero;stroke:none"
         transform="matrix(1.3333333,0,0,-1.3333333,873.194,932.01947)"
         clip-path="url(#clipPath32-9)" />
      <path
         id="path33-8"
         d="m 0,0 c 4.536,11.254 1.28,19.358 -7.884,19.358 -9.164,0 -18.6,-8.104 -22.715,-19.358 -4.008,-11.02 -0.609,-18.668 8.138,-18.668 8.746,0 18.039,7.648 22.461,18.668 m 11.446,0 c -7.01,-16.898 -22.523,-28.547 -37.657,-28.547 -15.067,0 -21.737,11.649 -15.834,28.547 6.143,17.464 22.163,30.191 38.357,30.191 C 12.578,30.191 18.74,17.464 11.446,0"
         style="fill:#ffffff;fill-opacity:1;fill-rule:nonzero;stroke:none"
         transform="matrix(1.3333333,0,0,-1.3333333,1013.9909,898.58987)"
         clip-path="url(#clipPath34-9)" />
      <path
         id="path35-5"
         d="m 0,0 c -4.853,-10.242 -15.129,-16.687 -26.657,-16.687 -7.701,0 -15.455,2.873 -19.507,6.977 l 14.261,15.498 c -2.393,-7.106 1.952,-12.588 9.821,-12.588 4.819,0 8.688,2.077 10.185,5.323 4.881,10.579 -28.086,6.402 -19.58,26.413 4.379,10.213 15.129,16.486 29.521,16.486 5.759,0 10.967,-1.007 18.975,-3.774 L 6.114,24.772 c -3.491,3.847 -8.536,5.823 -14.285,5.823 -5.755,0 -10.108,-1.976 -11.375,-4.844 C -23.296,17.239 10.267,21.521 0,0"
         style="fill:#ffffff;fill-opacity:1;fill-rule:nonzero;stroke:none"
         transform="matrix(1.3333333,0,0,-1.3333333,1088.1055,913.9024)"
         clip-path="url(#clipPath36-7)" />
      <path
         id="path37-8"
         d="m 0,0 c -1.933,9.159 -8.962,15.599 -17.167,15.599 h -5.472 l 7.227,-30.719 h 5.261 C -2.331,-15.12 1.875,-8.924 0,0 m -27.113,-22.106 c 1.813,3.212 2.058,5.5 1.036,9.633 l -6.281,25.272 c -1.099,4.388 -2.566,6.852 -6.21,10.352 l -2.005,1.9 h 21.224 C -4.388,25.051 7.591,14.88 10.531,0 13.355,-14.376 5.735,-23.833 -8.181,-23.833 h -19.92 z"
         style="fill:#ffffff;fill-opacity:1;fill-rule:nonzero;stroke:none"
         transform="matrix(1.3333333,0,0,-1.3333333,361.41213,986.67573)"
         clip-path="url(#clipPath38-3)" />
      <path
         id="path39-3"
         d="m 0,0 c 2.004,3.212 2.393,5.5 1.625,9.629 l -4.718,25.275 c -0.825,4.388 -2.139,6.848 -5.568,10.349 l -1.884,1.903 h 42.122 l 2.024,-14.328 c -3.841,3.726 -6.872,4.877 -12.602,4.877 H 6.8 l 1.496,-8.574 h 20.03 l 2.043,-13.82 c -3.774,3.591 -6.743,4.704 -12.344,4.704 H 9.878 L 12.127,6.986 H 25.77 c 5.505,0 8.104,1.084 10.809,4.623 l 1.855,-13.34 H -1.098 Z"
         style="fill:#ffffff;fill-opacity:1;fill-rule:nonzero;stroke:none"
         transform="matrix(1.3333333,0,0,-1.3333333,386.93427,1016.1472)"
         clip-path="url(#clipPath40-5)" />
      <path
         id="path41-0"
         d="m 0,0 h 20.831 l -1.31,-1.908 c -2.378,-3.496 -2.949,-5.956 -2.459,-10.349 l 3.102,-27.913 h 12.391 c 5.505,0 8.167,1.084 11.082,4.623 l 1.055,-13.341 H 6.402 l 1.203,1.732 c 2.201,3.212 2.733,5.5 2.221,9.629 L 6.68,-12.257 C 6.128,-7.864 4.968,-5.404 1.765,-1.908 Z"
         style="fill:#ffffff;fill-opacity:1;fill-rule:nonzero;stroke:none"
         transform="matrix(1.3333333,0,0,-1.3333333,438.8776,953.2708)"
         clip-path="url(#clipPath42-8)" />
      <path
         id="path43-6"
         d="M 0,0 C 2.46,3.212 3.165,5.5 2.983,9.629 L 1.846,34.904 c -0.196,4.388 -1.16,6.848 -4.085,10.349 l -1.612,1.903 H 14.343 L 33.423,12.63 33.318,34.904 c -0.019,4.388 -0.887,6.848 -3.664,10.349 L 28.12,47.156 H 46.97 L 45.431,45.253 C 42.645,41.752 41.777,39.292 41.753,34.904 L 41.6,9.629 C 41.575,5.5 42.372,3.212 44.952,0 l 1.404,-1.731 H 29.717 L 10.363,32.612 11.145,9.629 C 11.284,5.5 12.171,3.212 14.88,0 l 1.472,-1.731 h -17.69 z"
         style="fill:#ffffff;fill-opacity:1;fill-rule:nonzero;stroke:none"
         transform="matrix(1.3333333,0,0,-1.3333333,528.29227,1016.1472)"
         clip-path="url(#clipPath44-4)" />
      <path
         id="path45-2"
         d="m 0,0 0.926,15.599 c -0.964,0.144 -1.938,0.215 -2.849,0.215 C -10.458,15.814 -16.61,9.797 -18.38,0 Z m 9.308,-12.473 c -0.297,-4.133 0.345,-6.421 2.714,-9.633 l 1.294,-1.727 H -6.233 l 1.515,1.727 c 2.79,3.212 3.736,5.5 3.98,9.633 l 0.206,3.482 h -18.232 c 0.537,-6.057 2.753,-11.778 5.726,-14.842 h -14.415 c -1.122,5.074 -1.731,11.428 -1.61,16.903 0.43,19.729 11,32.498 27.356,32.498 4.747,0 9.26,-0.662 13.643,-1.98 z"
         style="fill:#ffffff;fill-opacity:1;fill-rule:nonzero;stroke:none"
         transform="matrix(1.3333333,0,0,-1.3333333,638.57547,986.67573)"
         clip-path="url(#clipPath46-1)" />
      <path
         id="path47-2"
         d="m 0,0 c 2.944,3.212 3.999,5.5 4.445,9.629 l 0.384,3.553 -16.75,33.974 H 8.377 C 4.719,44.304 4.45,39.221 6.526,34.904 l 5.367,-11.331 c 7.739,4.076 12.788,13.696 11.714,23.583 H 36.329 C 34.886,32.685 26.288,19.804 15.119,14.831 L 14.491,9.629 C 13.992,5.5 14.524,3.212 16.74,0 l 1.208,-1.731 h -19.55 z"
         style="fill:#ffffff;fill-opacity:1;fill-rule:nonzero;stroke:none"
         transform="matrix(1.3333333,0,0,-1.3333333,680.89453,1016.1472)"
         clip-path="url(#clipPath48-8)" />
      <path
         id="path49-5"
         d="M 0,0 2.905,15.599 C 1.956,15.743 0.992,15.814 0.081,15.814 -8.454,15.814 -15.369,9.797 -18.381,0 Z m 7.734,-12.473 c -0.815,-4.133 -0.455,-6.421 1.511,-9.633 l 1.074,-1.727 H -9.227 l 1.732,1.727 c 3.193,3.212 4.426,5.5 5.188,9.633 l 0.643,3.482 h -18.232 c -0.225,-6.057 1.276,-11.778 3.865,-14.842 h -14.414 c -0.485,5.074 -0.298,11.428 0.508,16.903 2.924,19.729 15.12,32.498 31.476,32.498 4.752,0 9.174,-0.662 13.389,-1.98 z"
         style="fill:#ffffff;fill-opacity:1;fill-rule:nonzero;stroke:none"
         transform="matrix(1.3333333,0,0,-1.3333333,768.17973,986.67573)"
         clip-path="url(#clipPath50-8)" />
      <path
         id="path51-2"
         d="m 0,0 c 3.294,3.212 4.594,5.5 5.485,9.629 l 5.492,25.275 c 0.959,4.388 0.647,6.848 -1.348,10.349 l -1.108,1.903 h 23.924 c 13.844,0 19.809,-5.984 16.922,-16.677 -1.98,-7.395 -6.876,-11.921 -14.98,-14.065 l 1.812,-6.513 c 1.554,-5.615 5.731,-9.369 10.387,-9.369 -2.287,-1.799 -5.495,-2.93 -9.451,-2.93 -6.057,0 -9.85,2.667 -11.576,8.842 L 20.85,23.29 h 4.023 c 7.927,0 12.626,2.389 13.835,7.121 1.165,4.566 -1.98,7.294 -8.56,7.294 H 22.011 L 15.532,9.629 C 14.587,5.5 14.87,3.212 16.74,0 l 1.022,-1.731 H -1.789 Z"
         style="fill:#ffffff;fill-opacity:1;fill-rule:nonzero;stroke:none"
         transform="matrix(1.3333333,0,0,-1.3333333,789.68227,1016.1472)"
         clip-path="url(#clipPath52-4)" />
    </g>
  </g>
</svg>
