<?xml version="1.0" encoding="UTF-8" standalone="no"?>
<!-- Created with Inkscape (http://www.inkscape.org/) -->

<svg
   width="13.45134cm"
   height="7.9755311cm"
   viewBox="0 0 134.5134 79.755311"
   version="1.1"
   id="svg1"
   inkscape:version="1.3.2 (091e20e, 2023-11-25)"
   sodipodi:docname="ffn_camaron_stroke.svg"
   xmlns:inkscape="http://www.inkscape.org/namespaces/inkscape"
   xmlns:sodipodi="http://sodipodi.sourceforge.net/DTD/sodipodi-0.dtd"
   xmlns="http://www.w3.org/2000/svg"
   xmlns:svg="http://www.w3.org/2000/svg">
  <sodipodi:namedview
     id="namedview1"
     pagecolor="#ffffff"
     bordercolor="#000000"
     borderopacity="0.25"
     inkscape:showpageshadow="2"
     inkscape:pageopacity="0.0"
     inkscape:pagecheckerboard="0"
     inkscape:deskcolor="#d1d1d1"
     inkscape:document-units="mm"
     inkscape:zoom="1.0445942"
     inkscape:cx="269.48265"
     inkscape:cy="207.73618"
     inkscape:window-width="1680"
     inkscape:window-height="997"
     inkscape:window-x="0"
     inkscape:window-y="25"
     inkscape:window-maximized="0"
     inkscape:current-layer="layer1" />
  <defs
     id="defs1">
    <clipPath
       clipPathUnits="userSpaceOnUse"
       id="clipPath2">
      <path
         d="M 0,799 H 1374 V 0 H 0 Z"
         transform="translate(-1022.71,-360.78711)"
         id="path2" />
    </clipPath>
    <clipPath
       clipPathUnits="userSpaceOnUse"
       id="clipPath4">
      <path
         d="M 0,799 H 1374 V 0 H 0 Z"
         transform="translate(-747.13962,-132.88771)"
         id="path4" />
    </clipPath>
    <clipPath
       clipPathUnits="userSpaceOnUse"
       id="clipPath6">
      <path
         d="M 0,799 H 1374 V 0 H 0 Z"
         transform="translate(-543.79882,-694.37652)"
         id="path6" />
    </clipPath>
    <clipPath
       clipPathUnits="userSpaceOnUse"
       id="clipPath8">
      <path
         d="M 0,799 H 1374 V 0 H 0 Z"
         transform="translate(-515.61232,-677.63432)"
         id="path8" />
    </clipPath>
    <clipPath
       clipPathUnits="userSpaceOnUse"
       id="clipPath10">
      <path
         d="M 0,799 H 1374 V 0 H 0 Z"
         transform="translate(-479.14361,-653.85351)"
         id="path10" />
    </clipPath>
    <clipPath
       clipPathUnits="userSpaceOnUse"
       id="clipPath12">
      <path
         d="M 0,799 H 1374 V 0 H 0 Z"
         transform="translate(-641.48932,-705.70652)"
         id="path12" />
    </clipPath>
    <clipPath
       clipPathUnits="userSpaceOnUse"
       id="clipPath14">
      <path
         d="M 0,799 H 1374 V 0 H 0 Z"
         transform="translate(-474.77151,-696.57372)"
         id="path14" />
    </clipPath>
    <clipPath
       clipPathUnits="userSpaceOnUse"
       id="clipPath16">
      <path
         d="M 0,799 H 1374 V 0 H 0 Z"
         transform="translate(-628.79882,-624.20262)"
         id="path16" />
    </clipPath>
    <clipPath
       clipPathUnits="userSpaceOnUse"
       id="clipPath18">
      <path
         d="M 0,799 H 1374 V 0 H 0 Z"
         transform="translate(-479.14361,-653.85351)"
         id="path18" />
    </clipPath>
    <clipPath
       clipPathUnits="userSpaceOnUse"
       id="clipPath20">
      <path
         d="M 0,799 H 1374 V 0 H 0 Z"
         transform="translate(-576.19531,-638.97801)"
         id="path20" />
    </clipPath>
    <clipPath
       clipPathUnits="userSpaceOnUse"
       id="clipPath22">
      <path
         d="M 0,799 H 1374 V 0 H 0 Z"
         transform="translate(-410.79051,-630.17721)"
         id="path22" />
    </clipPath>
    <clipPath
       clipPathUnits="userSpaceOnUse"
       id="clipPath24">
      <path
         d="M 0,799 H 1374 V 0 H 0 Z"
         transform="translate(-581.09572,-618.35012)"
         id="path24" />
    </clipPath>
    <clipPath
       clipPathUnits="userSpaceOnUse"
       id="clipPath26">
      <path
         d="M 0,799 H 1374 V 0 H 0 Z"
         transform="translate(-568.12012,-618.83402)"
         id="path26" />
    </clipPath>
    <clipPath
       clipPathUnits="userSpaceOnUse"
       id="clipPath28">
      <path
         d="M 0,799 H 1374 V 0 H 0 Z"
         transform="translate(-454.08111,-566.59772)"
         id="path28" />
    </clipPath>
    <clipPath
       clipPathUnits="userSpaceOnUse"
       id="clipPath30">
      <path
         d="M 0,799 H 1374 V 0 H 0 Z"
         transform="translate(-542.51561,-587.98781)"
         id="path30" />
    </clipPath>
    <clipPath
       clipPathUnits="userSpaceOnUse"
       id="clipPath32">
      <path
         d="M 0,799 H 1374 V 0 H 0 Z"
         transform="translate(-669.22952,-486.18701)"
         id="path32" />
    </clipPath>
    <clipPath
       clipPathUnits="userSpaceOnUse"
       id="clipPath34">
      <path
         d="M 0,799 H 1374 V 0 H 0 Z"
         transform="translate(-660.14842,-462.89501)"
         id="path34" />
    </clipPath>
    <clipPath
       clipPathUnits="userSpaceOnUse"
       id="clipPath36">
      <path
         d="M 0,799 H 1374 V 0 H 0 Z"
         transform="translate(-415.46781,-390.13091)"
         id="path36" />
    </clipPath>
    <clipPath
       clipPathUnits="userSpaceOnUse"
       id="clipPath38">
      <path
         d="M 0,799 H 1374 V 0 H 0 Z"
         transform="translate(-550.27342,-478.67631)"
         id="path38" />
    </clipPath>
    <clipPath
       clipPathUnits="userSpaceOnUse"
       id="clipPath40">
      <path
         d="M 0,799 H 1374 V 0 H 0 Z"
         transform="translate(-645.53522,-353.91601)"
         id="path40" />
    </clipPath>
    <clipPath
       clipPathUnits="userSpaceOnUse"
       id="clipPath42">
      <path
         d="M 0,799 H 1374 V 0 H 0 Z"
         transform="translate(-454.84961,-390.01271)"
         id="path42" />
    </clipPath>
    <clipPath
       clipPathUnits="userSpaceOnUse"
       id="clipPath44">
      <path
         d="M 0,799 H 1374 V 0 H 0 Z"
         transform="translate(-668.64941,-325.46781)"
         id="path44" />
    </clipPath>
    <clipPath
       clipPathUnits="userSpaceOnUse"
       id="clipPath46">
      <path
         d="M 0,799 H 1374 V 0 H 0 Z"
         transform="translate(-997.4707,-364.52541)"
         id="path46" />
    </clipPath>
    <clipPath
       clipPathUnits="userSpaceOnUse"
       id="clipPath48">
      <path
         d="M 0,799 H 1374 V 0 H 0 Z"
         transform="translate(-380.81451,-335.68461)"
         id="path48" />
    </clipPath>
    <clipPath
       clipPathUnits="userSpaceOnUse"
       id="clipPath50">
      <path
         d="M 0,799 H 1374 V 0 H 0 Z"
         transform="translate(-355.38821,-362.39261)"
         id="path50" />
    </clipPath>
    <clipPath
       clipPathUnits="userSpaceOnUse"
       id="clipPath52">
      <path
         d="M 0,799 H 1374 V 0 H 0 Z"
         transform="translate(-879.9316,-411.84571)"
         id="path52" />
    </clipPath>
    <clipPath
       clipPathUnits="userSpaceOnUse"
       id="clipPath54">
      <path
         d="M 0,799 H 1374 V 0 H 0 Z"
         transform="translate(-907.67972,-400.83501)"
         id="path54" />
    </clipPath>
    <clipPath
       clipPathUnits="userSpaceOnUse"
       id="clipPath56">
      <path
         d="M 0,799 H 1374 V 0 H 0 Z"
         transform="translate(-252.11911,-387.15331)"
         id="path56" />
    </clipPath>
    <clipPath
       clipPathUnits="userSpaceOnUse"
       id="clipPath58">
      <path
         d="M 0,799 H 1374 V 0 H 0 Z"
         transform="translate(-403.74901,-376.49221)"
         id="path58" />
    </clipPath>
    <clipPath
       clipPathUnits="userSpaceOnUse"
       id="clipPath60">
      <path
         d="M 0,799 H 1374 V 0 H 0 Z"
         transform="translate(-445.46091,-368.52831)"
         id="path60" />
    </clipPath>
    <clipPath
       clipPathUnits="userSpaceOnUse"
       id="clipPath62">
      <path
         d="M 0,799 H 1374 V 0 H 0 Z"
         transform="translate(-397.69681,-359.01951)"
         id="path62" />
    </clipPath>
    <clipPath
       clipPathUnits="userSpaceOnUse"
       id="clipPath64">
      <path
         d="M 0,799 H 1374 V 0 H 0 Z"
         transform="translate(-456.75291,-347.15621)"
         id="path64" />
    </clipPath>
    <clipPath
       clipPathUnits="userSpaceOnUse"
       id="clipPath66">
      <path
         d="M 0,799 H 1374 V 0 H 0 Z"
         transform="translate(-465.51861,-335.05371)"
         id="path66" />
    </clipPath>
    <clipPath
       clipPathUnits="userSpaceOnUse"
       id="clipPath68">
      <path
         d="M 0,799 H 1374 V 0 H 0 Z"
         transform="translate(-164.5386,-234.90821)"
         id="path68" />
    </clipPath>
    <clipPath
       clipPathUnits="userSpaceOnUse"
       id="clipPath70">
      <path
         d="M 0,799 H 1374 V 0 H 0 Z"
         transform="translate(-752.53419,-150.043)"
         id="path70" />
    </clipPath>
    <clipPath
       clipPathUnits="userSpaceOnUse"
       id="clipPath72">
      <path
         d="M 0,799 H 1374 V 0 H 0 Z"
         transform="translate(-460.48241,-309.89161)"
         id="path72" />
    </clipPath>
    <clipPath
       clipPathUnits="userSpaceOnUse"
       id="clipPath74">
      <path
         d="M 0,799 H 1374 V 0 H 0 Z"
         transform="translate(-472.94341,-281.93851)"
         id="path74" />
    </clipPath>
    <clipPath
       clipPathUnits="userSpaceOnUse"
       id="clipPath76">
      <path
         d="M 0,799 H 1374 V 0 H 0 Z"
         transform="translate(-516.74711,-298.0439)"
         id="path76" />
    </clipPath>
    <clipPath
       clipPathUnits="userSpaceOnUse"
       id="clipPath78">
      <path
         d="M 0,799 H 1374 V 0 H 0 Z"
         transform="translate(-472.24511,-237.8018)"
         id="path78" />
    </clipPath>
    <clipPath
       clipPathUnits="userSpaceOnUse"
       id="clipPath80">
      <path
         d="M 0,799 H 1374 V 0 H 0 Z"
         transform="translate(-531.94822,-256.68161)"
         id="path80" />
    </clipPath>
    <clipPath
       clipPathUnits="userSpaceOnUse"
       id="clipPath82">
      <path
         d="M 0,799 H 1374 V 0 H 0 Z"
         transform="translate(-621.39842,-237.0518)"
         id="path82" />
    </clipPath>
    <clipPath
       clipPathUnits="userSpaceOnUse"
       id="clipPath84">
      <path
         d="M 0,799 H 1374 V 0 H 0 Z"
         transform="translate(-68.422901,-59.030299)"
         id="path84" />
    </clipPath>
    <clipPath
       clipPathUnits="userSpaceOnUse"
       id="clipPath86">
      <path
         d="M 0,799 H 1374 V 0 H 0 Z"
         transform="translate(-164.0947,-219.16211)"
         id="path86" />
    </clipPath>
    <clipPath
       clipPathUnits="userSpaceOnUse"
       id="clipPath88">
      <path
         d="M 0,799 H 1374 V 0 H 0 Z"
         transform="translate(-711.02732,-182.84371)"
         id="path88" />
    </clipPath>
    <clipPath
       clipPathUnits="userSpaceOnUse"
       id="clipPath90">
      <path
         d="M 0,799 H 1374 V 0 H 0 Z"
         transform="translate(-443.79591,-199.0771)"
         id="path90" />
    </clipPath>
    <clipPath
       clipPathUnits="userSpaceOnUse"
       id="clipPath92">
      <path
         d="M 0,799 H 1374 V 0 H 0 Z"
         transform="translate(-484.14261,-186.6416)"
         id="path92" />
    </clipPath>
    <clipPath
       clipPathUnits="userSpaceOnUse"
       id="clipPath94">
      <path
         d="M 0,799 H 1374 V 0 H 0 Z"
         transform="translate(-141.30621,-157.33201)"
         id="path94" />
    </clipPath>
    <clipPath
       clipPathUnits="userSpaceOnUse"
       id="clipPath96">
      <path
         d="M 0,799 H 1374 V 0 H 0 Z"
         transform="translate(-678.51562,-140.22661)"
         id="path96" />
    </clipPath>
    <clipPath
       clipPathUnits="userSpaceOnUse"
       id="clipPath98">
      <path
         d="M 0,799 H 1374 V 0 H 0 Z"
         transform="translate(-747.13962,-132.88771)"
         id="path98" />
    </clipPath>
  </defs>
  <g
     inkscape:label="Capa 1"
     inkscape:groupmode="layer"
     id="layer1"
     transform="translate(139.58475,290.65684)">
    <g
       id="g1"
       transform="matrix(0.29074385,0,0,0.29074385,-99.001342,-206.15015)">
      <path
         id="path1"
         d="m 0,0 c -0.303,-0.28 -0.504,-0.527 -0.583,-0.739 -0.101,-0.27 -0.011,-0.438 0.28,-0.516 l 1.21,-0.337 C 1.389,-1.715 1.378,-1.815 0.885,-1.883 0.537,-1.928 0.168,-1.916 -0.213,-1.86 c -0.594,0.089 -1.054,0.268 -1.355,0.549 -0.247,0.202 -0.258,0.425 -0.035,0.661 C -1.232,-0.247 -0.694,-0.034 0,0"
         style="fill:#ebe51b;fill-opacity:1;fill-rule:nonzero;stroke:none"
         transform="matrix(0.35277776,0,0,-0.35277776,212.54598,-140.27807)"
         clip-path="url(#clipPath2)" />
      <path
         id="path3"
         d="m 0,0 c -1.244,1.445 -2.006,2.767 -2.633,4.525 -0.135,0.393 -0.505,0.651 -0.93,0.651 l -9.243,-0.034 c -0.504,0 -0.56,-0.157 -0.145,-0.47 6.61,-5.075 13.455,-9.77 20.535,-14.083 0.65,-0.393 0.74,-0.303 0.236,0.291 C 5.311,-6.174 2.711,-3.138 0,0 m -68.621,7.338 c -0.93,1.501 -1.603,2.711 -3.406,3.092 -1.827,0.382 -3.798,0.695 -5.915,0.941 -0.494,0.056 -0.561,-0.1 -0.225,-0.459 2.655,-2.756 5.288,-5.681 7.888,-8.739 3.808,-4.515 8.391,-8.347 12.345,-12.615 0.516,-0.56 0.572,-0.516 0.18,0.134 -3.518,5.827 -7.137,11.697 -10.867,17.646 m -16.525,36.176 c -0.135,-0.101 -0.168,-0.281 -0.079,-0.414 0.056,-0.068 0.123,-0.113 0.202,-0.123 l 3.047,-0.561 c 0.168,-0.034 0.325,0.067 0.359,0.224 0.011,0.079 0,0.168 -0.045,0.235 l -1.233,1.904 c -0.089,0.135 -0.28,0.169 -0.414,0.079 l -0.011,-0.011 z m 15.292,10.262 c -0.56,0.684 -1.008,1.3 -1.344,1.86 -0.314,0.504 -0.672,0.549 -1.087,0.135 l -2.823,-2.846 c -0.381,-0.381 -0.404,-0.987 -0.068,-1.412 l 9.344,-11.203 c 0.09,-0.101 0.19,-0.158 0.325,-0.18 2.622,-0.392 5.344,-0.717 8.145,-0.985 0.022,-0.012 0.034,0 0.034,0.011 0.011,0.011 0,0.022 0,0.033 -4.302,4.761 -8.47,9.624 -12.526,14.587 m -193.147,-0.022 c 0.168,0.19 0.134,0.481 -0.057,0.639 -0.045,0.045 -0.1,0.067 -0.156,0.088 l -7.126,2.063 c -0.235,0.078 -0.493,-0.067 -0.559,-0.303 0,-0.012 -0.012,-0.022 -0.012,-0.034 L -273.98,41.8 c -0.057,-0.247 0.088,-0.493 0.335,-0.549 0.168,-0.034 0.348,0.022 0.459,0.156 z m -40.344,12.435 c 0.213,0.225 0.201,0.572 -0.022,0.785 -0.057,0.055 -0.112,0.101 -0.191,0.123 l -6.498,2.376 c -0.291,0.1 -0.616,-0.045 -0.717,-0.326 V 69.136 L -316.05,54.19 c -0.101,-0.291 0.056,-0.604 0.336,-0.705 0.214,-0.079 0.448,-0.023 0.606,0.146 z M -37.117,51.322 c -0.729,1.468 -2.252,1.984 -3.35,3.059 -5.445,5.39 -10.913,10.621 -16.413,15.696 -0.392,0.359 -1.009,0.336 -1.378,-0.056 -0.012,-0.011 -0.022,-0.034 -0.034,-0.044 -0.616,-0.751 -1.176,-1.468 -2.173,-1.726 -1.625,-0.403 -2.846,-1.513 -3.675,-3.327 -0.124,-0.258 -0.101,-0.516 0.056,-0.751 0.582,-0.918 1.255,-1.771 2.006,-2.554 2.475,-2.61 4.885,-5.322 7.225,-8.123 4.74,-5.636 9.927,-11.035 15.159,-16.256 0.358,-0.358 0.751,-0.65 1.187,-0.886 0.258,-0.145 0.528,-0.201 0.819,-0.178 1.826,0.1 3.461,0.235 5.333,-0.068 3.192,-0.526 6.486,-0.784 9.903,-0.795 0.358,0 0.415,0.134 0.18,0.403 -4.359,4.817 -8.974,9.568 -13.837,14.24 -0.403,0.381 -0.74,0.84 -1.008,1.366 m -545.934,34.955 -13.589,-8.705 c -0.258,-0.168 -0.426,-0.448 -0.46,-0.75 -0.817,-8.28 -0.84,-16.593 -0.056,-24.917 1.468,-15.651 4.078,-31.493 7.831,-47.525 6.409,-27.403 16.358,-53.53 29.846,-78.391 1.569,-2.89 3.351,-5.724 5.345,-8.469 0.268,-0.37 0.426,-0.336 0.47,0.123 2.061,23.46 3.484,46.147 4.268,68.072 0.471,12.873 0.057,24.278 -1.22,34.226 -2.23,17.4 -9.624,34.754 -19.876,49.755 -3.663,5.378 -7.293,10.778 -10.867,16.223 -0.437,0.672 -1.008,0.796 -1.692,0.358 m -95.666,-160.131 c 1.233,1.087 2.443,2.23 3.63,3.428 8.683,8.728 16.604,17.691 23.729,26.901 3.877,4.985 7.506,10.429 10.542,15.987 5.927,10.822 10.823,21.958 14.699,33.42 4.157,12.278 7.35,23.481 9.602,33.598 2.599,11.742 4.963,24.132 7.114,37.196 0.068,0.403 -0.213,0.796 -0.627,0.851 v 0.012 c -4.964,0.717 -9.815,3.764 -10.409,9.074 -0.033,0.303 -0.313,0.527 -0.616,0.493 -0.067,-0.01 -0.123,-0.022 -0.19,-0.055 -18.194,-9.143 -32.076,-23.394 -43.391,-40.266 -6.801,-10.15 -12.638,-20.995 -17.511,-32.535 -3.91,-9.299 -7.293,-18.474 -10.162,-27.504 -3.338,-10.565 -6.285,-22.317 -8.716,-33.432 -3.697,-16.827 -6.61,-35.637 -8.75,-56.409 -0.034,-0.426 0.101,-0.493 0.403,-0.201 8.056,7.551 17.657,16.704 28.805,27.471 0.661,0.627 1.165,1.366 1.848,1.971 m 581.684,158.294 -3.507,4.347 c -1.434,2.398 -3.126,4.694 -5.053,6.879 -0.1,0.112 -0.19,0.235 -0.28,0.37 -3.943,6.24 -7.45,12.671 -10.486,19.292 -0.639,1.378 -1.647,2.005 -3.037,1.894 -0.391,-0.034 -0.481,-0.213 -0.257,-0.528 2.006,-3.002 3.798,-6.005 5.4,-9.006 3.663,-6.869 7.036,-13.457 10.15,-19.73 2.185,-4.437 4.515,-8.895 6.969,-13.389 0.201,-0.346 0.324,-0.324 0.381,0.068 0.459,3.26 0.358,6.532 -0.28,9.803 m -30.272,22.284 c -2.935,5.187 -6.307,10.128 -10.083,14.822 -0.124,0.145 -0.157,0.123 -0.112,-0.056 5.837,-22.194 14.844,-42.853 27.022,-61.967 2.813,-4.391 5.602,-8.693 8.38,-12.906 0.438,-0.672 1.065,-1.064 1.861,-1.187 l 6.15,-0.975 c 0.403,-0.067 0.561,0.101 0.471,0.504 -0.561,2.498 -1.02,5.008 -1.378,7.507 -0.112,0.805 -0.471,1.456 -1.087,1.96 -1.603,1.289 -2.969,2.756 -4.089,4.392 -4.225,6.161 -8.302,12.985 -12.224,20.457 -3.932,7.496 -7.831,14.868 -11.707,22.116 -0.504,0.941 -1.053,1.871 -1.635,2.778 -0.572,0.852 -1.087,1.703 -1.569,2.555 m -87.813,17.119 c 0.034,0 0.056,-0.012 0.079,-0.033 0.111,-0.08 0.168,-0.045 0.168,0.088 0,0.079 0.033,0.146 0.078,0.191 0.112,0.123 0.078,0.202 -0.078,0.224 -3.003,0.583 -5.266,0.594 -6.812,0.034 -0.963,-0.347 -1.927,-0.784 -2.89,-1.3 -0.997,-0.549 -1.961,-1.21 -2.88,-2.005 -5.882,-5.03 -10.262,-9.188 -13.175,-12.481 -3.933,-4.458 -8.392,-10.553 -13.354,-18.261 -0.572,-0.897 -1.065,-1.782 -1.457,-2.678 -0.392,-0.907 -0.84,-1.793 -1.344,-2.667 -0.213,-0.358 -0.09,-0.817 0.268,-1.019 0.056,-0.034 0.123,-0.056 0.18,-0.079 l 6.935,-1.871 c 0.269,-0.067 0.526,-0.033 0.773,0.123 0.84,0.538 1.445,1.077 1.826,1.636 7.416,10.98 14.655,20.491 21.69,28.547 4.795,5.479 8.099,9.31 9.915,11.506 0.022,0.022 0.045,0.033 0.078,0.045 m -57.664,-16.155 c 3.541,3.898 6.913,8.558 10.016,12.042 1.938,2.186 3.876,4.336 5.815,6.454 0.045,0.056 0.033,0.079 -0.034,0.089 l -6.666,0.964 c -0.146,0.011 -0.257,-0.022 -0.359,-0.123 -5.636,-5.378 -11.18,-10.688 -16.054,-16.705 -3.888,-4.805 -7.989,-9.131 -11.26,-14.631 -0.459,-0.773 -0.257,-1.277 0.605,-1.512 l 4.201,-1.165 c 1.098,-0.303 2.006,-0.012 2.723,0.884 2.363,2.891 4.594,5.535 6.7,7.955 0.773,0.885 1.512,1.882 2.196,2.98 0.627,0.975 1.333,1.893 2.117,2.768 m 29.599,17.555 c -0.683,-1.355 -1.613,-2.678 -2.778,-3.966 -6.408,-7.114 -12.761,-14.486 -19.068,-22.093 -0.011,-0.023 -0.023,-0.034 -0.033,-0.045 -2.566,-2.834 -5.323,-5.714 -8.302,-8.649 -0.504,-0.505 -0.438,-0.908 0.213,-1.221 l 2.957,-1.401 c 0.65,-0.303 1.221,-0.201 1.715,0.314 0.75,0.773 0.772,1.838 1.175,2.632 5.602,11.047 12.761,20.974 21.478,29.757 0.974,0.986 2.084,1.714 3.002,2.711 0.65,0.729 1.378,1.378 2.174,1.984 1.467,1.109 2.89,2.318 4.268,3.607 0.258,0.246 0.426,0.549 0.493,0.919 0.034,0.201 -0.045,0.324 -0.257,0.358 -0.213,0.034 -0.291,0.157 -0.258,0.359 l -3.372,1.646 c -0.606,0.292 -1.345,0.045 -1.636,-0.571 -0.079,-0.146 -0.123,-0.303 -0.123,-0.471 -0.102,-1.714 -0.651,-3.674 -1.648,-5.87 m 7.596,-45.99 c -0.19,-0.09 -0.324,-0.213 -0.392,-0.393 -0.134,-0.291 -0.067,-0.537 0.191,-0.727 0.303,-0.225 0.728,-0.337 1.288,-0.325 33.846,-9.994 67.983,-18.823 102.444,-26.463 4.785,-1.065 9.658,-1.983 14.61,-2.767 0.157,-0.022 0.302,0.09 0.337,0.246 0,0.078 -0.012,0.146 -0.057,0.213 -14.194,20.189 -24.401,41.744 -30.619,64.689 -1.188,4.358 -2.062,8.604 -2.633,12.727 -0.056,0.414 -0.347,0.75 -0.739,0.862 -14.946,4.146 -29.409,8.381 -43.368,12.716 -0.864,0.27 -1.077,0.012 -0.617,-0.772 1.96,-3.372 1.95,-7.149 -1.064,-9.747 -1.457,-1.255 -2.678,-2.891 -3.675,-4.885 -1.222,-2.453 -3.373,-5.075 -5.243,-7.114 -11.059,-12.044 -21.22,-24.805 -30.463,-38.26 m 138.689,47.682 -0.942,20.099 c -0.012,0.179 -0.157,0.314 -0.325,0.302 h -0.056 c -5.579,-1.098 -11.249,-0.302 -16.816,0.628 -1.367,0.223 -1.445,0 -0.235,-0.661 5.949,-3.272 13.365,-7.081 16.2,-13.713 0.616,-1.457 1.198,-3.72 1.759,-6.778 0.01,-0.034 0.022,-0.056 0.067,-0.045 l 0.235,0.034 c 0.078,0.011 0.113,0.055 0.113,0.134 m -133.905,38.372 c -0.168,0.112 -0.347,0.145 -0.549,0.078 -0.257,-0.078 -0.257,-0.168 -0.01,-0.258 10.766,-3.921 21.341,-7.517 31.716,-10.767 18.822,-5.904 37.689,-11.527 56.611,-16.86 1.334,-0.37 2.779,-0.46 4.112,-0.796 8.246,-2.061 15.797,-3.843 22.664,-5.333 1.02,-0.224 2.084,-0.291 3.205,-0.19 0.392,0.034 0.425,0.168 0.123,0.403 -5.075,3.865 -11.271,6.52 -17.254,9.311 -2.711,1.243 -5.971,2.553 -9.792,3.92 -4.996,1.782 -10.015,3.597 -15.056,5.434 -1.367,0.493 -2.723,1.076 -4.079,1.759 -1.266,0.638 -2.599,1.3 -3.977,1.971 -1.748,0.875 -3.843,1.468 -6.252,1.793 -3.663,0.504 -7.293,0.998 -10.9,1.479 -14.542,1.95 -29.342,4.325 -44.4,7.137 -2.028,0.381 -3.943,0.638 -5.748,0.773 -0.156,0.011 -0.291,0.056 -0.414,0.146 M -11.237,37.453 c 0.358,-0.515 0.46,-1.132 0.796,-1.591 0.156,-0.214 0.402,-0.337 0.671,-0.337 2.286,-0.055 4.572,0.045 6.846,0.281 12.614,1.31 25.734,3.181 39.368,5.601 11.619,2.073 22.027,4.482 31.236,7.238 14.474,4.347 30.182,9.198 44.254,15.708 5.198,2.408 9.937,5.523 14.206,9.354 2.016,1.826 3.977,3.607 5.87,5.333 4.223,3.876 7.652,8.425 11.002,13.052 3.731,5.165 6.297,10.957 7.697,17.377 3.45,15.852 0.885,30.574 -7.686,44.186 -3.854,6.117 -9.724,10.833 -15.561,14.946 -1.625,1.131 -5.075,0.683 -6.857,0.47 -10.419,-1.31 -21.936,-2.757 -34.563,-4.358 -18.821,-2.387 -39.996,-4.873 -59.4,-5.904 -0.314,-0.023 -0.527,-0.168 -0.639,-0.46 -1.748,-4.179 -4.358,-7.999 -7.831,-11.45 -17.926,-17.824 -34.327,-34.361 -49.194,-49.62 -6.588,-6.756 -12.896,-13.108 -18.901,-19.046 -0.135,-0.134 -0.135,-0.347 0,-0.482 L -49.9,77.74 c 10.733,-9.78 20.882,-19.796 30.439,-30.058 2.768,-2.958 5.501,-6.375 8.224,-10.229 m -267.382,114.454 c -1.579,1.21 -3.227,2.24 -4.951,3.092 -1.021,0.505 -1.973,1.121 -2.88,1.86 -2.219,1.827 -4.762,3.193 -7.002,5.008 -2.902,2.33 -5.792,4.414 -8.66,6.24 -1.255,0.796 -3.451,1.827 -6.566,3.081 -0.918,0.371 -1.972,1.02 -3.171,1.961 -0.593,0.459 -1.333,0.672 -2.072,0.605 l -7.574,-0.706 c -0.683,-0.056 -0.761,-0.314 -0.224,-0.75 2.521,-2.062 5.165,-4 7.932,-5.826 16.066,-10.587 33.476,-19.147 51.693,-26.597 1.849,-0.751 3.653,-1.188 5.411,-1.288 0.975,-0.057 1.042,0.156 0.203,0.649 -6.163,3.608 -12.067,6.879 -17.713,9.815 -1.457,0.761 -2.925,1.714 -4.426,2.856 m -8.044,25.096 c -1.613,-0.314 -3.249,-0.516 -4.873,-0.605 -1.322,-0.067 -1.423,-0.46 -0.315,-1.165 1.289,-0.84 2.533,-1.759 3.743,-2.756 3.193,-2.678 6.991,-5.378 11.405,-8.1 0.224,-0.135 0.672,-0.358 1.355,-0.672 1.143,-0.527 2.309,-1.602 3.417,-2.274 7.16,-4.292 15.954,-9.131 26.384,-14.509 5.826,-2.991 11.014,-5.266 15.573,-6.823 1.39,-0.482 2.723,-0.975 3.989,-1.501 2.599,-1.065 5.546,-1.759 8.85,-2.074 3.249,-0.313 5.916,-0.178 8.011,0.393 0.493,0.145 0.538,0.358 0.123,0.672 -2.005,1.524 -4.033,3.126 -6.072,4.829 -1.781,1.49 -3.989,2.868 -6.61,4.123 -4.661,2.24 -9.333,4.526 -14.015,6.867 -4.179,2.073 -8.683,4.157 -13.524,6.218 -6.374,2.712 -12.759,5.67 -19.146,8.873 -4.38,2.196 -8.436,4.561 -11.449,8.504 -0.281,0.381 -0.729,0.605 -1.21,0.594 -1.827,-0.023 -3.698,-0.213 -5.636,-0.594 M 5.389,17.152 c 3.024,0.381 6.005,0.605 8.963,0.672 2.958,0.078 5.926,0.291 8.928,0.639 10.902,1.277 20.794,2.577 29.657,3.921 2.755,0.415 9.006,1.658 18.753,3.731 2.219,0.47 4.471,0.896 6.756,1.277 2.342,0.38 4.717,0.885 7.115,1.512 4.582,1.21 9.186,2.465 13.802,3.753 6.913,1.928 14.643,4.807 23.202,8.627 2.477,1.11 7.989,4.348 16.526,9.725 4.604,2.89 8.38,6.711 12.425,10.363 2.934,2.633 6.285,6.442 10.048,11.395 2.522,3.327 4.717,7.024 6.578,11.09 2.139,4.683 3.842,9.289 5.12,13.826 4.817,17.174 3.91,33.991 -2.723,50.437 -1.748,4.336 -4.672,9.065 -8.762,14.218 -1.534,1.927 -2.632,4.044 -4.246,5.848 -5.567,6.274 -11.338,11.775 -17.308,16.514 -1.132,0.896 -2.376,1.591 -3.743,2.106 -1.22,0.448 -2.565,0.47 -4.033,0.079 -2.352,-0.616 -4.526,-1.603 -6.532,-2.947 -0.089,-0.067 -0.111,-0.191 -0.044,-0.28 0.011,-0.022 0.044,-0.045 0.067,-0.056 4.37,-2.207 8.414,-4.795 12.144,-7.764 3.967,-3.149 8.19,-6.375 11.192,-10.14 12.28,-15.393 17.075,-33.285 14.374,-53.675 -0.548,-4.123 -1.747,-8.706 -3.595,-13.747 -1.658,-4.526 -3.843,-8.715 -6.577,-12.559 -2.622,-3.696 -5.4,-7.26 -8.313,-10.677 -2.823,-3.305 -6.252,-6.139 -9.478,-9.186 -5.254,-4.963 -11.248,-9.041 -17.97,-12.235 -6.342,-3.014 -13.635,-5.96 -21.881,-8.84 C 87.409,41.833 80.138,39.447 73.999,37.609 65.26,34.988 57.944,33.252 52.04,32.378 46.685,31.593 40.915,30.573 34.72,29.319 26.933,27.739 19.034,26.484 11.024,25.565 5.993,24.983 0.313,24.647 -6.027,24.546 c -6.33,-0.101 -12.335,-0.179 -18.004,-0.257 -3.978,-0.057 -7.81,0.179 -11.518,0.717 -2.678,0.381 -5.108,-0.135 -7.708,0.694 -1.591,0.504 -3.394,0.852 -5.411,1.042 -13.724,1.267 -22.385,2.162 -25.97,2.689 -5.882,0.874 -11.539,1.703 -16.951,2.499 -6.206,0.907 -11.819,1.803 -16.861,2.688 -21.981,3.855 -44.22,8.66 -66.705,14.407 -11.394,2.913 -22.687,5.871 -33.902,8.885 -17.287,4.661 -40.288,11.495 -68.979,20.525 -3.361,1.064 -6.7,1.983 -10.017,2.779 -5.545,1.321 -10.642,2.811 -15.561,5.299 -0.863,0.448 -1.737,0.817 -2.61,1.097 -2.263,0.729 -4.482,1.502 -6.812,2.062 -4.582,1.075 -8.918,2.207 -13.007,3.384 -8.436,2.442 -16.817,4.783 -25.152,7.024 -2.252,0.606 -4.56,1.177 -6.924,1.714 -4.649,1.054 -9.478,2.219 -14.475,3.484 -5.119,1.289 -10.509,3.104 -15.382,3.743 -11.92,1.579 -23.998,2.442 -36.21,2.598 -0.055,0 -0.089,-0.021 -0.123,-0.066 -0.011,-0.023 -0.033,-0.045 -0.045,-0.068 -0.022,-0.033 -0.022,-0.056 0.023,-0.056 6.308,-0.74 12.738,-1.714 19.292,-2.924 24.547,-4.548 48.646,-11.013 72.318,-19.382 2.577,-0.907 5.165,-1.871 7.742,-2.891 2.442,-0.974 4.907,-1.949 7.372,-2.913 3.328,-1.288 7.081,-2.498 11.271,-3.63 3.909,-1.052 7.909,-2.207 12.021,-3.461 0.044,-0.011 0.079,-0.034 0.112,-0.079 0.022,-0.022 0.045,-0.045 0.057,-0.078 0.043,-0.056 0.1,-0.101 0.178,-0.123 7.944,-2.308 15.484,-4.571 22.609,-6.801 9.097,-2.812 18.071,-5.467 26.911,-7.943 23.079,-6.453 48.779,-13.344 77.101,-20.682 10.162,-2.632 28.379,-6.543 54.662,-11.73 5.512,-1.086 11.058,-2.05 16.649,-2.879 14.34,-2.117 28.647,-4.246 42.92,-6.375 7.339,-1.098 14.486,-1.972 21.455,-2.621 2.778,-0.258 5.423,-0.549 7.909,-0.863 3.126,-0.392 6.207,-0.425 9.243,-0.089 2.33,0.258 4.627,0.459 6.913,0.604 3.07,0.202 6.251,0.326 9.568,0.359 1.187,0.011 2.319,0.09 3.417,0.224 m -587.992,84.867 c 2.107,1.703 4.28,3.159 6.051,5.03 0.672,0.706 1.556,0.851 2.139,1.31 2.756,2.162 5.535,4.336 8.347,6.532 2.039,1.58 3.787,3.373 5.882,4.884 1.512,1.098 3.025,2.264 4.515,3.485 6.543,5.31 13.152,10.52 19.852,15.629 1.389,1.064 2.667,2.196 3.843,3.406 0.583,0.616 0.56,1.591 -0.056,2.173 -0.022,0.022 -0.034,0.045 -0.056,0.056 -2.274,1.96 -4.347,4.179 -6.207,6.655 -5.96,7.876 -11.831,16.458 -17.612,25.734 -3.249,5.221 -6.441,10.464 -9.578,15.752 -0.213,0.348 -0.662,0.46 -1.009,0.258 -0.09,-0.056 -0.168,-0.123 -0.224,-0.201 -2.7,-3.787 -4.951,-7.552 -6.756,-11.305 -7.562,-15.719 -13.69,-31.639 -19.762,-47.76 -2.129,-5.646 -4.056,-11.136 -5.77,-16.469 -2.801,-8.661 -5.669,-17.456 -8.616,-26.374 -0.157,-0.481 0.068,-1.007 0.527,-1.22 2.655,-1.233 4.38,-1.312 7.058,0.302 6.487,3.921 12.301,7.965 17.432,12.123 m 300.981,100.147 c -8.357,-1.165 -13.869,-1.904 -16.536,-2.229 -15.987,-1.961 -32.03,-4.045 -48.119,-6.286 -2.778,-0.391 -5.467,-1.456 -8.302,-1.019 -2.106,0.325 -4.324,0.436 -6.654,0.325 -0.493,-0.022 -0.56,-0.202 -0.18,-0.526 5.479,-4.885 11.361,-6.622 17.646,-5.222 3.596,0.796 7.35,0.571 10.991,0.986 8.795,0.997 18.687,2.062 29.7,3.216 6.655,0.705 13.668,1.602 21.007,2.689 0.111,0.022 0.168,0.078 0.178,0.201 l 0.516,7.63 c 0.011,0.179 -0.067,0.257 -0.247,0.235 m -4.022,19.337 c -1.848,-2.263 -3.159,-4.773 -4.739,-7.237 -0.504,-0.773 -0.291,-1.087 0.606,-0.964 l 12.861,1.815 c 0.123,0.023 0.213,0.146 0.19,0.28 -0.011,0.045 -0.045,0.101 -0.078,0.134 l -7.54,6.107 c -0.392,0.313 -0.974,0.258 -1.3,-0.135 m -63.803,4.627 c -0.37,-6.431 -1.49,-13.377 -0.784,-19.898 0.022,-0.301 0.279,-0.514 0.582,-0.492 h 0.011 l 16.705,1.927 c 0.639,0.078 1.187,0.504 1.4,1.109 l 2.23,6.206 c 0.112,0.326 -0.023,0.696 -0.325,0.886 -5.591,3.44 -11.069,6.654 -16.447,9.668 -0.896,0.505 -1.871,0.829 -2.902,0.975 -0.224,0.034 -0.425,-0.123 -0.459,-0.336 0,-0.011 -0.011,-0.033 -0.011,-0.045 m 54.617,3.865 -6.846,5.647 c -0.459,0.38 -1.142,0.313 -1.512,-0.146 -0.011,-0.011 -0.023,-0.022 -0.023,-0.033 -6.139,-8.078 -11.136,-16.469 -14.99,-25.175 -0.179,-0.436 -0.045,-0.615 0.426,-0.559 3.933,0.515 7.731,0.985 11.394,1.411 0.65,0.079 1.098,0.403 1.356,0.974 2.845,6.375 6.273,12.101 10.273,17.175 0.168,0.213 0.135,0.527 -0.078,0.706 m -48.556,13.612 c -0.762,-0.1 -1.446,-0.291 -2.051,-0.593 -0.224,-0.112 -0.392,-0.326 -0.459,-0.583 l -0.75,-3.417 c -0.112,-0.47 0.146,-0.93 0.594,-1.098 2.408,-0.907 4.772,-1.961 7.114,-3.192 5.053,-2.645 9.377,-6.286 13.937,-9.782 0.201,-0.145 0.481,-0.111 0.627,0.09 0.011,0.011 0.022,0.033 0.034,0.056 3.641,6.498 7.293,12.615 12.402,18.105 0.347,0.381 0.325,0.975 -0.045,1.322 -0.011,0 -0.011,0.011 -0.011,0.011 l -2.622,2.33 c -0.369,0.326 -0.795,0.449 -1.277,0.381 -8.794,-1.198 -17.959,-2.42 -27.493,-3.63 m -151.639,10.655 c -0.392,0.706 -0.829,1.355 -1.322,1.95 -0.482,0.594 -1.031,0.649 -1.647,0.19 -11.36,-8.75 -22.754,-17.623 -34.193,-26.642 -7.036,-5.545 -13.858,-11.203 -20.457,-17.007 -1.479,-1.288 -2.745,-2.566 -3.787,-3.843 -1.95,-2.363 0.303,-8.178 1.837,-10.845 7.921,-13.78 16.693,-27.101 26.317,-39.973 1.715,-2.308 4.963,-6.152 8.078,-6.173 3.988,-0.012 7.82,0.392 11.484,1.231 8.122,1.849 16.2,4.123 24.244,6.813 7.763,2.588 15.606,5.288 23.527,8.089 2.812,0.997 5.523,2.072 8.133,3.215 0.381,0.168 0.55,0.593 0.381,0.963 -0.01,0.023 -0.01,0.045 -0.022,0.068 -2.633,4.772 -5.007,9.432 -7.125,14.004 -5.591,12.122 -11.45,23.392 -17.041,34.843 -1.613,3.316 -3.215,6.352 -4.795,9.108 -4.593,7.966 -9.13,15.965 -13.612,24.009 m 658.718,0.493 c -3.573,3.832 -3.73,8.268 -3.159,13.198 0.549,4.672 -2.857,7.629 -6.957,9.029 -5.456,1.827 -6.207,-5.444 -5.579,-8.817 1.422,-7.707 7.013,-14.104 15.494,-13.869 0.404,0.011 0.47,0.168 0.201,0.459 m -555.444,-25.253 c -3.888,11.338 -7.205,21.444 -9.949,30.306 -3.227,10.486 -6.342,20.782 -9.321,30.899 -0.605,2.039 -0.998,5.008 -1.177,8.907 -0.011,0.302 -0.168,0.425 -0.47,0.347 -5.815,-1.468 -11.697,-2.7 -17.343,-4.851 -16.66,-6.353 -32.02,-13.634 -46.069,-21.825 -3.753,-2.184 -7.562,-4.66 -11.439,-7.405 -0.336,-0.246 -0.425,-0.694 -0.224,-1.053 5.087,-8.682 10.364,-17.825 15.82,-27.448 2.677,-4.729 5.31,-9.669 7.876,-14.834 3.294,-6.588 6.498,-12.94 9.634,-19.068 3.407,-6.655 6.521,-13.691 9.927,-20.413 0.93,-1.827 1.938,-3.383 3.025,-4.694 1.176,-1.4 2.185,-2.913 3.036,-4.538 1.602,-3.047 8.044,-2.397 10.419,-1.468 4.448,1.738 9.232,2.365 13.713,3.777 4.448,1.411 8.739,2.778 12.862,4.111 5.523,1.781 11.002,4.123 16.357,6.509 3.137,1.401 5.781,3.26 7.954,5.568 0.482,0.516 0.572,1.277 0.224,1.894 -2.274,4.01 -4.279,8.044 -6.004,12.111 -3.227,7.618 -6.174,15.337 -8.851,23.168 m 26.059,-25.778 2.689,0.974 c 0.358,0.123 0.537,0.381 0.526,0.762 -0.067,5.12 -0.134,10.218 0.448,15.461 0.269,2.386 0.505,4.907 0.717,7.573 0.303,3.877 1.076,7.888 2.297,12.032 0.146,0.46 -0.101,0.942 -0.549,1.099 -4.145,1.468 -6.207,4.492 -6.162,9.063 0.056,6.666 0.459,15.382 1.21,26.161 0.527,7.607 0.414,15.18 0.325,22.832 -0.034,2.498 -0.303,4.829 -0.785,7.013 -0.111,0.515 -0.425,0.74 -0.941,0.661 -11.628,-1.579 -22.821,-2.532 -33.576,-2.845 -0.359,-0.023 -0.65,-0.281 -0.706,-0.628 -0.448,-2.868 -0.258,-5.725 0.572,-8.582 5.556,-19.225 11.562,-38.596 17.992,-58.101 3.854,-11.64 8.403,-23.034 13.668,-34.181 0.124,-0.269 0.359,-0.471 0.639,-0.572 0.683,-0.247 1.019,-0.134 0.997,0.347 -0.011,0.471 0.202,0.785 0.639,0.931 m 616.022,27.919 c -9.075,1.388 -18.396,3.595 -27.976,6.621 -3.584,1.132 -5.937,3.472 -7.08,7.036 -0.123,0.381 -0.47,0.649 -0.874,0.672 -2.812,0.178 -5.49,0.493 -8.033,0.94 -6.296,1.132 -12.85,2.387 -19.662,3.765 -0.459,0.1 -0.829,0.426 -0.975,0.863 l -0.985,2.969 c -0.045,0.134 -0.19,0.201 -0.325,0.156 -0.056,-0.022 -0.101,-0.056 -0.123,-0.101 -5.972,-8.715 -17.265,-14.912 -27.763,-11.718 -11.024,3.361 -17.779,10.834 -20.266,22.429 -0.068,0.269 -0.225,0.449 -0.494,0.527 -7.528,2.218 -15.045,4.727 -22.686,6.801 -11.798,3.214 -23.192,6.396 -35.045,9.074 -5.276,1.187 -10.476,2.42 -15.572,3.697 -8.369,2.106 -15.865,3.541 -23.82,5.333 -15.393,3.495 -30.742,6.666 -46.203,10.397 -6.654,1.602 -13.343,3.125 -20.053,4.582 -6.061,1.322 -12.458,3.26 -18.8,4.56 -0.056,0.011 -0.112,0.023 -0.168,0.011 -0.291,-0.045 -0.448,-0.168 -0.47,-0.381 -0.023,-0.213 0.078,-0.37 0.279,-0.459 0.068,-0.022 0.135,-0.067 0.191,-0.112 0.135,-0.135 0.235,-0.291 0.302,-0.471 0.953,-2.711 2.029,-5.422 3.216,-8.145 1.176,-2.689 2.319,-5.377 3.44,-8.055 4.615,-11.193 9.657,-22.766 15.091,-34.72 2.016,-4.425 3.988,-8.806 5.937,-13.152 9.131,-20.301 16.693,-38.383 22.721,-54.247 1.031,-2.711 8.559,-5.188 11.371,-6.028 8.683,-2.577 17.041,-3.631 25.746,-4.134 10.935,-0.627 22.418,-0.224 34.036,0.392 11.775,0.616 23.493,1.233 35.156,1.859 0.572,0.023 1.032,0.483 1.076,1.054 0.247,3.07 1.467,5.579 3.686,7.506 6.711,5.849 14.362,8.392 22.922,7.652 4.919,-0.437 8.817,-3.787 12.369,-6.935 1.243,-1.098 2.61,-1.96 4.111,-2.599 2.633,-1.109 5.199,-2.297 7.708,-3.541 5.345,-2.643 11.596,-5.456 17.635,-5.713 3.484,-0.157 6.61,-0.079 9.365,0.224 2.455,0.28 4.471,0.135 6.062,-0.437 5.053,-1.803 10.341,-3.742 15.887,-5.803 8.861,-3.305 18.911,-6.398 30.126,-9.299 5.803,-1.501 11.506,-2.924 17.096,-4.246 15.349,-3.675 31.572,-7.473 48.634,-11.394 10.8,-2.487 21.029,-4.694 32.524,-7.417 13.859,-3.271 26.765,-5.859 38.73,-7.763 3.474,-0.55 6.801,-1.11 9.993,-1.659 3.048,-0.515 5.928,-0.953 8.65,-1.311 2.845,-0.369 5.725,-0.784 8.649,-1.243 7.954,-1.255 16.077,-2.577 24.356,-3.989 6.778,-1.154 13.758,-2.207 20.939,-3.159 0.078,-0.011 0.112,0.023 0.123,0.089 0.023,0.09 -0.011,0.146 -0.089,0.169 -9.546,2.531 -19.102,5.108 -28.647,7.719 -12.571,3.439 -25.589,7.237 -39.056,11.405 -8.48,2.633 -16.961,5.243 -25.454,7.842 -1.165,0.358 -2.834,0.919 -4.996,1.67 -1.658,0.571 -3.339,1.109 -5.02,1.613 -2.7,0.807 -5.209,1.602 -7.528,2.398 -12.716,4.346 -24.839,8.604 -36.378,12.783 -4.683,1.703 -10.072,3.517 -16.145,5.478 -12.816,4.101 -25.868,8.884 -39.156,14.352 -5.534,2.274 -4.885,10.105 1.267,10.587 4.011,0.325 8.011,0.829 12.01,1.524 1.064,0.191 2.207,0.033 3.081,0.369 0.638,0.236 1.289,0.414 1.949,0.538 10.733,2.005 21.41,3.831 32.019,5.49 0.583,0.089 0.594,0.224 0.023,0.38 -1.345,0.371 -2.711,0.539 -4.044,0.964 -5.188,1.669 -10.363,3.362 -15.517,5.053 -2.958,0.975 -5.983,1.893 -9.086,2.767 -2.376,0.661 -5.389,1.748 -9.03,3.26 -1.938,0.807 -3.339,1.737 -4.18,2.801 -2.038,2.577 -2.027,5.356 0.045,8.314 0.113,0.156 0.079,0.381 -0.089,0.492 -0.044,0.034 -0.101,0.057 -0.157,0.067 -2.24,0.325 -4.436,0.651 -6.576,0.987 M -78.491,192.576 c -0.718,5.344 -1.401,10.788 -2.051,16.346 -0.616,5.254 -1.333,10.699 -2.162,16.323 -1.479,10.128 -2.723,19.73 -3.753,28.804 -0.516,4.56 -0.314,9.064 -0.829,13.534 -0.202,1.837 -0.348,3.686 -0.403,5.546 -0.168,4.66 -0.471,9.377 -0.426,13.847 0.078,9.288 0.168,18.777 0.258,28.457 0.01,0.493 -0.225,0.751 -0.717,0.796 -3.877,0.269 -3.787,-13.176 -3.799,-15.484 -0.078,-8.929 0.145,-18.508 0.673,-28.736 1.21,-24.077 2.24,-47.302 3.069,-69.675 0.033,-0.919 0.393,-1.792 0.426,-2.733 0.168,-4.113 0.403,-8.089 0.717,-11.966 0.347,-4.19 0.605,-8.179 0.806,-11.943 1.188,-23.046 1.849,-41.285 1.973,-54.717 0.156,-19.102 0.357,-38.978 0.593,-59.625 0.012,-0.717 0.258,-0.829 0.773,-0.303 8.134,8.426 16.682,16.682 24.625,24.872 24.985,25.734 41.779,42.942 50.394,51.614 2.543,2.555 5.467,5.366 8.795,8.425 2.89,2.678 6.408,6.353 10.519,11.024 0.202,0.224 0.168,0.404 -0.09,0.549 -3.08,1.703 -5.589,4 -7.55,6.879 -0.594,0.886 -1.21,1.781 -1.837,2.689 -0.684,0.986 -1.278,2.028 -1.783,3.126 -3.45,7.529 -6.666,15.18 -9.634,22.967 -2.107,5.512 -4.224,10.767 -6.33,15.763 -7.349,17.444 -13.421,31.381 -18.228,41.822 -4.817,10.453 -8.044,17.646 -9.691,21.601 -4.437,10.677 -8.794,21.051 -13.085,31.123 -1.782,4.179 -3.496,7.775 -5.154,10.778 -1.098,1.994 -2.611,3.462 -4.538,4.414 -0.515,0.258 -0.672,0.112 -0.481,-0.425 1.478,-4.18 2.7,-8.504 3.663,-12.985 1.904,-8.863 3.697,-17.355 5.378,-25.466 0.526,-2.521 0.997,-5.064 1.411,-7.64 1.031,-6.32 2.655,-12.448 3.955,-18.923 1.816,-9.03 3.877,-18.307 6.195,-27.841 0.561,-2.319 0.718,-4.84 0.46,-7.551 -0.056,-0.605 -0.19,-0.628 -0.415,-0.056 -0.257,0.638 -0.504,1.277 -0.727,1.905 -7.216,20.076 -14.968,41.99 -23.237,65.73 -2.577,7.395 -4.391,14.206 -5.456,20.458 -0.112,0.65 -0.212,0.65 -0.313,0 -0.315,-2.118 -0.415,-4.213 -0.325,-6.252 0.168,-3.898 0.246,-5.882 0.246,-5.926 0.034,-13.949 0.145,-28.065 -0.201,-41.834 -0.471,-19.393 -0.964,-39.157 -1.446,-59.288 -0.034,-1.087 -0.123,-1.099 -0.268,-0.023 m -213.796,64.554 c 0,-3.563 -4.403,-6.184 -7.428,-6.89 -0.19,-0.034 -0.314,-0.235 -0.268,-0.426 0.021,-0.078 0.066,-0.145 0.123,-0.202 l 22.272,-18.429 c 0.269,-0.224 0.65,-0.179 0.874,0.079 0.044,0.066 0.089,0.145 0.111,0.223 0.572,2.039 0.998,4.146 1.267,6.319 0.056,0.425 0.324,0.761 0.414,1.166 3.026,14.306 5.949,28.31 8.75,42.001 1.065,5.221 2.14,10.811 3.227,16.76 1.378,7.563 2.733,14.7 4.066,21.388 0.045,0.246 -0.111,0.482 -0.358,0.538 -0.023,0 -0.034,0 -0.044,0.011 -2.04,0.202 -4.068,0.325 -6.095,0.358 -3.474,0.068 -6.801,0.572 -10.297,0.863 -3.45,0.28 -6.228,0.907 -8.369,-1.569 -4.783,-5.556 -6.644,-15.393 -7.27,-21.992 -0.415,-4.235 -0.863,-8.515 -1.356,-12.839 -0.874,-7.607 -0.224,-14.833 -0.616,-22.138 -0.09,-1.916 0.985,-3.317 0.997,-5.221 m 190.683,-36.098 c -0.863,19.954 -1.737,39.705 -2.633,59.267 -0.515,11.315 -0.493,21.23 0.067,29.767 0.123,1.984 0.504,3.921 1.12,5.815 0.471,1.468 -0.055,2.286 -1.591,2.465 -21.32,2.509 -42.987,3.944 -65.003,4.302 -7.18,0.112 -15.179,0.392 -23.986,0.852 -10.296,0.515 -22.406,0.548 -36.321,0.089 -5.747,-0.19 -10.14,-1.199 -15.08,-3.776 -1.02,-0.526 -1.636,-1.333 -1.837,-2.419 -3.238,-17.108 -6.285,-33.947 -9.87,-50.808 -2.936,-13.77 -5.871,-27.27 -8.807,-40.489 -0.224,-1.032 -0.481,-2.062 -0.784,-3.092 -0.09,-0.336 -0.011,-0.606 0.247,-0.818 l 4.851,-4.089 c 0.292,-0.247 0.638,-0.359 1.031,-0.326 8.861,0.762 9.601,-9.735 1.68,-11.808 -3.215,-0.84 -6.587,-1.513 -10.139,-2.017 -0.324,-0.045 -0.515,-0.235 -0.571,-0.549 -0.348,-1.938 -0.135,-3.752 0.649,-5.433 0.571,-1.233 0.907,-2.006 1.019,-2.342 0.897,-2.823 0.83,-5.231 4.236,-6.173 5.019,-1.389 9.366,-2.397 13.041,-3.036 14.631,-2.532 29.812,-4.94 45.542,-7.227 5.489,-0.794 11.08,-1.691 16.782,-2.688 17.142,-2.991 34.306,-5.804 51.503,-8.437 3.943,-0.604 5.927,-1.109 8.929,0.381 2.644,1.323 4.862,2.79 6.666,4.392 3.809,3.418 7.718,7.652 10.24,12.144 2.901,5.177 5.086,10.532 6.565,16.055 1.333,4.986 1.703,9.938 2.297,15.148 0.179,1.613 0.235,3.226 0.157,4.85 m -95.711,124.998 c -2.924,2.621 -5.703,5.277 -8.358,7.988 -0.807,0.817 -1.49,1.669 -2.051,2.543 -0.291,0.448 -0.884,0.571 -1.333,0.291 -0.01,-0.022 -0.034,-0.033 -0.045,-0.044 -4.874,-3.664 -10.138,-7.148 -15.807,-10.431 -0.28,-0.168 -0.37,-0.538 -0.202,-0.818 0.011,-0.011 0.022,-0.034 0.022,-0.045 1.456,-1.972 3.238,-3.921 5.333,-5.848 1.949,-1.781 4.627,-1.983 7.047,-2.812 1.558,-0.526 3.26,-0.818 5.131,-0.852 6.856,-0.156 14.218,-0.38 22.094,-0.661 0.504,-0.01 0.559,0.124 0.156,0.437 -3.82,2.97 -7.484,6.218 -10.968,9.736 -0.1,0.101 -0.213,0.168 -0.358,0.213 -0.068,0.023 -0.146,0.045 -0.213,0.067 -0.168,0.045 -0.314,0.123 -0.448,0.236 m -121.726,-87.141 c 4.011,0.605 8.212,1.221 12.604,1.838 0.47,0.067 0.84,0.448 0.874,0.918 0.627,7.809 -0.124,15.46 -0.359,23.113 -0.414,13.309 -0.807,26.496 -1.804,39.649 -0.425,5.714 -0.739,11.416 -0.918,17.119 -0.157,4.784 -1.277,9.579 -2.723,14.139 -2.016,6.33 -7.013,10.441 -13.545,10.968 -3.529,0.28 -6.822,1.232 -10.419,0.683 -1.871,-0.28 -3.529,-0.628 -4.974,-1.042 -12.627,-3.607 -23.953,-7.45 -33.98,-11.528 -13.333,-5.445 -25.477,-10.296 -36.412,-14.565 -3.372,-1.31 -7.226,-2.409 -11.584,-3.271 -0.336,-0.067 -0.583,-0.336 -0.616,-0.672 -0.381,-3.686 -0.863,-7.932 0.862,-11.349 2.163,-4.28 5.12,-8.123 10.196,-8.302 8.582,-0.28 15.27,-0.314 20.065,-0.089 7.932,0.38 17.421,1.276 28.468,2.688 8.414,1.064 10.027,-6.173 10.766,-12.727 0.46,-4.224 0.684,-8.907 0.639,-14.049 -0.1,-12.347 -0.762,-24.939 -1.994,-37.778 -0.022,-0.28 0.19,-0.538 0.471,-0.571 0.044,0 0.089,0 0.145,0.01 7.484,1.334 14.688,2.399 21.612,3.171 4.257,0.482 8.469,1.03 12.626,1.647 m 11.887,133.893 c -2.084,-5.255 -4,-10.957 -6.453,-16.167 -0.146,-0.325 -0.068,-0.572 0.246,-0.728 14.844,-7.383 16.996,-25.757 17.309,-40.568 0.012,-0.381 0.202,-0.549 0.572,-0.515 5.086,0.47 9.892,-0.762 15.08,-1.278 7.976,-0.806 15.774,-1.602 23.381,-2.386 2.331,-0.246 4.247,-1.367 6.599,-0.202 5.837,2.914 11.73,4.37 18.485,4.605 0.527,0.022 0.594,0.202 0.213,0.561 -1.187,1.097 -2.207,2.408 -3.036,3.92 -0.19,0.326 -0.448,0.393 -0.772,0.213 -5.233,-2.946 -9.479,-5.209 -14.845,-0.818 -1.132,0.931 -2.207,1.872 -3.216,2.824 -17.22,16.099 -34.909,32.983 -53.059,50.639 -0.123,0.124 -0.314,0.124 -0.437,0 -0.022,-0.033 -0.045,-0.067 -0.067,-0.1 m 220.159,-62.773 c -1.904,4.963 -3.529,9.881 -6.151,14.609 -7.898,14.251 -17.746,25.51 -30.338,35.246 -4.617,3.552 -8.695,6.487 -12.257,8.795 -4.257,2.756 -9.702,5.691 -16.346,8.817 -2.028,0.952 -4.011,1.703 -5.916,2.252 -0.347,0.101 -0.481,-0.023 -0.392,-0.37 1.983,-7.899 5.524,-14.553 9.5,-21.836 2.309,-4.223 4.695,-7.864 7.16,-10.945 11.159,-13.892 24.468,-24.805 39.895,-32.714 3.72,-1.905 10.509,-5.524 14.374,-4.728 0.504,0.101 0.661,0.392 0.471,0.874 m 9.086,23.291 c 0.437,-3.013 1.009,-5.87 1.714,-8.57 0.112,-0.403 0.213,-0.403 0.325,0 1.345,5.098 2.745,10.195 4.201,15.327 2.7,9.533 3.484,22.025 1.86,33.049 -0.952,6.532 -1.916,12.503 -4.19,18.587 -0.168,0.437 -0.325,0.437 -0.46,-0.011 -1.456,-4.683 -2.531,-9.377 -3.215,-14.072 -2.207,-15.281 -2.285,-30.048 -0.235,-44.31 m -126.846,101.885 -2.957,2.644 c -0.325,0.28 -0.829,0.258 -1.121,-0.079 -0.022,-0.011 -0.033,-0.033 -0.056,-0.056 -2.229,-3.069 -4.963,-6.385 -8.201,-9.937 -12.368,-13.59 -30.171,-13.657 -46.27,-7.943 -2.599,0.918 -4.818,2.364 -7.719,2.42 -4.47,0.1 -8.582,-0.818 -13.074,-0.538 -0.672,0.033 -0.762,-0.168 -0.281,-0.616 7.641,-7.103 16.346,-13.725 23.909,-20.391 1.176,-1.042 4.045,-1.108 5.736,-1.77 3.439,-1.344 6.856,-2.666 10.431,-3.473 3.125,-0.706 6.172,-1.4 9.13,-2.095 2.992,-0.695 6.991,-1.12 12.01,-1.288 11.753,-0.37 19.988,4.111 28.009,12.323 4.033,4.123 7.315,8.291 9.848,12.515 0.313,0.516 0.257,1.176 -0.123,1.636 -1.233,1.501 -2.521,2.812 -3.866,3.909 -4.919,4.011 -9.949,8.19 -15.068,12.537 -0.067,0.045 -0.135,0.09 -0.202,0.112 -0.056,0.034 -0.101,0.056 -0.135,0.09 m -101.402,-10.531 c -8.638,7.248 -16.861,14.228 -26.518,19.807 -2.723,1.58 -5.793,2.151 -8.851,2.465 -0.728,0.078 -1.457,-0.045 -2.118,-0.336 -3.63,-1.625 -6.834,-3.204 -9.612,-4.716 -10.778,-5.916 -18.464,-17.545 -24.469,-28.054 -10.038,-17.578 -20.199,-35.627 -30.496,-54.135 -2.991,-5.389 -5.669,-10.856 -8.044,-16.402 -0.111,-0.269 0.012,-0.571 0.269,-0.672 0.057,-0.023 0.112,-0.034 0.18,-0.045 22.608,-1.154 43.973,7.125 65.293,13.713 5.266,1.624 10.755,2.722 16.458,3.294 2.61,0.258 5.12,-0.045 7.674,-0.437 0.359,-0.056 0.706,0.135 0.852,0.481 l 8.94,22.508 c 0.112,0.258 0.034,0.561 -0.168,0.751 -2.857,2.543 -7.753,6.476 -7.125,10.498 0.437,2.8 2.151,4.369 5.142,4.728 1.837,0.212 3.978,-1.132 5.266,-2.42 17.925,-17.713 40.511,-39.28 67.781,-64.701 0.471,-0.437 0.974,-0.817 1.513,-1.153 0.346,-0.213 0.694,-0.213 1.042,-0.023 10.463,5.871 20.479,11.898 30.036,18.082 0.258,0.169 0.268,0.348 0.022,0.55 -5.523,4.358 -11.405,8.379 -16.872,12.704 -17.086,13.534 -32.412,26.194 -45.969,37.98 -5.59,4.862 -11.303,9.725 -17.13,14.587 -8.099,6.767 -12.458,10.419 -13.096,10.946 m 127.136,41.296 c -7.909,-0.975 -13.712,-2.051 -18.967,-8.986 -1.782,-2.33 -3.563,-4.738 -5.355,-7.214 -0.213,-0.292 -0.179,-0.539 0.101,-0.762 l 17.275,-14.128 c 0.28,-0.235 0.696,-0.213 0.953,0.045 2.241,2.173 3.966,4.616 5.176,7.316 0.873,1.96 0.717,4.369 0.774,6.52 0.123,4.929 2.946,9.579 6.408,13.108 0.582,0.594 0.94,1.266 1.075,2.028 0.067,0.325 -0.012,0.616 -0.246,0.873 -1.625,1.827 -5.075,1.457 -7.194,1.2 m 18.733,3.304 c 2.688,-6.184 -0.235,-12.357 -4.661,-17.051 -0.403,-0.426 -0.314,-0.605 0.28,-0.538 3.306,0.381 6.711,0.807 10.106,0.998 2.409,0.134 4.683,0.425 6.812,0.884 0.437,0.09 0.649,0.37 0.649,0.807 0.045,5.075 -0.112,9.87 -0.459,14.374 -0.292,3.753 -0.437,7.428 -0.65,11.215 -0.011,0.325 -0.291,0.571 -0.616,0.549 h -0.045 c -1.848,-0.269 -3.663,-0.168 -5.434,-0.818 -3.753,-1.378 -7.483,-2.655 -11.191,-3.82 -0.124,-0.034 -0.202,-0.168 -0.157,-0.303 0.01,-0.045 0.045,-0.09 0.1,-0.123 2.42,-1.602 4.179,-3.664 5.266,-6.174 m -176.623,8.19 c -1.882,4.179 -5.019,4.75 -8.985,2.891 -4.38,-2.05 -4.593,-7.91 -0.112,-9.893 2.633,-1.188 5.064,-1.087 7.282,0.28 2.398,1.479 4.179,3.272 2.902,6.308 -0.056,0.123 -0.134,0.213 -0.258,0.28 -0.089,0.044 -0.179,0.044 -0.268,-0.022 -0.247,-0.169 -0.437,-0.124 -0.561,0.156 m 165.969,8.649 c 4.592,1.647 8.795,3.093 12.626,4.336 2.89,0.941 5.814,1.502 8.795,1.67 0.369,0.022 0.661,0.336 0.649,0.705 l -0.471,14.262 c -0.021,0.493 -0.268,0.706 -0.761,0.628 l -36.635,-5.692 c -0.381,-0.056 -0.639,-0.414 -0.583,-0.795 0,-0.022 0.011,-0.045 0.011,-0.067 l 4.257,-16.548 c 0.135,-0.527 0.628,-0.874 1.165,-0.84 3.753,0.291 7.407,1.064 10.947,2.341 m -84.541,9.534 c -2.612,3.194 -5.065,7.103 -6.42,10.901 -1.368,3.821 -2.756,7.63 -4.191,11.439 -0.559,1.479 -1.343,2.868 -2.352,4.19 -0.359,0.448 -0.986,0.594 -1.501,0.337 l -30.81,-15.674 c -0.381,-0.191 -0.571,-0.628 -0.46,-1.031 l 1.838,-6.935 c 0.09,-0.336 -0.078,-0.694 -0.392,-0.851 l -9.075,-4.627 c -0.527,-0.269 -1.176,-0.18 -1.624,0.212 -1.009,0.863 -2.163,1.266 -3.473,1.222 -5.86,-0.202 -11.349,-5.31 -11.125,-11.417 0.123,-3.148 5.579,-5.31 7.943,-5.713 1.781,-0.303 3.551,-0.661 5.299,-1.065 0.504,-0.123 1.042,-0.089 1.535,0.079 5.444,1.848 11.013,3.764 16.682,5.747 4.806,1.669 10.206,3.462 16.2,5.378 7.316,2.352 14.576,4.761 21.768,7.237 0.314,0.123 0.37,0.303 0.158,0.571 m -16.884,48.063 c -4.011,1.95 -7.529,3.798 -10.554,5.558 -6.431,3.708 -13.186,7.752 -20.256,12.11 -1.367,0.829 -3.831,-0.605 -5.12,-1.243 -18.721,-9.322 -38.742,-18.396 -57.104,-29.253 -0.202,-0.112 -0.313,-0.347 -0.291,-0.571 0.974,-9.534 2.061,-19.191 3.271,-28.972 0.953,-7.674 -2.722,-11.114 -7.876,-15.506 -0.56,-0.47 -0.504,-0.548 0.157,-0.235 23.068,11.181 45.979,22.642 68.756,34.383 4.761,2.465 9.848,4.997 15.259,7.619 10.061,4.862 20.39,9.993 31,15.404 0.022,0.012 0.033,0.023 0.045,0.023 0.045,0 0.056,-0.011 0.033,-0.056 -0.012,0 -0.022,-0.012 -0.045,-0.023 -2.958,-1.12 -6.801,-3.248 -10.027,-2.207 -2.218,0.706 -4.638,1.692 -7.248,2.969 m 38.931,-163.189 -2.845,0.571 c -0.302,0.056 -0.369,-0.045 -0.201,-0.291 0.559,-0.807 1.321,-1.344 2.319,-1.625 10.194,-8.402 20.715,-16.424 31.526,-24.076 2.891,-2.039 4.593,-3.585 5.142,-4.627 1.39,-2.689 0.986,-5.187 -1.21,-7.529 -0.257,-0.268 -0.246,-0.526 0.022,-0.773 6.846,-6.274 14.587,-12.581 23.214,-18.945 0.93,-0.683 1.905,-1.255 2.924,-1.714 3.709,-1.669 7.585,-3.271 11.63,-4.795 1.837,-0.683 3.394,-2.196 5.287,-2.353 5.826,-0.526 11.495,-0.492 17.276,-0.941 5.109,-0.392 10.117,-0.829 15.013,-1.277 0.448,-0.044 0.492,0.067 0.123,0.336 -12.581,8.896 -23.046,19.203 -31.392,30.922 -3.496,4.896 -7.383,12.122 -11.652,21.645 -2.24,5.008 -3.775,10.598 -4.795,16.01 -0.974,5.176 0.516,11.158 6.42,12.099 2.028,0.336 4.492,0.068 7.406,-0.795 4.784,-1.401 9.13,-3.081 13.029,-5.042 6.543,-3.282 12.514,-6.352 18.743,-10.788 3.888,-2.768 7.72,-5.625 11.507,-8.56 8.032,-6.241 14.833,-13.59 21.286,-21.41 l 0.784,-1.143 c 0.27,-0.414 0.37,-0.369 0.303,0.113 l -0.157,1.175 c -0.179,18.318 1.188,36.02 7.025,53.587 1.344,4.044 3.17,8.492 7.068,10.352 7.272,3.473 11.641,-5.377 13.658,-10.565 7.372,-18.889 9.466,-41.262 4.593,-61.417 -1.49,-6.207 -3.204,-11.977 -5.12,-17.321 -0.941,-2.621 -2.409,-5.523 -4.414,-8.727 -0.258,-0.404 -0.145,-0.639 0.325,-0.706 6.453,-0.908 11.707,-4.112 15.763,-9.624 0.168,-0.235 0.403,-0.348 0.684,-0.348 3.148,0.045 5.826,-0.178 8.044,-0.694 14.273,-3.282 28.143,-5.871 41.823,-8.873 16.995,-3.72 33.218,-7.293 48.656,-10.71 7.843,-1.737 15.158,-3.417 21.947,-5.042 11.092,-2.655 22.172,-5.008 33.107,-8.224 10.43,-3.058 21.006,-5.893 31.37,-9.422 1.333,-0.615 2.655,-0.918 3.966,-0.918 2.352,5.59 6.374,11.293 11.954,14.138 3.528,1.805 6.766,2.835 9.724,3.071 2.353,0.19 5.322,-0.101 8.907,-0.897 9.758,-2.14 18.464,-9.635 20.155,-19.684 0.649,-3.821 0.75,-7.675 0.336,-11.551 -0.045,-0.404 0.135,-0.661 0.538,-0.751 5.534,-1.232 11.125,-2.084 16.503,-3.462 4.66,-1.187 9.231,-2.061 13.713,-2.621 3.876,-0.493 6.273,-2.521 6.924,-6.476 0.078,-0.492 -0.124,-0.807 -0.606,-0.952 l -0.594,-0.179 c -0.391,-0.112 -0.38,-0.225 0.011,-0.314 6.095,-1.423 12.123,-2.835 18.094,-4.224 2.7,-0.627 5.366,-1.188 8.021,-1.669 6.757,-1.221 13.109,-3.182 19.876,-4.347 4.37,-0.763 8.436,-1.434 12.178,-2.016 0.616,-0.09 1.075,-0.606 1.109,-1.233 0.124,-2.688 -0.974,-4.538 -3.305,-5.557 -0.279,-0.124 -1.075,-0.325 -2.386,-0.605 -0.841,-0.18 -1.625,-0.448 -2.342,-0.807 -0.694,-0.033 -1.232,-0.247 -1.602,-0.649 -0.224,-0.235 -0.212,-0.46 0.034,-0.661 0.303,-0.28 0.751,-0.46 1.355,-0.549 7.014,-2.039 14.027,-4.09 21.04,-6.129 10.902,-3.182 22.082,-4.616 32.95,-8.179 2.073,-0.671 6.811,-0.839 7.271,-4.178 0.493,-3.54 -1.054,-5.669 -4.627,-6.398 -6.162,-1.243 -12.38,-2.587 -18.642,-4.033 -5.524,-1.276 -11.17,-2.285 -16.559,-3.618 -6.397,-1.591 -13.131,-2.364 -19.573,-3.003 -0.537,-0.056 -0.56,-0.179 -0.056,-0.392 2.521,-1.042 4.897,-1.905 7.126,-2.588 22.093,-6.745 43.76,-15.349 65.663,-22.429 28.188,-9.098 50.449,-16.088 77.248,-23.337 24.233,-6.543 48.321,-13.59 72.665,-20.144 17.388,-4.694 34.495,-9.882 52.13,-14.732 5.86,-1.613 11.707,-3.529 17.556,-5.726 6.789,-2.543 12.492,-6.598 19.224,-8.973 0.069,-0.035 0.102,-0.078 0.08,-0.146 v -0.012 c -0.034,-0.078 -0.09,-0.111 -0.18,-0.088 -1.366,0.369 -2.655,0.582 -3.876,0.627 -6.062,0.268 -12.358,0.044 -18.43,1.03 -7.641,1.255 -15.08,2.935 -22.821,4.1 -14.049,2.129 -27.516,4.661 -41.442,6.521 -21.062,2.812 -37.241,5.142 -48.544,7.002 -21.668,3.563 -43.088,6.935 -64.263,10.129 -4.852,0.739 -10.128,0.884 -14.767,1.691 -27.605,4.818 -53.799,9.153 -78.581,13.029 -4.324,0.673 -8.537,1.39 -12.66,2.141 -5.624,1.03 -11.405,1.859 -16.883,2.856 -17.018,3.092 -35.391,6.465 -55.098,10.117 -1.356,0.247 -2.768,0.37 -4.213,0.37 -0.291,0 -0.549,-0.09 -0.784,-0.258 -7.641,-5.949 -15.775,-1.837 -23.64,0.975 -0.168,0.055 -0.359,-0.034 -0.414,-0.202 -0.023,-0.067 -0.023,-0.145 0,-0.212 7.45,-19.136 8.291,-38.698 2.532,-58.685 -1.187,-4.1 -2.98,-8.771 -5.4,-14.015 -3.305,-7.193 -6.779,-12.817 -10.42,-16.895 -3.203,-3.585 -6.319,-7.316 -9.881,-10.52 -4.571,-4.1 -8.75,-8.257 -14.061,-11.45 C 138.094,36.108 131.181,31.627 123.81,28.456 109.962,22.519 94.949,18.272 80.205,15.349 73.562,14.026 70.212,13.365 70.145,13.354 63.702,11.987 56.779,10.486 50.27,9.623 42.764,8.615 34.831,7.596 26.474,6.576 20.984,5.893 15.404,5.96 9.813,5.803 9.522,5.792 9.287,5.545 9.299,5.254 c 0,-0.123 0.045,-0.246 0.123,-0.336 1.949,-2.285 3.865,-4.571 5.759,-6.846 2.139,-2.588 4.223,-5.937 6.273,-10.06 1.804,-3.641 1.894,-8.179 -2.442,-9.949 -3.327,-1.367 -7.07,-2.89 -10.497,-0.986 -14.464,8.056 -27.37,17.276 -38.731,27.673 -0.415,0.381 -0.941,0.616 -1.513,0.661 -8.122,0.672 -15.841,1.524 -23.134,2.555 -0.325,0.044 -0.628,-0.192 -0.672,-0.516 -0.012,-0.146 0.011,-0.28 0.089,-0.403 6.039,-9.143 11.987,-19.001 15.786,-29.186 1.042,-2.789 1.512,-6.049 1.433,-9.78 -0.089,-3.462 -3.148,-5.053 -6.295,-4.224 -1.827,0.494 -3.417,1.311 -4.74,2.465 -4.705,4.067 -9.422,8.503 -14.15,13.299 -10.867,11.035 -20.916,22.081 -30.149,33.139 -0.503,0.605 -1.175,0.975 -2.039,1.098 -3.797,0.549 -7.461,1.132 -10.967,1.747 -27.718,4.83 -54.898,10.779 -81.539,17.86 -15.607,4.144 -31.942,8.548 -48.993,13.208 -4.347,1.177 -8.873,2.51 -13.556,3.977 -0.538,0.168 -1.12,-0.022 -1.456,-0.481 -5.143,-7.036 -10.845,-13.758 -17.13,-20.189 -1.525,-1.58 -3.194,-2.902 -4.987,-3.977 -4.727,-2.868 -10.497,-0.258 -11.293,5.221 -0.436,3.013 -0.369,6.733 0.225,11.17 0.852,6.486 2.095,12.177 3.731,17.085 0.1,0.28 0,0.47 -0.291,0.571 l -8.953,2.757 c -0.313,0.1 -0.571,0.021 -0.784,-0.225 -4.705,-5.646 -9.534,-10.99 -14.474,-16.043 -3.317,-3.394 -6.611,-6.264 -9.87,-8.594 -6.7,-4.795 -13.938,-0.246 -13.277,7.765 0.773,9.467 3.44,18.205 7.529,26.697 0.179,0.36 0.067,0.606 -0.314,0.729 -10.139,3.339 -20.155,6.643 -30.059,9.915 -5.007,1.658 -10.419,3.226 -16.234,4.739 -13.656,3.528 -22.966,5.803 -27.918,6.834 -12.167,2.51 -24.323,4.425 -36.445,5.736 -11.977,1.288 -25.085,1.524 -37.319,-0.168 -4.548,-0.628 -8.929,-0.885 -13.332,-1.905 -10.296,-2.386 -20.346,-5.59 -29.499,-10.855 -8.089,-4.672 -12.312,-11.786 -12.649,-21.355 -0.224,-6.475 1.255,-11.259 5.479,-16.178 5.994,-6.979 14.665,-11.673 24.054,-12.435 6.812,-0.549 17.623,-1.12 22.373,4.112 1.681,1.837 3.44,3.361 5.299,4.582 2.824,1.848 6.487,0.56 7.451,-2.7 0.515,-1.781 0.347,-3.462 -0.538,-5.03 -2.857,-5.12 -8.604,-9.692 -14.509,-11.53 -4.145,-1.309 -8.234,-1.982 -12.267,-2.015 -5.983,-0.068 -12.582,0.325 -18.251,2.106 -15.651,4.929 -30.798,17.937 -31.235,35.29 -0.045,1.367 -0.191,2.723 -0.437,4.056 -0.303,1.647 -0.784,3.271 -0.639,4.986 0.236,2.902 1.244,6.038 3.036,9.4 9.053,16.962 25.612,26.216 42.798,33.397 21.522,8.974 43.794,8.896 67.814,9.512 7.294,0.18 15.416,-0.549 23.035,-1.065 5.658,-0.38 10.956,-1.019 15.897,-1.926 3.518,-0.651 8.705,-1.861 15.551,-3.642 6.89,-1.792 13.791,-3.495 20.726,-5.108 4.213,-0.975 8.257,-2.275 12.402,-3.35 2.073,-0.527 4.056,-1.109 5.927,-1.748 4.078,-1.355 8.19,-2.297 12.335,-3.35 1.949,-0.504 4.605,-1.344 7.943,-2.509 2.723,-0.964 5.389,-1.748 8.011,-2.375 l 4.929,7.539 c 6.857,9.4 14.643,17.925 23.337,25.578 0.224,0.19 0.202,0.336 -0.067,0.448 -12.884,5.356 -25.22,11.607 -37.005,18.777 -5.311,3.227 -10.733,6.991 -16.279,11.315 -3.182,2.487 -5.702,5.39 -7.551,8.694 -0.145,0.258 -0.437,0.404 -0.74,0.359 -5.657,-0.918 -11.248,-1.58 -16.782,-1.983 -2.611,-0.202 -4.908,-0.874 -7.473,-1.3 -19.774,-3.305 -39.145,-5.937 -58.124,-7.921 -6.945,-0.728 -12.996,-0.795 -18.149,-0.202 -1.815,0.213 -3.686,0.807 -5.613,1.816 -0.414,0.213 -0.896,0.223 -1.311,0.045 -2.935,-1.289 -5.826,-2.622 -8.84,-3.687 -9.41,-3.305 -18.833,-6.609 -28.254,-9.903 -2.454,-0.862 -8.067,-2.532 -16.861,-5.03 -7.07,-2.006 -14.308,-3.227 -21.702,-3.642 -0.28,-0.023 -0.459,-0.168 -0.549,-0.437 -0.896,-2.98 -2.487,-5.355 -4.75,-7.126 -15.595,-12.2 -31.246,-24.557 -46.931,-37.094 -0.336,-0.269 -0.403,-0.75 -0.157,-1.109 5.501,-7.652 10.677,-15.393 15.528,-23.247 8.47,-13.669 14.15,-27.941 17.029,-42.808 1.434,-7.406 2.297,-17.03 2.599,-28.849 0.123,-4.852 0.022,-10.61 -0.291,-17.254 -0.717,-15.383 -1.434,-28.333 -2.151,-38.853 -0.795,-11.619 -2.005,-24.838 -3.652,-39.671 -0.706,-6.465 -6.342,-8.672 -11.327,-4.639 -2.14,1.748 -4.078,3.81 -5.815,6.195 -5.164,7.092 -9.399,13.836 -12.716,20.234 -16.278,31.459 -27.269,64.677 -32.971,99.643 0.033,1.3 -0.146,2.544 -0.516,3.732 -0.089,0.279 -0.19,0.291 -0.302,0.01 -0.572,-1.377 -0.896,-2.755 -0.975,-4.156 -3.574,-12.055 -6.162,-20.379 -7.764,-24.962 -2.723,-7.774 -6.587,-16.67 -11.584,-26.697 -5.333,-10.666 -12.414,-21.197 -21.253,-31.605 -6.117,-7.215 -11.798,-13.422 -17.029,-18.631 -14.24,-14.161 -29.712,-28.883 -46.45,-44.164 -0.728,-0.684 -1.681,-1.11 -2.857,-1.3 -4.739,-0.774 -7.495,3.753 -7.842,8.011 -0.292,3.64 -0.236,7.304 0.145,11.012 1.815,17.556 4.18,34.194 7.115,49.946 2.957,15.807 7.45,33.084 13.477,51.827 0.986,3.024 2.891,8.144 5.736,15.348 10.364,26.306 25.264,51.312 46.248,69.831 9.579,8.448 20.2,14.79 31.863,19.012 0.672,0.247 1.199,0.796 1.411,1.48 6.936,22.418 15.081,44.802 24.435,67.153 2.969,7.092 6.162,13.882 9.557,20.357 2.868,5.467 6.778,11.786 12.133,14.643 0.291,0.145 0.46,0.448 0.426,0.762 -0.605,5.982 2.644,9.937 6.711,13.657 14.911,13.601 30.865,25.544 46.539,37.867 5.086,4 10.15,7.663 15.18,10.98 0.606,0.392 1.413,1.501 2.454,3.327 0.695,1.232 2.308,2.7 4.818,4.391 13.208,8.896 28.143,16.93 44.769,24.111 9.444,4.067 17.354,7.103 23.717,9.097 0.337,0.101 0.382,0.28 0.124,0.527 -4.549,4.335 -7.462,9.623 -8.75,15.852 -0.09,0.437 -0.28,0.482 -0.55,0.135 -5.276,-6.644 -11.875,-12.044 -20.322,-13.792 -3.742,-0.773 -7.204,-1.075 -10.375,-0.918 -8.727,0.437 -17.511,1.961 -26.081,3.641 -3.641,0.717 -7.372,1.098 -11.181,1.12 -4,0.034 -7.765,-0.201 -11.305,-0.683 -0.258,-0.045 -0.381,0.067 -0.369,0.347 l 1.142,27.281 c 0.012,0.134 0.124,0.235 0.258,0.246 3.294,0.067 6.543,-0.246 9.77,-0.93 16.682,-3.529 27.706,-5.714 33.05,-6.554 3.002,-0.46 6.509,-0.067 10.542,1.176 0.919,-0.067 1.703,0.101 2.33,0.482 0.314,0.202 0.292,0.336 -0.078,0.426 l -2.521,0.515 c -5.837,1.927 -11.629,3.821 -17.242,6.442 -11.271,5.288 -22.732,9.703 -34.999,10.856 -0.371,0.034 -0.55,0.236 -0.527,0.605 l 1.109,25.948 c 0.011,0.358 0.191,0.503 0.538,0.437 10.206,-1.872 19.528,-5.244 28.602,-9.882 5.154,-2.633 10.655,-5.467 16.492,-8.514 10.71,-5.569 21.958,-8.65 34.002,-7.81 0.37,0.023 0.673,0.281 0.773,0.639 2.734,10.296 7.619,20.211 12.952,29.723 9.007,16.077 18.53,32.983 28.557,50.752 2.801,4.951 5.848,9.847 9.12,14.687 0.157,0.224 0.123,0.258 -0.101,0.101 -5.904,-4.134 -11.562,-8.391 -16.973,-12.738 -2.834,-2.274 -5.949,-5.367 -8.997,-7.943 -2.913,-2.443 -6.375,-3.866 -9.478,-1.3 -2.991,2.476 -2.454,6.857 0.202,9.411 6.991,6.744 14.083,12.604 21.286,17.589 0.415,0.281 0.37,0.404 -0.134,0.37 -8.582,-0.582 -16.57,-1.143 -23.964,-1.68 -3.507,-0.247 -6.296,-0.303 -8.369,-0.157 -5.669,0.38 -7.966,7.36 -3.193,10.665 1.445,0.998 3.226,1.535 5.344,1.625 4.335,0.168 8.593,0.403 12.794,0.717 9.445,0.706 19.674,1.356 30.675,1.949 0.146,0.011 0.146,0.034 0.012,0.068 -4.964,1.456 -7.462,6.878 -4.392,11.293 5.355,7.685 17.656,1.042 12.962,-7.507 -0.179,-0.313 -0.09,-0.414 0.247,-0.28 l 19.303,7.204 c 0.359,0.134 0.381,0.303 0.067,0.515 -3.741,2.476 -7.103,5.255 -10.083,8.313 -0.896,0.919 -1.635,2.129 -2.151,3.317 -0.156,0.347 -0.403,0.437 -0.739,0.28 -14.218,-6.689 -27.942,-13.366 -41.184,-20.032 -2.835,-1.434 -6.633,-2.398 -8.884,0.515 -4.527,5.86 3.304,9.691 6.699,12.918 3.137,2.991 6.263,6.028 9.59,8.795 8.257,6.867 16.436,13.69 24.536,20.468 0.963,0.796 1.344,1.748 1.165,2.857 -1.031,6.229 -1.96,13.781 -2.778,22.654 -0.191,1.983 -0.718,3.82 -1.602,5.523 -2.275,4.414 2.363,10.486 5.915,12.615 8.391,5.053 17.5,10.016 27.314,14.901 10.498,5.22 20.648,10.239 30.451,15.068 3.406,1.681 8.817,4.448 12.604,3.72 2.117,-0.404 4.492,-1.423 7.125,-3.048 10.476,-6.498 20.413,-12.962 31.493,-17.858 0.404,-0.179 0.863,-0.19 1.266,-0.022 2.084,0.862 4.201,1.59 6.363,2.207 15.954,4.481 30.855,8.492 44.713,12.032 2.522,0.65 4.93,1.155 7.204,1.524 2.566,0.404 5.21,-1.098 6.062,-3.63 1.411,-4.235 -1.793,-7.013 -5.221,-8.761 -17.041,-8.739 -35.112,-18.217 -54.18,-28.423 -0.247,-0.135 -0.291,-0.325 -0.134,-0.56 1.12,-1.614 2.005,-3.249 2.666,-4.908 1.591,-4.01 3.271,-8.201 5.03,-12.57 1.087,-2.711 2.645,-5.098 4.684,-7.181 1.982,-2.028 4.671,-3.204 7.114,-4.684 3.562,-2.139 3.461,-4.906 3.808,-9.343 0.886,-11.271 1.39,-19.393 1.525,-24.356 0.279,-10.778 0.638,-21.388 1.063,-31.807 0.045,-1.165 0.516,-1.367 1.401,-0.616 3.944,3.338 7.484,7.069 10.61,11.203 0.65,0.852 1.02,1.86 1.131,3.025 0.258,2.599 1.435,5.3 3.519,8.089 2.385,3.193 4.727,6.397 7.069,9.624 3.876,5.31 8.795,9.164 14.755,11.528 0.336,0.124 0.436,0.359 0.313,0.684 -0.313,0.795 -0.784,1.501 -0.974,2.341 -1.603,6.868 -3.53,14.094 -5.792,21.69 -1.446,4.896 -0.953,9.008 3.876,11.315 2.286,1.099 4.839,1.883 7.629,2.353 12.391,2.084 25.32,4.011 38.797,5.804 1.951,0.257 3.754,1.042 5.759,0.941 4.516,-0.19 5.871,-4.101 5.904,-8.246 0.012,-2.106 0.09,-4.224 0.236,-6.352 1.031,-15.304 1.58,-28.513 1.636,-39.627 0.011,-3.014 0.706,-6.027 0.795,-9.063 0.134,-4.101 -0.034,-7.462 -0.493,-10.072 -0.571,-3.261 -2.431,-5.233 -5.556,-5.916 -2.186,-0.481 -4.762,0 -7.081,-0.246 -6.083,-0.672 -12.112,-1.222 -18.094,-1.625 -0.291,-0.022 -0.504,-0.157 -0.65,-0.415 -2.33,-4.369 -5.142,-8.413 -8.424,-12.144 -0.191,-0.224 -0.191,-0.571 0.022,-0.784 4.996,-5.322 4.268,-9.68 0.672,-15.517 -5.254,-8.526 -11.607,-15.662 -19.068,-21.41 -9.12,-7.013 -19.573,-10.116 -31.371,-9.298 -2.721,0.19 -5.433,0.381 -8.167,0.571"
         style="fill:#f03c4e;fill-opacity:1;fill-rule:nonzero;stroke:none"
         transform="matrix(0.35277776,0,0,-0.35277776,115.33087,-59.880227)"
         clip-path="url(#clipPath4)" />
      <path
         id="path5"
         d="m 0,0 c 2.05,-3.271 0.862,-7.708 -2.645,-9.915 -3.517,-2.207 -8.032,-1.334 -10.083,1.927 -2.049,3.271 -0.862,7.719 2.656,9.915 C -6.565,4.134 -2.05,3.271 0,0"
         style="fill:#f03c4e;fill-opacity:1;fill-rule:nonzero;stroke:none"
         transform="matrix(0.35277776,0,0,-0.35277776,43.596761,-257.96099)"
         clip-path="url(#clipPath6)" />
      <path
         id="path7"
         d="m 0,0 c 0,-4.011 -3.249,-7.26 -7.26,-7.26 -4,0 -7.249,3.249 -7.249,7.26 0,4.01 3.249,7.259 7.249,7.259 C -3.249,7.259 0,4.01 0,0"
         style="fill:#f03c4e;fill-opacity:1;fill-rule:nonzero;stroke:none"
         transform="matrix(0.35277776,0,0,-0.35277776,33.65319,-252.05472)"
         clip-path="url(#clipPath8)" />
      <path
         id="path9"
         d="m 0,0 c -1.736,-3.182 -5.882,-4.269 -9.266,-2.42 -3.382,1.837 -4.715,5.916 -2.979,9.097 1.736,3.182 5.882,4.269 9.265,2.42 C 0.403,7.26 1.737,3.182 0,0"
         style="fill:#f03c4e;fill-opacity:1;fill-rule:nonzero;stroke:none"
         transform="matrix(0.35277776,0,0,-0.35277776,20.787841,-243.66538)"
         clip-path="url(#clipPath10)" />
      <path
         id="path11"
         d="m 0,0 c -5.153,1.602 -10.161,2.51 -15.035,2.722 -3.249,0.134 -6.89,-0.212 -10.923,-1.019 -8.179,-1.658 -15.864,-5.647 -23.057,-11.966 -2.543,-2.229 -5.109,-4.694 -7.697,-7.371 -1.949,-2.028 -5.567,-3.406 -7.461,-0.572 -1.064,1.591 -1.142,3.305 -0.258,5.154 1.12,2.353 2.443,4.784 3.966,7.305 4.414,7.338 6.857,14.833 7.305,22.496 0.493,8.145 0.067,15.382 -3.495,22.654 -2.7,5.512 -5.681,10.25 -8.918,14.194 -1.222,1.49 -3.933,4.549 -8.123,9.176 -1.894,2.083 -1.602,5.725 1.142,7.036 1.558,0.75 3.183,0.683 4.852,-0.202 7.394,-3.91 14.341,-6.117 20.86,-6.61 15.909,-1.187 30.216,1.389 42.932,7.742 3.832,1.915 8.448,4.862 13.848,8.839 0.761,0.571 1.792,1.075 3.081,1.524 2.554,0.885 5.097,-0.695 6.139,-3.048 0.751,-1.68 -0.37,-3.977 -1.322,-5.388 C 10.229,61.361 6.633,48.97 7.069,35.493 7.384,25.645 10.05,16.839 15.068,9.086 17.31,5.646 19.797,2.039 22.564,-1.726 24.099,-3.81 24.121,-5.893 22.608,-8 21.253,-9.881 17.063,-9.288 15.461,-8.526 14.038,-7.854 12.627,-6.991 11.204,-5.927 7.843,-3.383 4.156,-1.3 0,0"
         style="fill:#f03d4d;fill-opacity:1;fill-rule:nonzero;stroke:none"
         transform="matrix(0.35277776,0,0,-0.35277776,78.059798,-261.95797)"
         clip-path="url(#clipPath12)" />
      <path
         id="path15"
         d="m 0,0 c -0.919,2.095 -0.27,3.798 0.604,5.725 0.381,0.829 0.852,1.59 1.423,2.308 7.406,9.231 8.863,19.303 4.369,30.215 -1.075,2.6 -2.957,4.874 -4.447,7.316 -1.109,1.826 -1.132,3.552 -0.067,5.199 1.815,2.8 4.963,2.98 7.764,1.613 5.333,-2.633 11.584,-2.252 17.298,-1.938 2.33,0.123 4.806,0.784 7.406,1.972 4.795,2.184 9.858,5.153 15.191,8.895 0.975,0.695 2.096,1.042 3.35,1.042 0.292,0 0.538,-0.101 0.74,-0.314 1.568,-1.624 3.17,-3.349 2.723,-5.837 C 56.174,55.21 55.815,54.292 55.277,53.452 53.104,50.045 51.681,46.382 51.021,42.45 49.082,31.011 49.407,20.692 54.74,10.117 55.232,9.142 56.185,7.058 55.961,6.005 55.21,2.419 51.412,1.456 48.499,3.293 47.278,4.066 46.068,4.75 44.858,5.355 39.996,7.764 34.372,7.797 28.826,7.663 21.645,7.506 13.242,3.361 7.719,-0.594 5.825,-1.95 1.232,-2.801 0,0"
         style="fill:#f03d4d;fill-opacity:1;fill-rule:nonzero;stroke:none"
         transform="matrix(0.35277776,0,0,-0.35277776,73.582871,-233.2052)"
         clip-path="url(#clipPath16)" />
      <path
         id="path23"
         d="m 0,0 c -1.404,3.208 1.033,5.844 -2.074,7.907 -0.144,0.086 -0.172,4.945 -0.086,5.088 0.042,0.057 0.099,0.1 0.171,0.129 4.742,1.489 9.511,3.108 14.296,4.87 2.278,0.831 4.584,0.716 6.962,1.046 0.401,0.057 0.788,-0.229 0.844,-0.63 v -0.058 c 0.273,-4.855 0.459,-9.554 0.831,-14.338 0.445,-5.773 0.646,-11.889 0.588,-18.379 0,-0.573 -0.272,-0.916 -0.845,-1.045 -2.722,-0.573 -5.616,-0.96 -8.709,-1.132 -4.341,-0.244 -8.696,-0.773 -12.921,-1.26 -0.744,-0.101 -0.86,4.801 -0.344,5.36 5.658,6.002 9.383,9.208 5.96,17.115"
         style="fill:#f03d4d;fill-opacity:1;fill-rule:nonzero;stroke:none"
         transform="matrix(0.35277776,0,0,-0.35277776,56.754278,-231.14057)"
         clip-path="url(#clipPath24)" />
      <path
         id="path51"
         d="M 0,0 C 1.456,0.269 2.565,-0.718 3.966,-0.919 2.655,-0.919 1.333,-0.616 0,0"
         style="fill:#ebe51b;fill-opacity:1;fill-rule:nonzero;stroke:none"
         transform="matrix(0.35277776,0,0,-0.35277776,162.17693,-158.29041)"
         clip-path="url(#clipPath52)" />
      <path
         id="path93"
         d="m 0,0 c -0.751,0.056 -1.345,-0.09 -1.804,-0.415 0.078,1.4 0.414,2.79 0.986,4.157 0.112,0.279 0.213,0.269 0.302,-0.012 C -0.146,2.543 0.033,1.3 0,0"
         style="fill:#ebe51b;fill-opacity:1;fill-rule:nonzero;stroke:none"
         transform="matrix(0.35277776,0,0,-0.35277776,-98.393683,-68.503633)"
         clip-path="url(#clipPath94)" />
    </g>
  </g>
</svg>
