<?xml version="1.0" encoding="UTF-8"?>
<svg version="1.1" xmlns="http://www.w3.org/2000/svg" width="492" height="492">
<path d="M0 0 C162.36 0 324.72 0 492 0 C492 162.36 492 324.72 492 492 C329.64 492 167.28 492 0 492 C0 329.64 0 167.28 0 0 Z " fill="#FFFFFF" transform="translate(0,0)"/>
<path d="M0 0 C3.96 0 7.92 0 12 0 C12 3.96 12 7.92 12 12 C15.96 12 19.92 12 24 12 C24 8.04 24 4.08 24 0 C35.88 0 47.76 0 60 0 C60 7.92 60 15.84 60 24 C63.96 24 67.92 24 72 24 C72 20.04 72 16.08 72 12 C75.96 12 79.92 12 84 12 C84 15.96 84 19.92 84 24 C91.92 24 99.84 24 108 24 C108 27.96 108 31.92 108 36 C104.04 36 100.08 36 96 36 C96 39.96 96 43.92 96 48 C99.96 48 103.92 48 108 48 C108 51.96 108 55.92 108 60 C111.96 60 115.92 60 120 60 C120 48.12 120 36.24 120 24 C131.88 24 143.76 24 156 24 C156 27.96 156 31.92 156 36 C152.04 36 148.08 36 144 36 C144 39.96 144 43.92 144 48 C140.04 48 136.08 48 132 48 C132 59.88 132 71.76 132 84 C135.96 84 139.92 84 144 84 C144 87.96 144 91.92 144 96 C140.04 96 136.08 96 132 96 C132 99.96 132 103.92 132 108 C147.84 108 163.68 108 180 108 C180 104.04 180 100.08 180 96 C183.96 96 187.92 96 192 96 C192 107.88 192 119.76 192 132 C195.96 132 199.92 132 204 132 C204 135.96 204 139.92 204 144 C207.96 144 211.92 144 216 144 C216 140.04 216 136.08 216 132 C219.96 132 223.92 132 228 132 C228 128.04 228 124.08 228 120 C224.04 120 220.08 120 216 120 C216 112.08 216 104.16 216 96 C219.96 96 223.92 96 228 96 C228 99.96 228 103.92 228 108 C231.96 108 235.92 108 240 108 C240 111.96 240 115.92 240 120 C243.96 120 247.92 120 252 120 C252 112.08 252 104.16 252 96 C255.96 96 259.92 96 264 96 C264 99.96 264 103.92 264 108 C267.96 108 271.92 108 276 108 C276 104.04 276 100.08 276 96 C283.92 96 291.84 96 300 96 C300 107.88 300 119.76 300 132 C296.04 132 292.08 132 288 132 C288 143.88 288 155.76 288 168 C284.04 168 280.08 168 276 168 C276 179.88 276 191.76 276 204 C272.04 204 268.08 204 264 204 C264 207.96 264 211.92 264 216 C260.04 216 256.08 216 252 216 C252 223.92 252 231.84 252 240 C259.92 240 267.84 240 276 240 C276 247.92 276 255.84 276 264 C279.96 264 283.92 264 288 264 C288 256.08 288 248.16 288 240 C291.96 240 295.92 240 300 240 C300 251.88 300 263.76 300 276 C288.12 276 276.24 276 264 276 C264 279.96 264 283.92 264 288 C260.04 288 256.08 288 252 288 C252 291.96 252 295.92 252 300 C255.96 300 259.92 300 264 300 C264 303.96 264 307.92 264 312 C260.04 312 256.08 312 252 312 C252 315.96 252 319.92 252 324 C263.88 324 275.76 324 288 324 C288 327.96 288 331.92 288 336 C291.96 336 295.92 336 300 336 C300 343.92 300 351.84 300 360 C296.04 360 292.08 360 288 360 C288 356.04 288 352.08 288 348 C280.08 348 272.16 348 264 348 C264 351.96 264 355.92 264 360 C260.04 360 256.08 360 252 360 C252 356.04 252 352.08 252 348 C248.04 348 244.08 348 240 348 C240 355.92 240 363.84 240 372 C243.96 372 247.92 372 252 372 C252 379.92 252 387.84 252 396 C248.04 396 244.08 396 240 396 C240 392.04 240 388.08 240 384 C232.08 384 224.16 384 216 384 C216 387.96 216 391.92 216 396 C212.04 396 208.08 396 204 396 C204 392.04 204 388.08 204 384 C200.04 384 196.08 384 192 384 C192 387.96 192 391.92 192 396 C188.04 396 184.08 396 180 396 C180 392.04 180 388.08 180 384 C176.04 384 172.08 384 168 384 C168 380.04 168 376.08 168 372 C160.08 372 152.16 372 144 372 C144 375.96 144 379.92 144 384 C136.08 384 128.16 384 120 384 C120 387.96 120 391.92 120 396 C112.08 396 104.16 396 96 396 C96 392.04 96 388.08 96 384 C99.96 384 103.92 384 108 384 C108 380.04 108 376.08 108 372 C100.08 372 92.16 372 84 372 C84 368.04 84 364.08 84 360 C76.08 360 68.16 360 60 360 C60 363.96 60 367.92 60 372 C56.04 372 52.08 372 48 372 C48 364.08 48 356.16 48 348 C55.92 348 63.84 348 72 348 C72 344.04 72 340.08 72 336 C79.92 336 87.84 336 96 336 C96 332.04 96 328.08 96 324 C99.96 324 103.92 324 108 324 C108 320.04 108 316.08 108 312 C115.92 312 123.84 312 132 312 C132 304.08 132 296.16 132 288 C128.04 288 124.08 288 120 288 C120 280.08 120 272.16 120 264 C112.08 264 104.16 264 96 264 C96 271.92 96 279.84 96 288 C88.08 288 80.16 288 72 288 C72 284.04 72 280.08 72 276 C75.96 276 79.92 276 84 276 C84 272.04 84 268.08 84 264 C80.04 264 76.08 264 72 264 C72 256.08 72 248.16 72 240 C68.04 240 64.08 240 60 240 C60 236.04 60 232.08 60 228 C63.96 228 67.92 228 72 228 C72 224.04 72 220.08 72 216 C75.96 216 79.92 216 84 216 C84 212.04 84 208.08 84 204 C87.96 204 91.92 204 96 204 C96 211.92 96 219.84 96 228 C103.92 228 111.84 228 120 228 C120 224.04 120 220.08 120 216 C123.96 216 127.92 216 132 216 C132 219.96 132 223.92 132 228 C139.92 228 147.84 228 156 228 C156 224.04 156 220.08 156 216 C152.04 216 148.08 216 144 216 C144 208.08 144 200.16 144 192 C147.96 192 151.92 192 156 192 C156 188.04 156 184.08 156 180 C148.08 180 140.16 180 132 180 C132 176.04 132 172.08 132 168 C135.96 168 139.92 168 144 168 C144 160.08 144 152.16 144 144 C140.04 144 136.08 144 132 144 C132 140.04 132 136.08 132 132 C128.04 132 124.08 132 120 132 C120 135.96 120 139.92 120 144 C116.04 144 112.08 144 108 144 C108 147.96 108 151.92 108 156 C100.08 156 92.16 156 84 156 C84 159.96 84 163.92 84 168 C80.04 168 76.08 168 72 168 C72 171.96 72 175.92 72 180 C68.04 180 64.08 180 60 180 C60 183.96 60 187.92 60 192 C63.96 192 67.92 192 72 192 C72 195.96 72 199.92 72 204 C68.04 204 64.08 204 60 204 C60 207.96 60 211.92 60 216 C56.04 216 52.08 216 48 216 C48 212.04 48 208.08 48 204 C44.04 204 40.08 204 36 204 C36 200.04 36 196.08 36 192 C32.04 192 28.08 192 24 192 C24 188.04 24 184.08 24 180 C31.92 180 39.84 180 48 180 C48 176.04 48 172.08 48 168 C36.12 168 24.24 168 12 168 C12 171.96 12 175.92 12 180 C8.04 180 4.08 180 0 180 C0 187.92 0 195.84 0 204 C7.92 204 15.84 204 24 204 C24 207.96 24 211.92 24 216 C27.96 216 31.92 216 36 216 C36 219.96 36 223.92 36 228 C32.04 228 28.08 228 24 228 C24 231.96 24 235.92 24 240 C12.12 240 0.24 240 -12 240 C-12 243.96 -12 247.92 -12 252 C-8.04 252 -4.08 252 0 252 C0 259.92 0 267.84 0 276 C-7.92 276 -15.84 276 -24 276 C-24 272.04 -24 268.08 -24 264 C-27.96 264 -31.92 264 -36 264 C-36 256.08 -36 248.16 -36 240 C-43.92 240 -51.84 240 -60 240 C-60 236.04 -60 232.08 -60 228 C-63.96 228 -67.92 228 -72 228 C-72 224.04 -72 220.08 -72 216 C-79.92 216 -87.84 216 -96 216 C-96 208.08 -96 200.16 -96 192 C-92.04 192 -88.08 192 -84 192 C-84 184.08 -84 176.16 -84 168 C-80.04 168 -76.08 168 -72 168 C-72 160.08 -72 152.16 -72 144 C-75.96 144 -79.92 144 -84 144 C-84 140.04 -84 136.08 -84 132 C-80.04 132 -76.08 132 -72 132 C-72 120.12 -72 108.24 -72 96 C-64.08 96 -56.16 96 -48 96 C-48 103.92 -48 111.84 -48 120 C-36.12 120 -24.24 120 -12 120 C-12 116.04 -12 112.08 -12 108 C-19.92 108 -27.84 108 -36 108 C-36 104.04 -36 100.08 -36 96 C-24.12 96 -12.24 96 0 96 C0 107.88 0 119.76 0 132 C3.96 132 7.92 132 12 132 C12 120.12 12 108.24 12 96 C15.96 96 19.92 96 24 96 C24 88.08 24 80.16 24 72 C20.04 72 16.08 72 12 72 C12 64.08 12 56.16 12 48 C8.04 48 4.08 48 0 48 C0 44.04 0 40.08 0 36 C3.96 36 7.92 36 12 36 C12 32.04 12 28.08 12 24 C8.04 24 4.08 24 0 24 C0 16.08 0 8.16 0 0 Z " fill="#000000" transform="translate(144,48)"/>
<path d="M0 0 C3.96 0 7.92 0 12 0 C12 7.92 12 15.84 12 24 C19.92 24 27.84 24 36 24 C36 20.04 36 16.08 36 12 C39.96 12 43.92 12 48 12 C48 15.96 48 19.92 48 24 C55.92 24 63.84 24 72 24 C72 27.96 72 31.92 72 36 C75.96 36 79.92 36 84 36 C84 39.96 84 43.92 84 48 C91.92 48 99.84 48 108 48 C108 51.96 108 55.92 108 60 C115.92 60 123.84 60 132 60 C132 56.04 132 52.08 132 48 C135.96 48 139.92 48 144 48 C144 51.96 144 55.92 144 60 C147.96 60 151.92 60 156 60 C156 63.96 156 67.92 156 72 C152.04 72 148.08 72 144 72 C144 75.96 144 79.92 144 84 C151.92 84 159.84 84 168 84 C168 87.96 168 91.92 168 96 C171.96 96 175.92 96 180 96 C180 99.96 180 103.92 180 108 C176.04 108 172.08 108 168 108 C168 111.96 168 115.92 168 120 C179.88 120 191.76 120 204 120 C204 123.96 204 127.92 204 132 C207.96 132 211.92 132 216 132 C216 139.92 216 147.84 216 156 C212.04 156 208.08 156 204 156 C204 152.04 204 148.08 204 144 C196.08 144 188.16 144 180 144 C180 147.96 180 151.92 180 156 C176.04 156 172.08 156 168 156 C168 152.04 168 148.08 168 144 C164.04 144 160.08 144 156 144 C156 151.92 156 159.84 156 168 C159.96 168 163.92 168 168 168 C168 175.92 168 183.84 168 192 C164.04 192 160.08 192 156 192 C156 188.04 156 184.08 156 180 C148.08 180 140.16 180 132 180 C132 183.96 132 187.92 132 192 C128.04 192 124.08 192 120 192 C120 188.04 120 184.08 120 180 C116.04 180 112.08 180 108 180 C108 183.96 108 187.92 108 192 C104.04 192 100.08 192 96 192 C96 188.04 96 184.08 96 180 C92.04 180 88.08 180 84 180 C84 176.04 84 172.08 84 168 C76.08 168 68.16 168 60 168 C60 171.96 60 175.92 60 180 C52.08 180 44.16 180 36 180 C36 183.96 36 187.92 36 192 C28.08 192 20.16 192 12 192 C12 188.04 12 184.08 12 180 C15.96 180 19.92 180 24 180 C24 176.04 24 172.08 24 168 C16.08 168 8.16 168 0 168 C0 164.04 0 160.08 0 156 C-7.92 156 -15.84 156 -24 156 C-24 159.96 -24 163.92 -24 168 C-27.96 168 -31.92 168 -36 168 C-36 160.08 -36 152.16 -36 144 C-28.08 144 -20.16 144 -12 144 C-12 140.04 -12 136.08 -12 132 C-4.08 132 3.84 132 12 132 C12 128.04 12 124.08 12 120 C15.96 120 19.92 120 24 120 C24 116.04 24 112.08 24 108 C31.92 108 39.84 108 48 108 C48 100.08 48 92.16 48 84 C44.04 84 40.08 84 36 84 C36 76.08 36 68.16 36 60 C28.08 60 20.16 60 12 60 C12 67.92 12 75.84 12 84 C4.08 84 -3.84 84 -12 84 C-12 80.04 -12 76.08 -12 72 C-8.04 72 -4.08 72 0 72 C0 68.04 0 64.08 0 60 C-3.96 60 -7.92 60 -12 60 C-12 52.08 -12 44.16 -12 36 C-15.96 36 -19.92 36 -24 36 C-24 32.04 -24 28.08 -24 24 C-20.04 24 -16.08 24 -12 24 C-12 20.04 -12 16.08 -12 12 C-8.04 12 -4.08 12 0 12 C0 8.04 0 4.08 0 0 Z " fill="#000000" transform="translate(228,252)"/>
<path d="M0 0 C3.96 0 7.92 0 12 0 C12 11.88 12 23.76 12 36 C15.96 36 19.92 36 24 36 C24 39.96 24 43.92 24 48 C27.96 48 31.92 48 36 48 C36 44.04 36 40.08 36 36 C39.96 36 43.92 36 48 36 C48 32.04 48 28.08 48 24 C44.04 24 40.08 24 36 24 C36 16.08 36 8.16 36 0 C39.96 0 43.92 0 48 0 C48 3.96 48 7.92 48 12 C51.96 12 55.92 12 60 12 C60 15.96 60 19.92 60 24 C63.96 24 67.92 24 72 24 C72 16.08 72 8.16 72 0 C75.96 0 79.92 0 84 0 C84 3.96 84 7.92 84 12 C87.96 12 91.92 12 96 12 C96 8.04 96 4.08 96 0 C103.92 0 111.84 0 120 0 C120 11.88 120 23.76 120 36 C116.04 36 112.08 36 108 36 C108 47.88 108 59.76 108 72 C104.04 72 100.08 72 96 72 C96 83.88 96 95.76 96 108 C92.04 108 88.08 108 84 108 C84 111.96 84 115.92 84 120 C80.04 120 76.08 120 72 120 C72 127.92 72 135.84 72 144 C79.92 144 87.84 144 96 144 C96 151.92 96 159.84 96 168 C99.96 168 103.92 168 108 168 C108 160.08 108 152.16 108 144 C111.96 144 115.92 144 120 144 C120 155.88 120 167.76 120 180 C108.12 180 96.24 180 84 180 C84 183.96 84 187.92 84 192 C72.12 192 60.24 192 48 192 C48 188.04 48 184.08 48 180 C51.96 180 55.92 180 60 180 C60 176.04 60 172.08 60 168 C56.04 168 52.08 168 48 168 C48 164.04 48 160.08 48 156 C44.04 156 40.08 156 36 156 C36 159.96 36 163.92 36 168 C28.08 168 20.16 168 12 168 C12 164.04 12 160.08 12 156 C4.08 156 -3.84 156 -12 156 C-12 152.04 -12 148.08 -12 144 C-15.96 144 -19.92 144 -24 144 C-24 136.08 -24 128.16 -24 120 C-27.96 120 -31.92 120 -36 120 C-36 112.08 -36 104.16 -36 96 C-32.04 96 -28.08 96 -24 96 C-24 92.04 -24 88.08 -24 84 C-31.92 84 -39.84 84 -48 84 C-48 80.04 -48 76.08 -48 72 C-44.04 72 -40.08 72 -36 72 C-36 64.08 -36 56.16 -36 48 C-39.96 48 -43.92 48 -48 48 C-48 40.08 -48 32.16 -48 24 C-40.08 24 -32.16 24 -24 24 C-24 20.04 -24 16.08 -24 12 C-16.08 12 -8.16 12 0 12 C0 8.04 0 4.08 0 0 Z " fill="#FFFFFF" transform="translate(324,144)"/>
<path d="M0 0 C3.96 0 7.92 0 12 0 C12 3.96 12 7.92 12 12 C15.96 12 19.92 12 24 12 C24 19.92 24 27.84 24 36 C20.04 36 16.08 36 12 36 C12 39.96 12 43.92 12 48 C19.92 48 27.84 48 36 48 C36 51.96 36 55.92 36 60 C32.04 60 28.08 60 24 60 C24 67.92 24 75.84 24 84 C27.96 84 31.92 84 36 84 C36 87.96 36 91.92 36 96 C28.08 96 20.16 96 12 96 C12 92.04 12 88.08 12 84 C8.04 84 4.08 84 0 84 C0 87.96 0 91.92 0 96 C-7.92 96 -15.84 96 -24 96 C-24 88.08 -24 80.16 -24 72 C-27.96 72 -31.92 72 -36 72 C-36 75.96 -36 79.92 -36 84 C-39.96 84 -43.92 84 -48 84 C-48 87.96 -48 91.92 -48 96 C-51.96 96 -55.92 96 -60 96 C-60 99.96 -60 103.92 -60 108 C-56.04 108 -52.08 108 -48 108 C-48 115.92 -48 123.84 -48 132 C-44.04 132 -40.08 132 -36 132 C-36 135.96 -36 139.92 -36 144 C-39.96 144 -43.92 144 -48 144 C-48 147.96 -48 151.92 -48 156 C-40.08 156 -32.16 156 -24 156 C-24 148.08 -24 140.16 -24 132 C-16.08 132 -8.16 132 0 132 C0 139.92 0 147.84 0 156 C3.96 156 7.92 156 12 156 C12 163.92 12 171.84 12 180 C-7.8 180 -27.6 180 -48 180 C-48 183.96 -48 187.92 -48 192 C-51.96 192 -55.92 192 -60 192 C-60 188.04 -60 184.08 -60 180 C-63.96 180 -67.92 180 -72 180 C-72 183.96 -72 187.92 -72 192 C-75.96 192 -79.92 192 -84 192 C-84 188.04 -84 184.08 -84 180 C-87.96 180 -91.92 180 -96 180 C-96 183.96 -96 187.92 -96 192 C-99.96 192 -103.92 192 -108 192 C-108 195.96 -108 199.92 -108 204 C-111.96 204 -115.92 204 -120 204 C-120 176.28 -120 148.56 -120 120 C-123.96 120 -127.92 120 -132 120 C-132 116.04 -132 112.08 -132 108 C-120.12 108 -108.24 108 -96 108 C-96 104.04 -96 100.08 -96 96 C-92.04 96 -88.08 96 -84 96 C-84 92.04 -84 88.08 -84 84 C-87.96 84 -91.92 84 -96 84 C-96 80.04 -96 76.08 -96 72 C-103.92 72 -111.84 72 -120 72 C-120 64.08 -120 56.16 -120 48 C-116.04 48 -112.08 48 -108 48 C-108 44.04 -108 40.08 -108 36 C-96.12 36 -84.24 36 -72 36 C-72 39.96 -72 43.92 -72 48 C-79.92 48 -87.84 48 -96 48 C-96 51.96 -96 55.92 -96 60 C-92.04 60 -88.08 60 -84 60 C-84 63.96 -84 67.92 -84 72 C-80.04 72 -76.08 72 -72 72 C-72 75.96 -72 79.92 -72 84 C-68.04 84 -64.08 84 -60 84 C-60 80.04 -60 76.08 -60 72 C-56.04 72 -52.08 72 -48 72 C-48 68.04 -48 64.08 -48 60 C-51.96 60 -55.92 60 -60 60 C-60 56.04 -60 52.08 -60 48 C-56.04 48 -52.08 48 -48 48 C-48 44.04 -48 40.08 -48 36 C-44.04 36 -40.08 36 -36 36 C-36 32.04 -36 28.08 -36 24 C-28.08 24 -20.16 24 -12 24 C-12 20.04 -12 16.08 -12 12 C-8.04 12 -4.08 12 0 12 C0 8.04 0 4.08 0 0 Z " fill="#FFFFFF" transform="translate(264,180)"/>
<path d="M0 0 C3.96 0 7.92 0 12 0 C12 11.88 12 23.76 12 36 C15.96 36 19.92 36 24 36 C24 39.96 24 43.92 24 48 C27.96 48 31.92 48 36 48 C36 44.04 36 40.08 36 36 C39.96 36 43.92 36 48 36 C48 32.04 48 28.08 48 24 C44.04 24 40.08 24 36 24 C36 16.08 36 8.16 36 0 C39.96 0 43.92 0 48 0 C48 3.96 48 7.92 48 12 C51.96 12 55.92 12 60 12 C60 15.96 60 19.92 60 24 C63.96 24 67.92 24 72 24 C72 16.08 72 8.16 72 0 C75.96 0 79.92 0 84 0 C84 3.96 84 7.92 84 12 C87.96 12 91.92 12 96 12 C96 8.04 96 4.08 96 0 C103.92 0 111.84 0 120 0 C120 11.88 120 23.76 120 36 C116.04 36 112.08 36 108 36 C108 47.88 108 59.76 108 72 C104.04 72 100.08 72 96 72 C96 83.88 96 95.76 96 108 C92.04 108 88.08 108 84 108 C84 111.96 84 115.92 84 120 C80.04 120 76.08 120 72 120 C72 127.92 72 135.84 72 144 C68.04 144 64.08 144 60 144 C60 140.04 60 136.08 60 132 C56.04 132 52.08 132 48 132 C48 128.04 48 124.08 48 120 C44.04 120 40.08 120 36 120 C36 116.04 36 112.08 36 108 C32.04 108 28.08 108 24 108 C24 100.08 24 92.16 24 84 C27.96 84 31.92 84 36 84 C36 80.04 36 76.08 36 72 C28.08 72 20.16 72 12 72 C12 68.04 12 64.08 12 60 C4.08 60 -3.84 60 -12 60 C-12 56.04 -12 52.08 -12 48 C-8.04 48 -4.08 48 0 48 C0 40.08 0 32.16 0 24 C-3.96 24 -7.92 24 -12 24 C-12 20.04 -12 16.08 -12 12 C-8.04 12 -4.08 12 0 12 C0 8.04 0 4.08 0 0 Z " fill="#000000" transform="translate(324,144)"/>
<path d="M0 0 C7.92 0 15.84 0 24 0 C24 7.92 24 15.84 24 24 C27.96 24 31.92 24 36 24 C36 39.84 36 55.68 36 72 C39.96 72 43.92 72 48 72 C48 75.96 48 79.92 48 84 C51.96 84 55.92 84 60 84 C60 87.96 60 91.92 60 96 C56.04 96 52.08 96 48 96 C48 99.96 48 103.92 48 108 C51.96 108 55.92 108 60 108 C60 111.96 60 115.92 60 120 C56.04 120 52.08 120 48 120 C48 123.96 48 127.92 48 132 C51.96 132 55.92 132 60 132 C60 139.92 60 147.84 60 156 C63.96 156 67.92 156 72 156 C72 163.92 72 171.84 72 180 C64.08 180 56.16 180 48 180 C48 176.04 48 172.08 48 168 C44.04 168 40.08 168 36 168 C36 160.08 36 152.16 36 144 C28.08 144 20.16 144 12 144 C12 140.04 12 136.08 12 132 C8.04 132 4.08 132 0 132 C0 128.04 0 124.08 0 120 C-7.92 120 -15.84 120 -24 120 C-24 112.08 -24 104.16 -24 96 C-20.04 96 -16.08 96 -12 96 C-12 88.08 -12 80.16 -12 72 C-8.04 72 -4.08 72 0 72 C0 64.08 0 56.16 0 48 C-3.96 48 -7.92 48 -12 48 C-12 44.04 -12 40.08 -12 36 C-8.04 36 -4.08 36 0 36 C0 24.12 0 12.24 0 0 Z " fill="#FFFFFF" transform="translate(72,144)"/>
<path d="M0 0 C11.88 0 23.76 0 36 0 C36 11.88 36 23.76 36 36 C39.96 36 43.92 36 48 36 C48 43.92 48 51.84 48 60 C67.8 60 87.6 60 108 60 C108 56.04 108 52.08 108 48 C119.88 48 131.76 48 144 48 C144 51.96 144 55.92 144 60 C136.08 60 128.16 60 120 60 C120 63.96 120 67.92 120 72 C116.04 72 112.08 72 108 72 C108 75.96 108 79.92 108 84 C104.04 84 100.08 84 96 84 C96 87.96 96 91.92 96 96 C99.96 96 103.92 96 108 96 C108 99.96 108 103.92 108 108 C104.04 108 100.08 108 96 108 C96 111.96 96 115.92 96 120 C92.04 120 88.08 120 84 120 C84 116.04 84 112.08 84 108 C80.04 108 76.08 108 72 108 C72 104.04 72 100.08 72 96 C68.04 96 64.08 96 60 96 C60 92.04 60 88.08 60 84 C67.92 84 75.84 84 84 84 C84 80.04 84 76.08 84 72 C72.12 72 60.24 72 48 72 C48 75.96 48 79.92 48 84 C44.04 84 40.08 84 36 84 C36 91.92 36 99.84 36 108 C43.92 108 51.84 108 60 108 C60 111.96 60 115.92 60 120 C63.96 120 67.92 120 72 120 C72 123.96 72 127.92 72 132 C68.04 132 64.08 132 60 132 C60 135.96 60 139.92 60 144 C48.12 144 36.24 144 24 144 C24 140.04 24 136.08 24 132 C20.04 132 16.08 132 12 132 C12 128.04 12 124.08 12 120 C15.96 120 19.92 120 24 120 C24 116.04 24 112.08 24 108 C20.04 108 16.08 108 12 108 C12 104.04 12 100.08 12 96 C15.96 96 19.92 96 24 96 C24 92.04 24 88.08 24 84 C20.04 84 16.08 84 12 84 C12 80.04 12 76.08 12 72 C8.04 72 4.08 72 0 72 C0 56.16 0 40.32 0 24 C7.92 24 15.84 24 24 24 C24 20.04 24 16.08 24 12 C16.08 12 8.16 12 0 12 C0 8.04 0 4.08 0 0 Z " fill="#000000" transform="translate(108,144)"/>
<path d="M0 0 C27.72 0 55.44 0 84 0 C84 27.72 84 55.44 84 84 C56.28 84 28.56 84 0 84 C0 56.28 0 28.56 0 0 Z " fill="#FFFFFF" transform="translate(48,360)"/>
<path d="M0 0 C27.72 0 55.44 0 84 0 C84 27.72 84 55.44 84 84 C56.28 84 28.56 84 0 84 C0 56.28 0 28.56 0 0 Z " fill="#FFFFFF" transform="translate(360,48)"/>
<path d="M0 0 C27.72 0 55.44 0 84 0 C84 27.72 84 55.44 84 84 C56.28 84 28.56 84 0 84 C0 56.28 0 28.56 0 0 Z " fill="#FFFFFF" transform="translate(48,48)"/>
<path d="M0 0 C3.96 0 7.92 0 12 0 C12 3.96 12 7.92 12 12 C15.96 12 19.92 12 24 12 C24 8.04 24 4.08 24 0 C35.88 0 47.76 0 60 0 C60 7.92 60 15.84 60 24 C63.96 24 67.92 24 72 24 C72 20.04 72 16.08 72 12 C75.96 12 79.92 12 84 12 C84 15.96 84 19.92 84 24 C91.92 24 99.84 24 108 24 C108 27.96 108 31.92 108 36 C104.04 36 100.08 36 96 36 C96 43.92 96 51.84 96 60 C88.08 60 80.16 60 72 60 C72 56.04 72 52.08 72 48 C68.04 48 64.08 48 60 48 C60 55.92 60 63.84 60 72 C56.04 72 52.08 72 48 72 C48 75.96 48 79.92 48 84 C44.04 84 40.08 84 36 84 C36 80.04 36 76.08 36 72 C28.08 72 20.16 72 12 72 C12 64.08 12 56.16 12 48 C8.04 48 4.08 48 0 48 C0 44.04 0 40.08 0 36 C3.96 36 7.92 36 12 36 C12 32.04 12 28.08 12 24 C8.04 24 4.08 24 0 24 C0 16.08 0 8.16 0 0 Z " fill="#000000" transform="translate(144,48)"/>
<path d="M0 0 C27.72 0 55.44 0 84 0 C84 27.72 84 55.44 84 84 C56.28 84 28.56 84 0 84 C0 56.28 0 28.56 0 0 Z M12 12 C12 31.8 12 51.6 12 72 C31.8 72 51.6 72 72 72 C72 52.2 72 32.4 72 12 C52.2 12 32.4 12 12 12 Z " fill="#000000" transform="translate(48,360)"/>
<path d="M0 0 C3.96 0 7.92 0 12 0 C12 7.92 12 15.84 12 24 C19.92 24 27.84 24 36 24 C36 20.04 36 16.08 36 12 C39.96 12 43.92 12 48 12 C48 15.96 48 19.92 48 24 C55.92 24 63.84 24 72 24 C72 31.92 72 39.84 72 48 C64.08 48 56.16 48 48 48 C48 44.04 48 40.08 48 36 C40.08 36 32.16 36 24 36 C24 39.96 24 43.92 24 48 C27.96 48 31.92 48 36 48 C36 51.96 36 55.92 36 60 C28.08 60 20.16 60 12 60 C12 67.92 12 75.84 12 84 C4.08 84 -3.84 84 -12 84 C-12 80.04 -12 76.08 -12 72 C-8.04 72 -4.08 72 0 72 C0 68.04 0 64.08 0 60 C-3.96 60 -7.92 60 -12 60 C-12 52.08 -12 44.16 -12 36 C-15.96 36 -19.92 36 -24 36 C-24 32.04 -24 28.08 -24 24 C-20.04 24 -16.08 24 -12 24 C-12 20.04 -12 16.08 -12 12 C-8.04 12 -4.08 12 0 12 C0 8.04 0 4.08 0 0 Z " fill="#000000" transform="translate(228,252)"/>
<path d="M0 0 C27.72 0 55.44 0 84 0 C84 27.72 84 55.44 84 84 C56.28 84 28.56 84 0 84 C0 56.28 0 28.56 0 0 Z M12 12 C12 31.8 12 51.6 12 72 C31.8 72 51.6 72 72 72 C72 52.2 72 32.4 72 12 C52.2 12 32.4 12 12 12 Z " fill="#000000" transform="translate(360,48)"/>
<path d="M0 0 C27.72 0 55.44 0 84 0 C84 27.72 84 55.44 84 84 C56.28 84 28.56 84 0 84 C0 56.28 0 28.56 0 0 Z M12 12 C12 31.8 12 51.6 12 72 C31.8 72 51.6 72 72 72 C72 52.2 72 32.4 72 12 C52.2 12 32.4 12 12 12 Z " fill="#000000" transform="translate(48,48)"/>
<path d="M0 0 C3.96 0 7.92 0 12 0 C12 7.92 12 15.84 12 24 C15.96 24 19.92 24 24 24 C24 27.96 24 31.92 24 36 C27.96 36 31.92 36 36 36 C36 28.08 36 20.16 36 12 C43.92 12 51.84 12 60 12 C60 19.92 60 27.84 60 36 C63.96 36 67.92 36 72 36 C72 39.96 72 43.92 72 48 C60.12 48 48.24 48 36 48 C36 51.96 36 55.92 36 60 C16.2 60 -3.6 60 -24 60 C-24 52.08 -24 44.16 -24 36 C-20.04 36 -16.08 36 -12 36 C-12 28.08 -12 20.16 -12 12 C-8.04 12 -4.08 12 0 12 C0 8.04 0 4.08 0 0 Z " fill="#FFFFFF" transform="translate(180,144)"/>
<path d="M0 0 C7.92 0 15.84 0 24 0 C24 11.88 24 23.76 24 36 C20.04 36 16.08 36 12 36 C12 47.88 12 59.76 12 72 C8.04 72 4.08 72 0 72 C0 83.88 0 95.76 0 108 C-3.96 108 -7.92 108 -12 108 C-12 111.96 -12 115.92 -12 120 C-15.96 120 -19.92 120 -24 120 C-24 127.92 -24 135.84 -24 144 C-27.96 144 -31.92 144 -36 144 C-36 140.04 -36 136.08 -36 132 C-39.96 132 -43.92 132 -48 132 C-48 128.04 -48 124.08 -48 120 C-44.04 120 -40.08 120 -36 120 C-36 108.12 -36 96.24 -36 84 C-32.04 84 -28.08 84 -24 84 C-24 80.04 -24 76.08 -24 72 C-20.04 72 -16.08 72 -12 72 C-12 68.04 -12 64.08 -12 60 C-8.04 60 -4.08 60 0 60 C0 48.12 0 36.24 0 24 C3.96 24 7.92 24 12 24 C12 20.04 12 16.08 12 12 C8.04 12 4.08 12 0 12 C0 8.04 0 4.08 0 0 Z " fill="#000000" transform="translate(420,144)"/>
<path d="M0 0 C3.96 0 7.92 0 12 0 C12 3.96 12 7.92 12 12 C15.96 12 19.92 12 24 12 C24 15.96 24 19.92 24 24 C27.96 24 31.92 24 36 24 C36 16.08 36 8.16 36 0 C39.96 0 43.92 0 48 0 C48 3.96 48 7.92 48 12 C51.96 12 55.92 12 60 12 C60 15.96 60 19.92 60 24 C75.84 24 91.68 24 108 24 C108 27.96 108 31.92 108 36 C96.12 36 84.24 36 72 36 C72 39.96 72 43.92 72 48 C68.04 48 64.08 48 60 48 C60 44.04 60 40.08 60 36 C56.04 36 52.08 36 48 36 C48 39.96 48 43.92 48 48 C44.04 48 40.08 48 36 48 C36 44.04 36 40.08 36 36 C32.04 36 28.08 36 24 36 C24 39.96 24 43.92 24 48 C20.04 48 16.08 48 12 48 C12 51.96 12 55.92 12 60 C8.04 60 4.08 60 0 60 C0 40.2 0 20.4 0 0 Z " fill="#000000" transform="translate(144,324)"/>
<path d="M0 0 C3.96 0 7.92 0 12 0 C12 3.96 12 7.92 12 12 C15.96 12 19.92 12 24 12 C24 8.04 24 4.08 24 0 C27.96 0 31.92 0 36 0 C36 11.88 36 23.76 36 36 C39.96 36 43.92 36 48 36 C48 43.92 48 51.84 48 60 C44.04 60 40.08 60 36 60 C36 56.04 36 52.08 36 48 C32.04 48 28.08 48 24 48 C24 40.08 24 32.16 24 24 C20.04 24 16.08 24 12 24 C12 27.96 12 31.92 12 36 C8.04 36 4.08 36 0 36 C0 43.92 0 51.84 0 60 C-3.96 60 -7.92 60 -12 60 C-12 48.12 -12 36.24 -12 24 C-8.04 24 -4.08 24 0 24 C0 16.08 0 8.16 0 0 Z " fill="#000000" transform="translate(168,120)"/>
<path d="M0 0 C3.96 0 7.92 0 12 0 C12 7.92 12 15.84 12 24 C19.92 24 27.84 24 36 24 C36 35.88 36 47.76 36 60 C28.08 60 20.16 60 12 60 C12 63.96 12 67.92 12 72 C8.04 72 4.08 72 0 72 C0 64.08 0 56.16 0 48 C3.96 48 7.92 48 12 48 C12 44.04 12 40.08 12 36 C4.08 36 -3.84 36 -12 36 C-12 32.04 -12 28.08 -12 24 C-8.04 24 -4.08 24 0 24 C0 16.08 0 8.16 0 0 Z " fill="#000000" transform="translate(288,192)"/>
<path d="M0 0 C3.96 0 7.92 0 12 0 C12 11.88 12 23.76 12 36 C15.96 36 19.92 36 24 36 C24 39.96 24 43.92 24 48 C27.96 48 31.92 48 36 48 C36 55.92 36 63.84 36 72 C28.08 72 20.16 72 12 72 C12 68.04 12 64.08 12 60 C4.08 60 -3.84 60 -12 60 C-12 56.04 -12 52.08 -12 48 C-8.04 48 -4.08 48 0 48 C0 40.08 0 32.16 0 24 C-3.96 24 -7.92 24 -12 24 C-12 20.04 -12 16.08 -12 12 C-8.04 12 -4.08 12 0 12 C0 8.04 0 4.08 0 0 Z " fill="#000000" transform="translate(324,144)"/>
<path d="M0 0 C3.96 0 7.92 0 12 0 C12 11.88 12 23.76 12 36 C15.96 36 19.92 36 24 36 C24 39.96 24 43.92 24 48 C27.96 48 31.92 48 36 48 C36 51.96 36 55.92 36 60 C39.96 60 43.92 60 48 60 C48 63.96 48 67.92 48 72 C40.08 72 32.16 72 24 72 C24 68.04 24 64.08 24 60 C20.04 60 16.08 60 12 60 C12 56.04 12 52.08 12 48 C4.08 48 -3.84 48 -12 48 C-12 40.08 -12 32.16 -12 24 C-8.04 24 -4.08 24 0 24 C0 16.08 0 8.16 0 0 Z " fill="#000000" transform="translate(60,216)"/>
<path d="M0 0 C11.88 0 23.76 0 36 0 C36 11.88 36 23.76 36 36 C28.08 36 20.16 36 12 36 C12 39.96 12 43.92 12 48 C15.96 48 19.92 48 24 48 C24 51.96 24 55.92 24 60 C20.04 60 16.08 60 12 60 C12 63.96 12 67.92 12 72 C8.04 72 4.08 72 0 72 C0 56.16 0 40.32 0 24 C7.92 24 15.84 24 24 24 C24 20.04 24 16.08 24 12 C16.08 12 8.16 12 0 12 C0 8.04 0 4.08 0 0 Z " fill="#000000" transform="translate(108,144)"/>
<path d="M0 0 C3.96 0 7.92 0 12 0 C12 3.96 12 7.92 12 12 C15.96 12 19.92 12 24 12 C24 8.04 24 4.08 24 0 C27.96 0 31.92 0 36 0 C36 7.92 36 15.84 36 24 C32.04 24 28.08 24 24 24 C24 27.96 24 31.92 24 36 C20.04 36 16.08 36 12 36 C12 39.96 12 43.92 12 48 C8.04 48 4.08 48 0 48 C0 44.04 0 40.08 0 36 C-3.96 36 -7.92 36 -12 36 C-12 28.08 -12 20.16 -12 12 C-8.04 12 -4.08 12 0 12 C0 8.04 0 4.08 0 0 Z " fill="#000000" transform="translate(60,300)"/>
<path d="M0 0 C11.88 0 23.76 0 36 0 C36 11.88 36 23.76 36 36 C24.12 36 12.24 36 0 36 C0 24.12 0 12.24 0 0 Z " fill="#000000" transform="translate(72,384)"/>
<path d="M0 0 C11.88 0 23.76 0 36 0 C36 11.88 36 23.76 36 36 C24.12 36 12.24 36 0 36 C0 24.12 0 12.24 0 0 Z " fill="#FFFFFF" transform="translate(348,348)"/>
<path d="M0 0 C3.96 0 7.92 0 12 0 C12 3.96 12 7.92 12 12 C15.96 12 19.92 12 24 12 C24 15.96 24 19.92 24 24 C39.84 24 55.68 24 72 24 C72 27.96 72 31.92 72 36 C60.12 36 48.24 36 36 36 C36 39.96 36 43.92 36 48 C32.04 48 28.08 48 24 48 C24 44.04 24 40.08 24 36 C20.04 36 16.08 36 12 36 C12 32.04 12 28.08 12 24 C8.04 24 4.08 24 0 24 C0 16.08 0 8.16 0 0 Z " fill="#000000" transform="translate(180,324)"/>
<path d="M0 0 C3.96 0 7.92 0 12 0 C12 11.88 12 23.76 12 36 C15.96 36 19.92 36 24 36 C24 28.08 24 20.16 24 12 C27.96 12 31.92 12 36 12 C36 23.88 36 35.76 36 48 C20.16 48 4.32 48 -12 48 C-12 44.04 -12 40.08 -12 36 C-8.04 36 -4.08 36 0 36 C0 24.12 0 12.24 0 0 Z " fill="#FFFFFF" transform="translate(300,312)"/>
<path d="M0 0 C7.92 0 15.84 0 24 0 C24 3.96 24 7.92 24 12 C20.04 12 16.08 12 12 12 C12 19.92 12 27.84 12 36 C15.96 36 19.92 36 24 36 C24 39.96 24 43.92 24 48 C20.04 48 16.08 48 12 48 C12 55.92 12 63.84 12 72 C8.04 72 4.08 72 0 72 C0 64.08 0 56.16 0 48 C-3.96 48 -7.92 48 -12 48 C-12 44.04 -12 40.08 -12 36 C-8.04 36 -4.08 36 0 36 C0 24.12 0 12.24 0 0 Z " fill="#000000" transform="translate(72,144)"/>
<path d="M0 0 C11.88 0 23.76 0 36 0 C36 11.88 36 23.76 36 36 C24.12 36 12.24 36 0 36 C0 24.12 0 12.24 0 0 Z " fill="#000000" transform="translate(384,72)"/>
<path d="M0 0 C11.88 0 23.76 0 36 0 C36 11.88 36 23.76 36 36 C24.12 36 12.24 36 0 36 C0 24.12 0 12.24 0 0 Z " fill="#000000" transform="translate(72,72)"/>
<path d="M0 0 C7.92 0 15.84 0 24 0 C24 7.92 24 15.84 24 24 C27.96 24 31.92 24 36 24 C36 16.08 36 8.16 36 0 C39.96 0 43.92 0 48 0 C48 11.88 48 23.76 48 36 C36.12 36 24.24 36 12 36 C12 28.08 12 20.16 12 12 C8.04 12 4.08 12 0 12 C0 8.04 0 4.08 0 0 Z " fill="#000000" transform="translate(396,288)"/>
<path d="M0 0 C7.92 0 15.84 0 24 0 C24 3.96 24 7.92 24 12 C27.96 12 31.92 12 36 12 C36 19.92 36 27.84 36 36 C28.08 36 20.16 36 12 36 C12 32.04 12 28.08 12 24 C8.04 24 4.08 24 0 24 C0 16.08 0 8.16 0 0 Z " fill="#000000" transform="translate(108,288)"/>
<path d="M0 0 C7.92 0 15.84 0 24 0 C24 3.96 24 7.92 24 12 C20.04 12 16.08 12 12 12 C12 15.96 12 19.92 12 24 C8.04 24 4.08 24 0 24 C0 35.88 0 47.76 0 60 C-3.96 60 -7.92 60 -12 60 C-12 44.16 -12 28.32 -12 12 C-8.04 12 -4.08 12 0 12 C0 8.04 0 4.08 0 0 Z " fill="#FFFFFF" transform="translate(384,204)"/>
<path d="M0 0 C11.88 0 23.76 0 36 0 C36 7.92 36 15.84 36 24 C32.04 24 28.08 24 24 24 C24 20.04 24 16.08 24 12 C20.04 12 16.08 12 12 12 C12 15.96 12 19.92 12 24 C8.04 24 4.08 24 0 24 C0 27.96 0 31.92 0 36 C-3.96 36 -7.92 36 -12 36 C-12 28.08 -12 20.16 -12 12 C-8.04 12 -4.08 12 0 12 C0 8.04 0 4.08 0 0 Z " fill="#000000" transform="translate(312,84)"/>
<path d="M0 0 C3.96 0 7.92 0 12 0 C12 15.84 12 31.68 12 48 C8.04 48 4.08 48 0 48 C0 44.04 0 40.08 0 36 C-3.96 36 -7.92 36 -12 36 C-12 28.08 -12 20.16 -12 12 C-8.04 12 -4.08 12 0 12 C0 8.04 0 4.08 0 0 Z " fill="#000000" transform="translate(360,216)"/>
<path d="M0 0 C7.92 0 15.84 0 24 0 C24 7.92 24 15.84 24 24 C20.04 24 16.08 24 12 24 C12 27.96 12 31.92 12 36 C8.04 36 4.08 36 0 36 C0 32.04 0 28.08 0 24 C-3.96 24 -7.92 24 -12 24 C-12 20.04 -12 16.08 -12 12 C-8.04 12 -4.08 12 0 12 C0 8.04 0 4.08 0 0 Z " fill="#FFFFFF" transform="translate(180,96)"/>
<path d="M0 0 C3.96 0 7.92 0 12 0 C12 3.96 12 7.92 12 12 C19.92 12 27.84 12 36 12 C36 15.96 36 19.92 36 24 C32.04 24 28.08 24 24 24 C24 27.96 24 31.92 24 36 C20.04 36 16.08 36 12 36 C12 32.04 12 28.08 12 24 C4.08 24 -3.84 24 -12 24 C-12 20.04 -12 16.08 -12 12 C-8.04 12 -4.08 12 0 12 C0 8.04 0 4.08 0 0 Z " fill="#000000" transform="translate(216,60)"/>
<path d="M0 0 C11.88 0 23.76 0 36 0 C36 3.96 36 7.92 36 12 C28.08 12 20.16 12 12 12 C12 15.96 12 19.92 12 24 C4.08 24 -3.84 24 -12 24 C-12 20.04 -12 16.08 -12 12 C-8.04 12 -4.08 12 0 12 C0 8.04 0 4.08 0 0 Z " fill="#000000" transform="translate(252,420)"/>
<path d="M0 0 C7.92 0 15.84 0 24 0 C24 3.96 24 7.92 24 12 C20.04 12 16.08 12 12 12 C12 15.96 12 19.92 12 24 C0.12 24 -11.76 24 -24 24 C-24 20.04 -24 16.08 -24 12 C-16.08 12 -8.16 12 0 12 C0 8.04 0 4.08 0 0 Z " fill="#000000" transform="translate(168,420)"/>
<path d="M0 0 C7.92 0 15.84 0 24 0 C24 11.88 24 23.76 24 36 C16.08 36 8.16 36 0 36 C0 32.04 0 28.08 0 24 C3.96 24 7.92 24 12 24 C12 20.04 12 16.08 12 12 C8.04 12 4.08 12 0 12 C0 8.04 0 4.08 0 0 Z " fill="#FFFFFF" transform="translate(120,180)"/>
<path d="M0 0 C3.96 0 7.92 0 12 0 C12 3.96 12 7.92 12 12 C15.96 12 19.92 12 24 12 C24 15.96 24 19.92 24 24 C12.12 24 0.24 24 -12 24 C-12 20.04 -12 16.08 -12 12 C-8.04 12 -4.08 12 0 12 C0 8.04 0 4.08 0 0 Z " fill="#FFFFFF" transform="translate(264,396)"/>
<path d="M0 0 C7.92 0 15.84 0 24 0 C24 3.96 24 7.92 24 12 C27.96 12 31.92 12 36 12 C36 15.96 36 19.92 36 24 C28.08 24 20.16 24 12 24 C12 20.04 12 16.08 12 12 C8.04 12 4.08 12 0 12 C0 8.04 0 4.08 0 0 Z " fill="#FFFFFF" transform="translate(252,288)"/>
<path d="M0 0 C3.96 0 7.92 0 12 0 C12 3.96 12 7.92 12 12 C15.96 12 19.92 12 24 12 C24 15.96 24 19.92 24 24 C20.04 24 16.08 24 12 24 C12 27.96 12 31.92 12 36 C8.04 36 4.08 36 0 36 C0 24.12 0 12.24 0 0 Z " fill="#FFFFFF" transform="translate(204,120)"/>
<path d="M0 0 C7.92 0 15.84 0 24 0 C24 3.96 24 7.92 24 12 C27.96 12 31.92 12 36 12 C36 15.96 36 19.92 36 24 C28.08 24 20.16 24 12 24 C12 20.04 12 16.08 12 12 C8.04 12 4.08 12 0 12 C0 8.04 0 4.08 0 0 Z " fill="#FFFFFF" transform="translate(204,84)"/>
<path d="M0 0 C3.96 0 7.92 0 12 0 C12 11.88 12 23.76 12 36 C8.04 36 4.08 36 0 36 C0 32.04 0 28.08 0 24 C-3.96 24 -7.92 24 -12 24 C-12 20.04 -12 16.08 -12 12 C-8.04 12 -4.08 12 0 12 C0 8.04 0 4.08 0 0 Z " fill="#FFFFFF" transform="translate(252,72)"/>
<path d="M0 0 C3.96 0 7.92 0 12 0 C12 3.96 12 7.92 12 12 C15.96 12 19.92 12 24 12 C24 15.96 24 19.92 24 24 C16.08 24 8.16 24 0 24 C0 16.08 0 8.16 0 0 Z " fill="#000000" transform="translate(144,396)"/>
<path d="M0 0 C3.96 0 7.92 0 12 0 C12 7.92 12 15.84 12 24 C4.08 24 -3.84 24 -12 24 C-12 20.04 -12 16.08 -12 12 C-8.04 12 -4.08 12 0 12 C0 8.04 0 4.08 0 0 Z " fill="#FFFFFF" transform="translate(264,336)"/>
<path d="M0 0 C3.96 0 7.92 0 12 0 C12 7.92 12 15.84 12 24 C4.08 24 -3.84 24 -12 24 C-12 20.04 -12 16.08 -12 12 C-8.04 12 -4.08 12 0 12 C0 8.04 0 4.08 0 0 Z " fill="#000000" transform="translate(132,300)"/>
<path d="M0 0 C3.96 0 7.92 0 12 0 C12 11.88 12 23.76 12 36 C8.04 36 4.08 36 0 36 C0 24.12 0 12.24 0 0 Z " fill="#FFFFFF" transform="translate(408,168)"/>
<path d="M0 0 C3.96 0 7.92 0 12 0 C12 11.88 12 23.76 12 36 C8.04 36 4.08 36 0 36 C0 24.12 0 12.24 0 0 Z " fill="#FFFFFF" transform="translate(144,144)"/>
<path d="M0 0 C3.96 0 7.92 0 12 0 C12 3.96 12 7.92 12 12 C15.96 12 19.92 12 24 12 C24 15.96 24 19.92 24 24 C16.08 24 8.16 24 0 24 C0 16.08 0 8.16 0 0 Z " fill="#000000" transform="translate(324,48)"/>
<path d="M0 0 C7.92 0 15.84 0 24 0 C24 3.96 24 7.92 24 12 C16.08 12 8.16 12 0 12 C0 8.04 0 4.08 0 0 Z " fill="#000000" transform="translate(288,408)"/>
<path d="M0 0 C7.92 0 15.84 0 24 0 C24 3.96 24 7.92 24 12 C16.08 12 8.16 12 0 12 C0 8.04 0 4.08 0 0 Z " fill="#FFFFFF" transform="translate(348,396)"/>
<path d="M0 0 C7.92 0 15.84 0 24 0 C24 3.96 24 7.92 24 12 C16.08 12 8.16 12 0 12 C0 8.04 0 4.08 0 0 Z " fill="#FFFFFF" transform="translate(288,396)"/>
<path d="M0 0 C3.96 0 7.92 0 12 0 C12 7.92 12 15.84 12 24 C8.04 24 4.08 24 0 24 C0 16.08 0 8.16 0 0 Z " fill="#FFFFFF" transform="translate(312,372)"/>
<path d="M0 0 C7.92 0 15.84 0 24 0 C24 3.96 24 7.92 24 12 C16.08 12 8.16 12 0 12 C0 8.04 0 4.08 0 0 Z " fill="#000000" transform="translate(96,324)"/>
<path d="M0 0 C7.92 0 15.84 0 24 0 C24 3.96 24 7.92 24 12 C16.08 12 8.16 12 0 12 C0 8.04 0 4.08 0 0 Z " fill="#000000" transform="translate(336,276)"/>
<path d="M0 0 C7.92 0 15.84 0 24 0 C24 3.96 24 7.92 24 12 C16.08 12 8.16 12 0 12 C0 8.04 0 4.08 0 0 Z " fill="#000000" transform="translate(408,264)"/>
<path d="M0 0 C7.92 0 15.84 0 24 0 C24 3.96 24 7.92 24 12 C16.08 12 8.16 12 0 12 C0 8.04 0 4.08 0 0 Z " fill="#000000" transform="translate(84,240)"/>
<path d="M0 0 C3.96 0 7.92 0 12 0 C12 7.92 12 15.84 12 24 C8.04 24 4.08 24 0 24 C0 16.08 0 8.16 0 0 Z " fill="#000000" transform="translate(252,204)"/>
<path d="M0 0 C3.96 0 7.92 0 12 0 C12 7.92 12 15.84 12 24 C8.04 24 4.08 24 0 24 C0 16.08 0 8.16 0 0 Z " fill="#FFFFFF" transform="translate(360,192)"/>
<path d="M0 0 C7.92 0 15.84 0 24 0 C24 3.96 24 7.92 24 12 C16.08 12 8.16 12 0 12 C0 8.04 0 4.08 0 0 Z " fill="#FFFFFF" transform="translate(108,156)"/>
<path d="M0 0 C3.96 0 7.92 0 12 0 C12 7.92 12 15.84 12 24 C8.04 24 4.08 24 0 24 C0 16.08 0 8.16 0 0 Z " fill="#000000" transform="translate(336,120)"/>
<path d="M0 0 C3.96 0 7.92 0 12 0 C12 7.92 12 15.84 12 24 C8.04 24 4.08 24 0 24 C0 16.08 0 8.16 0 0 Z " fill="#FFFFFF" transform="translate(156,120)"/>
<path d="M0 0 C3.96 0 7.92 0 12 0 C12 7.92 12 15.84 12 24 C8.04 24 4.08 24 0 24 C0 16.08 0 8.16 0 0 Z " fill="#000000" transform="translate(144,120)"/>
<path d="M0 0 C3.96 0 7.92 0 12 0 C12 7.92 12 15.84 12 24 C8.04 24 4.08 24 0 24 C0 16.08 0 8.16 0 0 Z " fill="#FFFFFF" transform="translate(168,72)"/>
<path d="M0 0 C7.92 0 15.84 0 24 0 C24 3.96 24 7.92 24 12 C16.08 12 8.16 12 0 12 C0 8.04 0 4.08 0 0 Z " fill="#000000" transform="translate(264,48)"/>
<path d="M0 0 C3.96 0 7.92 0 12 0 C12 3.96 12 7.92 12 12 C8.04 12 4.08 12 0 12 C0 8.04 0 4.08 0 0 Z " fill="#000000" transform="translate(408,432)"/>
<path d="M0 0 C3.96 0 7.92 0 12 0 C12 3.96 12 7.92 12 12 C8.04 12 4.08 12 0 12 C0 8.04 0 4.08 0 0 Z " fill="#000000" transform="translate(300,432)"/>
<path d="M0 0 C3.96 0 7.92 0 12 0 C12 3.96 12 7.92 12 12 C8.04 12 4.08 12 0 12 C0 8.04 0 4.08 0 0 Z " fill="#000000" transform="translate(204,432)"/>
<path d="M0 0 C3.96 0 7.92 0 12 0 C12 3.96 12 7.92 12 12 C8.04 12 4.08 12 0 12 C0 8.04 0 4.08 0 0 Z " fill="#000000" transform="translate(432,420)"/>
<path d="M0 0 C3.96 0 7.92 0 12 0 C12 3.96 12 7.92 12 12 C8.04 12 4.08 12 0 12 C0 8.04 0 4.08 0 0 Z " fill="#FFFFFF" transform="translate(312,408)"/>
<path d="M0 0 C3.96 0 7.92 0 12 0 C12 3.96 12 7.92 12 12 C8.04 12 4.08 12 0 12 C0 8.04 0 4.08 0 0 Z " fill="#000000" transform="translate(396,396)"/>
<path d="M0 0 C3.96 0 7.92 0 12 0 C12 3.96 12 7.92 12 12 C8.04 12 4.08 12 0 12 C0 8.04 0 4.08 0 0 Z " fill="#000000" transform="translate(276,396)"/>
<path d="M0 0 C3.96 0 7.92 0 12 0 C12 3.96 12 7.92 12 12 C8.04 12 4.08 12 0 12 C0 8.04 0 4.08 0 0 Z " fill="#FFFFFF" transform="translate(228,396)"/>
<path d="M0 0 C3.96 0 7.92 0 12 0 C12 3.96 12 7.92 12 12 C8.04 12 4.08 12 0 12 C0 8.04 0 4.08 0 0 Z " fill="#FFFFFF" transform="translate(396,384)"/>
<path d="M0 0 C3.96 0 7.92 0 12 0 C12 3.96 12 7.92 12 12 C8.04 12 4.08 12 0 12 C0 8.04 0 4.08 0 0 Z " fill="#FFFFFF" transform="translate(276,384)"/>
<path d="M0 0 C3.96 0 7.92 0 12 0 C12 3.96 12 7.92 12 12 C8.04 12 4.08 12 0 12 C0 8.04 0 4.08 0 0 Z " fill="#000000" transform="translate(180,384)"/>
<path d="M0 0 C3.96 0 7.92 0 12 0 C12 3.96 12 7.92 12 12 C8.04 12 4.08 12 0 12 C0 8.04 0 4.08 0 0 Z " fill="#000000" transform="translate(360,360)"/>
<path d="M0 0 C3.96 0 7.92 0 12 0 C12 3.96 12 7.92 12 12 C8.04 12 4.08 12 0 12 C0 8.04 0 4.08 0 0 Z " fill="#000000" transform="translate(180,360)"/>
<path d="M0 0 C3.96 0 7.92 0 12 0 C12 3.96 12 7.92 12 12 C8.04 12 4.08 12 0 12 C0 8.04 0 4.08 0 0 Z " fill="#FFFFFF" transform="translate(180,348)"/>
<path d="M0 0 C3.96 0 7.92 0 12 0 C12 3.96 12 7.92 12 12 C8.04 12 4.08 12 0 12 C0 8.04 0 4.08 0 0 Z " fill="#000000" transform="translate(252,336)"/>
<path d="M0 0 C3.96 0 7.92 0 12 0 C12 3.96 12 7.92 12 12 C8.04 12 4.08 12 0 12 C0 8.04 0 4.08 0 0 Z " fill="#000000" transform="translate(120,336)"/>
<path d="M0 0 C3.96 0 7.92 0 12 0 C12 3.96 12 7.92 12 12 C8.04 12 4.08 12 0 12 C0 8.04 0 4.08 0 0 Z " fill="#000000" transform="translate(60,336)"/>
<path d="M0 0 C3.96 0 7.92 0 12 0 C12 3.96 12 7.92 12 12 C8.04 12 4.08 12 0 12 C0 8.04 0 4.08 0 0 Z " fill="#000000" transform="translate(396,324)"/>
<path d="M0 0 C3.96 0 7.92 0 12 0 C12 3.96 12 7.92 12 12 C8.04 12 4.08 12 0 12 C0 8.04 0 4.08 0 0 Z " fill="#FFFFFF" transform="translate(348,324)"/>
<path d="M0 0 C3.96 0 7.92 0 12 0 C12 3.96 12 7.92 12 12 C8.04 12 4.08 12 0 12 C0 8.04 0 4.08 0 0 Z " fill="#FFFFFF" transform="translate(276,324)"/>
<path d="M0 0 C3.96 0 7.92 0 12 0 C12 3.96 12 7.92 12 12 C8.04 12 4.08 12 0 12 C0 8.04 0 4.08 0 0 Z " fill="#FFFFFF" transform="translate(60,324)"/>
<path d="M0 0 C3.96 0 7.92 0 12 0 C12 3.96 12 7.92 12 12 C8.04 12 4.08 12 0 12 C0 8.04 0 4.08 0 0 Z " fill="#000000" transform="translate(192,312)"/>
<path d="M0 0 C3.96 0 7.92 0 12 0 C12 3.96 12 7.92 12 12 C8.04 12 4.08 12 0 12 C0 8.04 0 4.08 0 0 Z " fill="#000000" transform="translate(168,312)"/>
<path d="M0 0 C3.96 0 7.92 0 12 0 C12 3.96 12 7.92 12 12 C8.04 12 4.08 12 0 12 C0 8.04 0 4.08 0 0 Z " fill="#000000" transform="translate(156,300)"/>
<path d="M0 0 C3.96 0 7.92 0 12 0 C12 3.96 12 7.92 12 12 C8.04 12 4.08 12 0 12 C0 8.04 0 4.08 0 0 Z " fill="#FFFFFF" transform="translate(120,300)"/>
<path d="M0 0 C3.96 0 7.92 0 12 0 C12 3.96 12 7.92 12 12 C8.04 12 4.08 12 0 12 C0 8.04 0 4.08 0 0 Z " fill="#FFFFFF" transform="translate(288,288)"/>
<path d="M0 0 C3.96 0 7.92 0 12 0 C12 3.96 12 7.92 12 12 C8.04 12 4.08 12 0 12 C0 8.04 0 4.08 0 0 Z " fill="#FFFFFF" transform="translate(228,288)"/>
<path d="M0 0 C3.96 0 7.92 0 12 0 C12 3.96 12 7.92 12 12 C8.04 12 4.08 12 0 12 C0 8.04 0 4.08 0 0 Z " fill="#000000" transform="translate(192,288)"/>
<path d="M0 0 C3.96 0 7.92 0 12 0 C12 3.96 12 7.92 12 12 C8.04 12 4.08 12 0 12 C0 8.04 0 4.08 0 0 Z " fill="#000000" transform="translate(312,276)"/>
<path d="M0 0 C3.96 0 7.92 0 12 0 C12 3.96 12 7.92 12 12 C8.04 12 4.08 12 0 12 C0 8.04 0 4.08 0 0 Z " fill="#FFFFFF" transform="translate(300,276)"/>
<path d="M0 0 C3.96 0 7.92 0 12 0 C12 3.96 12 7.92 12 12 C8.04 12 4.08 12 0 12 C0 8.04 0 4.08 0 0 Z " fill="#000000" transform="translate(48,276)"/>
<path d="M0 0 C3.96 0 7.92 0 12 0 C12 3.96 12 7.92 12 12 C8.04 12 4.08 12 0 12 C0 8.04 0 4.08 0 0 Z " fill="#000000" transform="translate(300,264)"/>
<path d="M0 0 C3.96 0 7.92 0 12 0 C12 3.96 12 7.92 12 12 C8.04 12 4.08 12 0 12 C0 8.04 0 4.08 0 0 Z " fill="#FFFFFF" transform="translate(144,264)"/>
<path d="M0 0 C3.96 0 7.92 0 12 0 C12 3.96 12 7.92 12 12 C8.04 12 4.08 12 0 12 C0 8.04 0 4.08 0 0 Z " fill="#000000" transform="translate(432,252)"/>
<path d="M0 0 C3.96 0 7.92 0 12 0 C12 3.96 12 7.92 12 12 C8.04 12 4.08 12 0 12 C0 8.04 0 4.08 0 0 Z " fill="#000000" transform="translate(324,252)"/>
<path d="M0 0 C3.96 0 7.92 0 12 0 C12 3.96 12 7.92 12 12 C8.04 12 4.08 12 0 12 C0 8.04 0 4.08 0 0 Z " fill="#FFFFFF" transform="translate(396,240)"/>
<path d="M0 0 C3.96 0 7.92 0 12 0 C12 3.96 12 7.92 12 12 C8.04 12 4.08 12 0 12 C0 8.04 0 4.08 0 0 Z " fill="#000000" transform="translate(264,240)"/>
<path d="M0 0 C3.96 0 7.92 0 12 0 C12 3.96 12 7.92 12 12 C8.04 12 4.08 12 0 12 C0 8.04 0 4.08 0 0 Z " fill="#000000" transform="translate(228,228)"/>
<path d="M0 0 C3.96 0 7.92 0 12 0 C12 3.96 12 7.92 12 12 C8.04 12 4.08 12 0 12 C0 8.04 0 4.08 0 0 Z " fill="#000000" transform="translate(84,216)"/>
<path d="M0 0 C3.96 0 7.92 0 12 0 C12 3.96 12 7.92 12 12 C8.04 12 4.08 12 0 12 C0 8.04 0 4.08 0 0 Z " fill="#000000" transform="translate(48,204)"/>
<path d="M0 0 C3.96 0 7.92 0 12 0 C12 3.96 12 7.92 12 12 C8.04 12 4.08 12 0 12 C0 8.04 0 4.08 0 0 Z " fill="#FFFFFF" transform="translate(384,180)"/>
<path d="M0 0 C3.96 0 7.92 0 12 0 C12 3.96 12 7.92 12 12 C8.04 12 4.08 12 0 12 C0 8.04 0 4.08 0 0 Z " fill="#000000" transform="translate(276,180)"/>
<path d="M0 0 C3.96 0 7.92 0 12 0 C12 3.96 12 7.92 12 12 C8.04 12 4.08 12 0 12 C0 8.04 0 4.08 0 0 Z " fill="#000000" transform="translate(252,180)"/>
<path d="M0 0 C3.96 0 7.92 0 12 0 C12 3.96 12 7.92 12 12 C8.04 12 4.08 12 0 12 C0 8.04 0 4.08 0 0 Z " fill="#000000" transform="translate(192,180)"/>
<path d="M0 0 C3.96 0 7.92 0 12 0 C12 3.96 12 7.92 12 12 C8.04 12 4.08 12 0 12 C0 8.04 0 4.08 0 0 Z " fill="#000000" transform="translate(168,180)"/>
<path d="M0 0 C3.96 0 7.92 0 12 0 C12 3.96 12 7.92 12 12 C8.04 12 4.08 12 0 12 C0 8.04 0 4.08 0 0 Z " fill="#000000" transform="translate(348,168)"/>
<path d="M0 0 C3.96 0 7.92 0 12 0 C12 3.96 12 7.92 12 12 C8.04 12 4.08 12 0 12 C0 8.04 0 4.08 0 0 Z " fill="#FFFFFF" transform="translate(252,168)"/>
<path d="M0 0 C3.96 0 7.92 0 12 0 C12 3.96 12 7.92 12 12 C8.04 12 4.08 12 0 12 C0 8.04 0 4.08 0 0 Z " fill="#FFFFFF" transform="translate(420,156)"/>
<path d="M0 0 C3.96 0 7.92 0 12 0 C12 3.96 12 7.92 12 12 C8.04 12 4.08 12 0 12 C0 8.04 0 4.08 0 0 Z " fill="#000000" transform="translate(96,156)"/>
<path d="M0 0 C3.96 0 7.92 0 12 0 C12 3.96 12 7.92 12 12 C8.04 12 4.08 12 0 12 C0 8.04 0 4.08 0 0 Z " fill="#000000" transform="translate(300,144)"/>
<path d="M0 0 C3.96 0 7.92 0 12 0 C12 3.96 12 7.92 12 12 C8.04 12 4.08 12 0 12 C0 8.04 0 4.08 0 0 Z " fill="#FFFFFF" transform="translate(240,144)"/>
<path d="M0 0 C3.96 0 7.92 0 12 0 C12 3.96 12 7.92 12 12 C8.04 12 4.08 12 0 12 C0 8.04 0 4.08 0 0 Z " fill="#000000" transform="translate(48,144)"/>
<path d="M0 0 C3.96 0 7.92 0 12 0 C12 3.96 12 7.92 12 12 C8.04 12 4.08 12 0 12 C0 8.04 0 4.08 0 0 Z " fill="#000000" transform="translate(276,132)"/>
<path d="M0 0 C3.96 0 7.92 0 12 0 C12 3.96 12 7.92 12 12 C8.04 12 4.08 12 0 12 C0 8.04 0 4.08 0 0 Z " fill="#FFFFFF" transform="translate(264,132)"/>
<path d="M0 0 C3.96 0 7.92 0 12 0 C12 3.96 12 7.92 12 12 C8.04 12 4.08 12 0 12 C0 8.04 0 4.08 0 0 Z " fill="#000000" transform="translate(312,120)"/>
<path d="M0 0 C3.96 0 7.92 0 12 0 C12 3.96 12 7.92 12 12 C8.04 12 4.08 12 0 12 C0 8.04 0 4.08 0 0 Z " fill="#000000" transform="translate(288,120)"/>
<path d="M0 0 C3.96 0 7.92 0 12 0 C12 3.96 12 7.92 12 12 C8.04 12 4.08 12 0 12 C0 8.04 0 4.08 0 0 Z " fill="#FFFFFF" transform="translate(252,120)"/>
<path d="M0 0 C3.96 0 7.92 0 12 0 C12 3.96 12 7.92 12 12 C8.04 12 4.08 12 0 12 C0 8.04 0 4.08 0 0 Z " fill="#FFFFFF" transform="translate(228,120)"/>
<path d="M0 0 C3.96 0 7.92 0 12 0 C12 3.96 12 7.92 12 12 C8.04 12 4.08 12 0 12 C0 8.04 0 4.08 0 0 Z " fill="#FFFFFF" transform="translate(192,72)"/>
<path d="M0 0 C3.96 0 7.92 0 12 0 C12 3.96 12 7.92 12 12 C8.04 12 4.08 12 0 12 C0 8.04 0 4.08 0 0 Z " fill="#000000" transform="translate(252,60)"/>
<path d="M0 0 C3.96 0 7.92 0 12 0 C12 3.96 12 7.92 12 12 C8.04 12 4.08 12 0 12 C0 8.04 0 4.08 0 0 Z " fill="#000000" transform="translate(300,48)"/>
<path d="M0 0 C3.96 0 7.92 0 12 0 C12 3.96 12 7.92 12 12 C8.04 12 4.08 12 0 12 C0 8.04 0 4.08 0 0 Z " fill="#000000" transform="translate(240,48)"/>
</svg>
