<?xml version="1.0" encoding="UTF-8" standalone="no"?>
<!-- Created with Inkscape (http://www.inkscape.org/) -->

<svg
   width="16.308949cm"
   height="7.886075cm"
   viewBox="0 0 163.08949 78.86075"
   version="1.1"
   id="svg1"
   inkscape:version="1.3.2 (091e20e, 2023-11-25)"
   sodipodi:docname="ffn_texto_stroke.svg"
   xmlns:inkscape="http://www.inkscape.org/namespaces/inkscape"
   xmlns:sodipodi="http://sodipodi.sourceforge.net/DTD/sodipodi-0.dtd"
   xmlns="http://www.w3.org/2000/svg"
   xmlns:svg="http://www.w3.org/2000/svg">
  <sodipodi:namedview
     id="namedview1"
     pagecolor="#ffffff"
     bordercolor="#000000"
     borderopacity="0.25"
     inkscape:showpageshadow="2"
     inkscape:pageopacity="0.0"
     inkscape:pagecheckerboard="0"
     inkscape:deskcolor="#d1d1d1"
     inkscape:document-units="mm"
     inkscape:zoom="0.53407745"
     inkscape:cx="532.69427"
     inkscape:cy="166.6425"
     inkscape:window-width="1680"
     inkscape:window-height="997"
     inkscape:window-x="0"
     inkscape:window-y="25"
     inkscape:window-maximized="0"
     inkscape:current-layer="layer1" />
  <defs
     id="defs1">
    <clipPath
       clipPathUnits="userSpaceOnUse"
       id="clipPath2-4">
      <path
         d="M 0,799 H 881 V 0 H 0 Z"
         transform="translate(-774.34959,-20.526401)"
         id="path2-8" />
    </clipPath>
    <clipPath
       clipPathUnits="userSpaceOnUse"
       id="clipPath4-3">
      <path
         d="M 0,799 H 881 V 0 H 0 Z"
         transform="translate(-61.174802,-180.6074)"
         id="path4-9" />
    </clipPath>
    <clipPath
       clipPathUnits="userSpaceOnUse"
       id="clipPath6-0">
      <path
         d="M 0,799 H 881 V 0 H 0 Z"
         transform="translate(-303.22171,-180.6074)"
         id="path6-5" />
    </clipPath>
    <clipPath
       clipPathUnits="userSpaceOnUse"
       id="clipPath8-2">
      <path
         d="M 0,799 H 881 V 0 H 0 Z"
         transform="translate(-550.81151,-180.6074)"
         id="path8-2" />
    </clipPath>
    <clipPath
       clipPathUnits="userSpaceOnUse"
       id="clipPath10-7">
      <path
         d="M 0,799 H 881 V 0 H 0 Z"
         transform="translate(-72.354002,-99.9854)"
         id="path10-3" />
    </clipPath>
    <clipPath
       clipPathUnits="userSpaceOnUse"
       id="clipPath12-7">
      <path
         d="M 0,799 H 881 V 0 H 0 Z"
         transform="translate(-123.73581,-99.9854)"
         id="path12-9" />
    </clipPath>
    <clipPath
       clipPathUnits="userSpaceOnUse"
       id="clipPath14-0">
      <path
         d="M 0,799 H 881 V 0 H 0 Z"
         transform="translate(-175.5195,-99.9854)"
         id="path14-2" />
    </clipPath>
    <clipPath
       clipPathUnits="userSpaceOnUse"
       id="clipPath16-3">
      <path
         d="M 0,799 H 881 V 0 H 0 Z"
         transform="translate(-228.91941,-99.9854)"
         id="path16-9" />
    </clipPath>
    <clipPath
       clipPathUnits="userSpaceOnUse"
       id="clipPath18-9">
      <path
         d="M 0,799 H 881 V 0 H 0 Z"
         transform="translate(-293.75101,-99.9854)"
         id="path18-7" />
    </clipPath>
    <clipPath
       clipPathUnits="userSpaceOnUse"
       id="clipPath20-0">
      <path
         d="M 0,799 H 881 V 0 H 0 Z"
         transform="translate(-345.93951,-99.9854)"
         id="path20-3" />
    </clipPath>
    <clipPath
       clipPathUnits="userSpaceOnUse"
       id="clipPath22-9">
      <path
         d="M 0,799 H 881 V 0 H 0 Z"
         transform="translate(-417.83201,-99.9854)"
         id="path22-8" />
    </clipPath>
    <clipPath
       clipPathUnits="userSpaceOnUse"
       id="clipPath24-6">
      <path
         d="M 0,799 H 881 V 0 H 0 Z"
         transform="translate(-496.29591,-125.0576)"
         id="path24-5" />
    </clipPath>
    <clipPath
       clipPathUnits="userSpaceOnUse"
       id="clipPath26-7">
      <path
         d="M 0,799 H 881 V 0 H 0 Z"
         transform="translate(-555.60352,-113.5732)"
         id="path26-6" />
    </clipPath>
    <clipPath
       clipPathUnits="userSpaceOnUse"
       id="clipPath28-2">
      <path
         d="M 0,799 H 881 V 0 H 0 Z"
         transform="translate(-577.28711,-99.9854)"
         id="path28-7" />
    </clipPath>
    <clipPath
       clipPathUnits="userSpaceOnUse"
       id="clipPath30-0">
      <path
         d="M 0,799 H 881 V 0 H 0 Z"
         transform="translate(-627.79391,-99.9854)"
         id="path30-3" />
    </clipPath>
    <clipPath
       clipPathUnits="userSpaceOnUse"
       id="clipPath32-9">
      <path
         d="M 0,799 H 881 V 0 H 0 Z"
         transform="translate(-654.89552,-99.9854)"
         id="path32-9" />
    </clipPath>
    <clipPath
       clipPathUnits="userSpaceOnUse"
       id="clipPath34-9">
      <path
         d="M 0,799 H 881 V 0 H 0 Z"
         transform="translate(-760.49319,-125.0576)"
         id="path34-1" />
    </clipPath>
    <clipPath
       clipPathUnits="userSpaceOnUse"
       id="clipPath36-7">
      <path
         d="M 0,799 H 881 V 0 H 0 Z"
         transform="translate(-816.07915,-113.5732)"
         id="path36-2" />
    </clipPath>
    <clipPath
       clipPathUnits="userSpaceOnUse"
       id="clipPath38-3">
      <path
         d="M 0,799 H 881 V 0 H 0 Z"
         transform="translate(-271.0591,-58.993204)"
         id="path38-6" />
    </clipPath>
    <clipPath
       clipPathUnits="userSpaceOnUse"
       id="clipPath40-5">
      <path
         d="M 0,799 H 881 V 0 H 0 Z"
         transform="translate(-290.20071,-36.889601)"
         id="path40-5" />
    </clipPath>
    <clipPath
       clipPathUnits="userSpaceOnUse"
       id="clipPath42-8">
      <path
         d="M 0,799 H 881 V 0 H 0 Z"
         transform="translate(-329.15821,-84.046902)"
         id="path42-1" />
    </clipPath>
    <clipPath
       clipPathUnits="userSpaceOnUse"
       id="clipPath44-4">
      <path
         d="M 0,799 H 881 V 0 H 0 Z"
         transform="translate(-396.21921,-36.889601)"
         id="path44-7" />
    </clipPath>
    <clipPath
       clipPathUnits="userSpaceOnUse"
       id="clipPath46-1">
      <path
         d="M 0,799 H 881 V 0 H 0 Z"
         transform="translate(-478.93161,-58.993204)"
         id="path46-3" />
    </clipPath>
    <clipPath
       clipPathUnits="userSpaceOnUse"
       id="clipPath48-8">
      <path
         d="M 0,799 H 881 V 0 H 0 Z"
         transform="translate(-510.67091,-36.889601)"
         id="path48-4" />
    </clipPath>
    <clipPath
       clipPathUnits="userSpaceOnUse"
       id="clipPath50-8">
      <path
         d="M 0,799 H 881 V 0 H 0 Z"
         transform="translate(-576.13481,-58.993204)"
         id="path50-0" />
    </clipPath>
    <clipPath
       clipPathUnits="userSpaceOnUse"
       id="clipPath52-4">
      <path
         d="M 0,799 H 881 V 0 H 0 Z"
         transform="translate(-592.26172,-36.889601)"
         id="path52-6" />
    </clipPath>
  </defs>
  <g
     inkscape:label="Capa 1"
     inkscape:groupmode="layer"
     id="layer1"
     transform="translate(17.430307,90.163201)">
    <g
       id="g36"
       transform="matrix(0.54591617,0,0,0.54591617,-5.7512345,-12.544583)">
      <g
         id="g35">
        <g
           id="g34">
          <path
             d="m 60.54101,-16.797941 2.549715,10.8370645 h 1.855701 c 2.758719,0 4.242634,-2.1858557 3.581177,-5.3340415 -0.681919,-3.231088 -3.161423,-5.503023 -6.055961,-5.503023 z"
             style="fill:#f03d4d"
             id="path33" />
          <path
             d="m 176.17995,-16.873905 c -3.01096,0 -5.45022,2.122827 -6.51278,5.578987 h 6.48435 l 1.02475,-5.503023 c -0.33479,-0.0508 -0.67494,-0.07596 -0.99632,-0.07596 z"
             style="fill:#f03d4d"
             id="path32" />
          <path
             d="m 141.18208,-16.873905 c -3.01095,0 -5.18143,2.122827 -5.80584,5.578987 h 6.48435 l 0.3266,-5.503023 c -0.34008,-0.0508 -0.68373,-0.07596 -1.00511,-0.07596 z"
             style="fill:#f03d4d"
             id="path31" />
          <path
             d="m 238.40767,-41.430029 c -3.23285,0 -6.56178,2.858883 -8.01346,6.82904 -1.41393,3.887607 -0.2146,6.585645 2.87114,6.585645 3.08539,0 6.36357,-2.698038 7.92355,-6.585645 1.6002,-3.970157 0.45162,-6.82904 -2.78123,-6.82904 z"
             style="fill:#f03d4d"
             id="path22" />
          <path
             d="m 142.97681,-41.430029 c -3.2325,0 -5.62784,2.858883 -5.78518,6.82904 -0.15381,3.887607 1.91623,6.585645 5.00021,6.585645 3.08539,0 5.49497,-2.698038 5.79448,-6.585645 0.30797,-3.970157 -1.77666,-6.82904 -5.00951,-6.82904 z"
             style="fill:#f03d4d"
             id="path21" />
          <path
             d="m 7.7085761,-142.18047 6.9070719,16.41812 c -0.145344,1.11301 -0.451899,2.41375 -0.933793,3.9889 L 0.37672386,-76.281132 C -1.9509015,-67.887146 -4.8337466,-63.153821 -11.92175,-56.03689 l -0.01189,0.01189 c -1.921578,1.930045 -4.540614,2.996199 -7.363891,2.996199 h -2.095997 L 8.9550116,2.2753133 H 246.07749 l 31.27354,-55.3041183 h -2.09754 c -2.82363,0 -5.42201,-1.066154 -7.31325,-2.996199 -7.06613,-7.216767 -9.75785,-11.758779 -11.97188,-20.256128 l -12.54394,-45.492318 c -0.45649,-1.57832 -0.74086,-2.8795 -0.8661,-3.99252 l 7.18148,-16.4145 z m 10.3988489,4.92632 h 67.496138 l -2.748669,19.98896 c -4.870445,-5.53508 -9.443297,-7.19595 -19.095992,-7.19595 H 39.845633 l -4.244186,16.38195 h 36.839612 l -3.823539,24.822256 c -5.078584,-6.914084 -9.991309,-8.981364 -20.508309,-8.981364 H 31.613577 l -3.994072,16.349907 c -2.124425,8.915038 -1.676025,14.097132 2.064474,21.690666 l 2.110982,4.256071 H -9.7663263 l 4.2514201,-4.256071 C 2.0874469,-61.791259 5.2051395,-66.973353 7.7359646,-75.888391 L 21.020425,-120.37973 c 1.980845,-6.33165 1.653079,-9.74029 -1.314132,-14.40894 z m 69.184407,0 h 67.496138 l 1.387,19.98896 c -6.00039,-5.53508 -10.91453,-7.19595 -20.56722,-7.19595 h -23.91327 l -0.92243,16.38195 h 36.83806 l 1.0201,24.822256 c -6.40468,-6.914084 -11.71693,-8.981364 -22.23534,-8.981364 H 109.9013 l -0.87488,16.349907 c -0.46672,8.915038 0.93228,14.097132 6.04615,21.690666 l 2.87217,4.256071 H 76.38242 l 3.49126,-4.256071 c 6.226874,-7.593534 8.395775,-12.775628 9.267135,-21.690666 l 4.565613,-44.491339 c 0.678391,-6.33165 -0.3551,-9.74029 -4.298446,-14.40894 z m 70.770878,0 h 29.15222 l 44.03762,55.225048 -9.37513,-38.350628 c -1.61361,-6.33165 -3.89635,-9.74029 -9.55808,-14.40894 l -3.02772,-2.46548 h 30.20849 l -1.63969,2.46548 c -3.04518,4.66865 -3.43085,8.07729 -1.55443,14.40894 l 12.54032,44.491339 c 2.38019,8.915038 5.41348,14.097132 12.88707,21.690666 l 4.18011,4.256071 h -35.38131 l -47.55833,-66.996946 5.59449,41.050209 c 1.15182,8.915038 3.48174,14.097132 9.93686,21.690666 l 3.61683,4.256071 h -37.61579 l 2.71198,-4.256071 c 4.82106,-7.593534 6.01705,-12.775628 5.19296,-21.690666 l -4.35425,-44.491339 c -0.65123,-6.33165 -2.40897,-9.74029 -7.34891,-14.40894 z m -14.85905,92.002132 c 5.73828,0 9.38529,4.490125 8.82014,10.651029 -0.54293,5.961233 -4.69391,10.070703 -10.03143,10.070703 -5.31706,0 -8.99114,-4.10947 -8.83874,-10.070703 0.15699,-6.160904 4.33575,-10.651029 10.05003,-10.651029 z m 96.68454,0 c 5.73828,0 7.91185,4.490125 5.33869,10.651029 -2.47296,5.961233 -7.94552,10.070703 -13.28446,10.070703 -5.31529,0 -7.66815,-4.10947 -5.5857,-10.070703 2.16711,-6.160904 7.8186,-10.651029 13.53147,-10.651029 z m -76.43564,0.0894 c 2.02988,0 3.98419,0.355567 7.13238,1.331702 l -2.35955,4.542358 c -1.67498,-1.357135 -3.68316,-2.054138 -5.71128,-2.054138 -2.03023,0 -3.33815,0.697174 -3.45457,1.708939 -0.3436,3.002842 11.00613,1.492078 9.84902,9.084201 -0.54646,3.613146 -3.44307,5.886979 -7.50601,5.886979 -2.72026,0 -5.77845,-1.01355 -7.67498,-2.461349 l 3.26492,-5.467366 c -0.0321,2.506836 2.12447,4.440556 4.90047,4.440556 1.69863,0 2.82888,-0.732807 2.98587,-1.877922 0.51611,-3.732032 -10.63901,-2.258349 -9.9317,-9.317778 0.3616,-3.602915 3.42896,-5.816182 8.50543,-5.816182 z m 96.65611,0 c 2.03165,0 3.86861,0.355567 6.69365,1.331702 l -3.84679,4.542358 c -1.23155,-1.357135 -3.01137,-2.054138 -5.03949,-2.054138 -2.03023,0 -3.56622,0.697174 -4.01319,1.708939 -1.32291,3.002842 10.51767,1.492078 6.8957,9.084201 -1.71202,3.613146 -5.33726,5.886979 -9.40407,5.886979 -2.71674,0 -5.4523,-1.01355 -6.88175,-2.461349 l 5.03121,-5.467366 c -0.84419,2.506836 0.68839,4.440556 3.46439,4.440556 1.70004,0 3.06496,-0.732807 3.59306,-1.877922 1.72191,-3.732032 -9.90779,-2.258349 -6.90707,-9.317778 1.54481,-3.602915 5.33718,-5.816182 10.41435,-5.816182 z m -270.953483,0.444417 H 5.3495469 l 2.361613,5.773291 C 5.826623,-40.443508 4.5341718,-40.907064 2.3331936,-40.907064 h -5.4539307 l 1.9016927,4.303613 h 7.9116618 l 2.2784139,5.531963 C 7.142586,-32.509762 5.8856718,-32.952511 3.7439602,-32.952511 H 0.38602562 l 1.46037598,3.334164 c 0.7238992,1.657701 1.4325109,2.575012 2.9889648,3.862296 l 0.8423259,0.693498 h -7.4791301 l 0.2304769,-0.693498 c 0.4180413,-1.287284 0.314626,-2.204595 -0.4314982,-3.862296 l -4.6064372,-10.160104 c -0.8071547,-1.76812 -1.5887585,-2.760564 -3.2990234,-4.171321 z m 19.362642,0 h 16.19436 l 1.982825,5.773291 c -1.786465,-1.498598 -3.050078,-1.962154 -5.249292,-1.962154 h -5.453931 l 1.299146,3.451469 h 7.68842 l 1.933732,5.555217 c -1.744132,-1.441096 -2.975518,-1.889808 -5.122168,-1.889808 h -3.124874 l 1.950785,5.232756 h 5.223971 c 2.109609,0 3.01423,-0.43523 3.758943,-1.856217 l 1.802991,5.351094 H 16.279112 l 0.275953,-0.693498 c 0.500591,-1.287284 0.456814,-2.204595 -0.182418,-3.862296 l -3.943429,-10.160104 c -0.690032,-1.76812 -1.40749,-2.760564 -3.0246214,-4.171321 z m 19.515088,0 h 9.199438 c 5.322,0 8.896357,2.412427 10.068636,6.719487 0.807155,2.977441 -0.112975,4.795889 -2.767273,5.657019 l 2.067058,2.613277 c 1.773059,2.253542 4.156449,3.758944 5.937622,3.758944 -0.498827,0.720371 -1.491898,1.172538 -3.006018,1.172538 -2.315984,0 -4.323758,-1.066061 -6.279204,-3.54397 l -5.367631,-6.765478 h 1.544092 c 3.041647,0 4.335975,-0.958746 3.79305,-2.863391 -0.52458,-1.837265 -2.316334,-2.937289 -4.843632,-2.937289 h -3.125907 l 3.488159,11.288717 c 0.509058,1.657701 1.099336,2.575012 2.48822,3.862296 l 0.752926,0.693498 H 34.50384 l 0.31936,-0.693498 c 0.585258,-1.287284 0.601046,-2.204595 0.06976,-3.862296 l -3.277319,-10.160104 c -0.573263,-1.76812 -1.223121,-2.760564 -2.747119,-4.171321 z m 20.122286,0 h 7.276042 l 6.002217,8.991183 1.930115,-8.991183 h 7.195943 l -0.436149,0.768429 c -0.788105,1.410757 -0.922028,2.403201 -0.578776,4.171321 l 1.957503,10.160104 c 0.316442,1.657701 0.801723,2.575012 2.041736,3.862296 l 0.673344,0.693498 h -7.478613 l 0.400492,-0.693498 c 0.730955,-1.287284 0.852494,-2.204595 0.514181,-3.862296 l -1.987476,-9.642306 -2.730583,12.108822 -8.165393,-12.108822 2.348177,9.642306 c 0.401108,1.657701 0.931608,2.575012 2.23759,3.862296 l 0.70745,0.693498 h -6.768579 l 0.367419,-0.693498 c 0.669925,-1.287284 0.749501,-2.204595 0.329696,-3.862296 l -2.587956,-10.160104 c -0.453671,-1.76812 -1.037489,-2.760564 -2.463415,-4.171321 z m 24.432617,0 h 16.196427 l 0.725538,5.773291 c -1.463321,-1.498598 -2.624051,-1.962154 -4.825029,-1.962154 h -5.453931 l 0.551905,3.451469 h 7.688419 l 0.734322,5.555217 c -1.432981,-1.441096 -2.567954,-1.889808 -4.714957,-1.889808 h -3.124357 l 0.827339,5.232756 h 5.223971 c 2.107845,0 3.107528,-0.43523 4.156335,-1.856217 l 0.659392,5.351094 H 76.109569 l 0.42323,-0.693498 c 0.774699,-1.287284 0.928744,-2.204595 0.644405,-3.862296 l -1.752348,-10.160104 c -0.306211,-1.76812 -0.807157,-2.760564 -2.116666,-4.171321 z m 19.665983,0 h 6.996472 l 8.179865,13.893726 -0.5824,-8.953976 c -0.115,-1.76812 -0.50703,-2.760564 -1.66449,-4.171321 l -0.63614,-0.768429 h 7.24917 l -0.54467,0.768429 c -0.98637,1.410757 -1.26058,2.403201 -1.16427,4.171321 l 0.54674,10.160104 c 0.0896,1.657701 0.44652,2.575012 1.5105,3.862296 l 0.57826,0.693498 h -6.36706 l -8.267191,-13.79399 0.879533,9.238196 c 0.157339,1.657701 0.553125,2.575012 1.669668,3.862296 l 0.60565,0.693498 h -6.768584 l 0.468705,-0.693498 c 0.859366,-1.287284 1.072409,-2.204595 0.898137,-3.862296 l -1.080554,-10.160104 c -0.187678,-1.76812 -0.623002,-2.760564 -1.837614,-4.171321 z m 22.581047,0 h 17.05891 l -0.11834,5.773291 c -1.24389,-1.498598 -2.33776,-1.962154 -4.53874,-1.962154 h -1.85105 l 0.017,11.288717 c 0.002,1.657701 0.31148,2.575012 1.30948,3.862296 l 0.54106,0.693498 h -7.47862 l 0.53124,-0.693498 c 0.97613,-1.287284 1.27183,-2.204595 1.24643,-3.862296 l -0.16898,-11.288717 h -1.82676 c -2.20098,0 -3.28701,0.463556 -4.50515,1.962154 z m 64.60226,0 h 16.19591 l -1.36839,5.773291 c -0.91863,-1.498598 -1.91298,-1.962154 -4.11396,-1.962154 h -5.45393 l -0.86816,4.303613 h 7.91166 l -1.25987,5.531963 c -0.91335,-1.438274 -1.88476,-1.881023 -4.02612,-1.881023 h -3.35845 l -0.66766,3.334164 c -0.3302,1.657701 -0.20318,2.575012 0.53589,3.862296 l 0.40463,0.693498 h -7.48069 l 0.67025,-0.693498 c 1.23296,-1.287284 1.71309,-2.204595 2.02106,-3.862296 l 1.90325,-10.160104 c 0.33302,-1.76812 0.19282,-2.760564 -0.6041,-4.171321 z m 19.03398,0 h 8.00985 l -0.79323,0.768429 c -1.4411,1.410757 -2.0315,2.403201 -2.50528,4.171321 l -2.69131,10.160104 c -0.43497,1.657701 -0.3675,2.575012 0.29043,3.862296 l 0.35915,0.693498 h -7.47913 l 0.71417,-0.693498 c 1.31585,-1.287284 1.85377,-2.204595 2.26652,-3.862296 l 2.55437,-10.160104 c 0.44662,-1.76812 0.37241,-2.760564 -0.3328,-4.171321 z m 10.21437,0 h 6.9944 l 2.71405,13.893726 2.9316,-8.953976 c 0.58032,-1.76812 0.5814,-2.760564 -0.0155,-4.171321 l -0.3328,-0.768429 h 7.24866 l -0.84957,0.768429 c -1.54622,1.410757 -2.21055,2.403201 -2.81274,4.171321 l -3.43442,10.160104 c -0.55845,1.657701 -0.55512,2.575012 0.008,3.862296 l 0.31006,0.693498 h -6.36757 l -2.87735,-13.79399 -2.73885,9.238196 c -0.48895,1.657701 -0.45028,2.575012 0.16743,3.862296 l 0.33642,0.693498 h -6.76858 l 0.73742,-0.693498 c 1.35996,-1.287284 1.92887,-2.204595 2.40089,-3.862296 l 2.9006,-10.160104 c 0.50976,-1.76812 0.46752,-2.760564 -0.18759,-4.171321 z m -67.42741,24.403162 c 1.67463,0 3.26692,0.233705 4.81314,0.698665 l -0.92708,12.7217044 c -0.10477,1.458029 0.12184,2.2651212 0.95757,3.3982422 l 0.4563,0.6092651 h -6.89673 l 0.53485,-0.6092651 c 0.98425,-1.133121 1.31797,-1.9402132 1.40405,-3.3982422 l 0.0723,-1.2283488 h -6.43165 c 0.18944,2.1367728 0.97123,4.1549462 2.02004,5.2358561 h -5.08548 c -0.39582,-1.7899925 -0.61061,-4.0314872 -0.56793,-5.9629435 0.1517,-6.9599452 3.88055,-11.4649332 9.65058,-11.4649332 z m 35.43659,0 c 1.6764,0 3.23627,0.233705 4.72323,0.698665 l -2.53783,12.7217044 c -0.28751,1.458029 -0.16078,2.2651212 0.53278,3.3982422 l 0.37879,0.6092651 h -6.89518 l 0.61081,-0.6092651 c 1.12642,-1.133121 1.56156,-1.9402132 1.83038,-3.3982422 l 0.22686,-1.2283488 h -6.43165 c -0.0794,2.1367728 0.44989,4.1549462 1.36323,5.2358561 h -5.08497 c -0.17109,-1.7899925 -0.10502,-4.0314872 0.17932,-5.9629435 1.03152,-6.9599452 5.33421,-11.4649332 11.10423,-11.4649332 z m -87.671131,0.181384 h 7.348906 l -0.461988,0.673344 c -0.838904,1.23331 -1.040508,2.101189 -0.867647,3.65094 l 1.094507,9.8469442 h 4.370793 c 1.94204,0 2.88149,-0.3824289 3.90984,-1.6309082 l 0.37207,4.7066895 H 91.282286 l 0.424264,-0.6113322 c 0.776463,-1.133121 0.964036,-1.940074 0.783414,-3.3966919 l -1.110009,-8.9147014 c -0.194733,-1.549751 -0.603799,-2.41763 -1.733745,-3.65094 z m -17.463016,5.17e-4 h 14.859558 l 0.714168,5.054989 c -1.355018,-1.314449 -2.424309,-1.720826 -4.445723,-1.720826 h -5.009514 l 0.528133,3.024622 h 7.065719 l 0.720886,4.8756714 c -1.331382,-1.2668234 -2.378867,-1.6593304 -4.354773,-1.6593304 h -2.873726 l 0.793233,4.596102 h 4.813143 c 1.94204,0 2.858424,-0.382429 3.812687,-1.6309082 l 0.65474,4.7061727 H 74.893106 l 0.387056,-0.6108154 c 0.706966,-1.1331211 0.844542,-1.940074 0.573609,-3.3966919 l -1.664498,-8.9167682 c -0.291042,-1.547987 -0.754548,-2.415866 -1.964222,-3.65094 z m 39.762427,0 h 6.41822 l 6.73085,12.1801351 -0.0367,-7.8579181 c -0.007,-1.547987 -0.31328,-2.415866 -1.29294,-3.65094 l -0.54106,-0.671277 h 6.64973 l -0.5426,0.671277 c -0.98284,1.235074 -1.28913,2.102953 -1.2976,3.65094 l -0.0543,8.9167682 c -0.009,1.4566179 0.27271,2.2635708 1.18287,3.3966919 l 0.49506,0.6108154 h -5.86992 l -6.82749,-12.1155395 0.27595,8.1080322 c 0.049,1.4566179 0.36207,2.2635708 1.31775,3.3966919 l 0.51883,0.6108154 h -6.24045 l 0.47233,-0.6108154 c 0.86783,-1.1331211 1.11633,-1.940074 1.05213,-3.3966919 l -0.40101,-8.9167682 c -0.0691,-1.547987 -0.40938,-2.415866 -1.44126,-3.65094 z m 37.52898,0 h 7.1608 c -1.29046,1.006121 -1.38555,2.799277 -0.65319,4.322217 l 1.89343,3.997689 c 2.73014,-1.437921 4.51144,-4.831996 4.13256,-8.319906 h 4.48758 c -0.50906,5.105042 -3.54206,9.649593 -7.48223,11.4039551 l -0.22169,1.8350301 c -0.17604,1.4566179 0.012,2.2635708 0.79375,3.3966919 l 0.42581,0.6108154 h -6.89673 l 0.56534,-0.6108154 c 1.03857,-1.1331211 1.41052,-1.940074 1.56786,-3.3966919 l 0.13539,-1.2536703 z m 35.9947,0 h 8.4398 c 4.88385,0 6.98813,2.111113 5.96966,5.883362 -0.6985,2.608789 -2.42553,4.205616 -5.28443,4.9619708 l 0.63923,2.2975342 c 0.54822,1.9808451 2.02185,3.3052246 3.66438,3.3052246 -0.8068,0.6346466 -1.93858,1.0335287 -3.33416,1.0335287 -2.13678,0 -3.4751,-0.940789 -4.08399,-3.1191895 l -1.66088,-5.9427898 h 1.41903 c 2.79647,0 4.45433,-0.842649 4.88084,-2.511991 0.41099,-1.610782 -0.6987,-2.573487 -3.01997,-2.573487 h -2.87063 l -2.28564,9.9048222 c -0.33338,1.4566179 -0.23337,2.2635708 0.42633,3.3966919 l 0.3607,0.6108154 h -6.89726 l 0.63097,-0.6108154 c 1.16205,-1.1331211 1.62096,-1.940074 1.93529,-3.3966919 l 1.93734,-8.9167682 c 0.33832,-1.547987 0.22837,-2.415866 -0.47542,-3.65094 z m -130.632335,5.17e-4 h 7.487398 c 5.277903,0 9.503793,3.588375 10.540958,8.837703 0.996244,5.0715282 -1.691897,8.4077557 -6.601147,8.4077557 h -7.027478 l 0.348816,-0.6092651 c 0.639585,-1.133121 0.725891,-1.9402132 0.365352,-3.3982422 l -2.215885,-8.9157344 c -0.387702,-1.547988 -0.905043,-2.417253 -2.190564,-3.651974 z"
             style="fill:#f03d4d"
             id="path3" />
          <path
             style="fill:#f03d4d;fill-opacity:1;stroke-width:8.27508"
             d="m 404.3253,-330.41787 c -2.4771,-10.66908 -4.4956,-19.77874 -4.48555,-20.2437 0.0101,-0.46497 2.78924,-0.62296 6.17598,-0.35111 7.63327,0.61273 13.65734,3.90903 17.46958,9.55915 7.08216,10.49648 7.51831,20.80879 1.13858,26.92096 -2.50839,2.40319 -3.7897,2.83467 -9.35072,3.1489 l -6.44404,0.36412 z"
             id="path34"
             transform="matrix(0.26458333,0,0,0.26458333,-44.979164,76.2)" />
        </g>
      </g>
    </g>
  </g>
</svg>
